<?xml version="1.0" encoding="UTF-8" standalone="no"?><svg xmlns="http://www.w3.org/2000/svg" xmlns:xlink="http://www.w3.org/1999/xlink" contentScriptType="application/ecmascript" contentStyleType="text/css" height="219px" preserveAspectRatio="none" style="width:321px;height:219px;" version="1.1" viewBox="0 0 321 219" width="321px" zoomAndPan="magnify"><defs><filter height="300%" id="fbar3zaem7ahb" width="300%" x="-1" y="-1"><feGaussianBlur result="blurOut" stdDeviation="2.0"/><feColorMatrix in="blurOut" result="blurOut2" type="matrix" values="0 0 0 0 0 0 0 0 0 0 0 0 0 0 0 0 0 0 .4 0"/><feOffset dx="4.0" dy="4.0" in="blurOut2" result="blurOut3"/><feBlend in="SourceGraphic" in2="blurOut3" mode="normal"/></filter></defs><g><!--cluster AES--><polygon fill="#DDDDDD" filter="url(#fbar3zaem7ahb)" points="14,16,50,16,57,38.2969,299,38.2969,299,207,14,207,14,16" style="stroke: #000000; stroke-width: 2.0;"/><line style="stroke: #000000; stroke-width: 2.0;" x1="14" x2="57" y1="38.2969" y2="38.2969"/><text fill="#000000" font-family="sans-serif" font-size="14" font-weight="bold" lengthAdjust="spacingAndGlyphs" textLength="30" x="18" y="30.9951">AES</text><!--class CryptoAES--><rect fill="#FEFECE" filter="url(#fbar3zaem7ahb)" height="48" id="CryptoAES" style="stroke: #A80036; stroke-width: 1.5;" width="96" x="108" y="43"/><ellipse cx="123" cy="59" fill="#ADD1B2" rx="11" ry="11" style="stroke: #A80036; stroke-width: 1.0;"/><path d="M125.9688,64.6406 Q125.3906,64.9375 124.75,65.0781 Q124.1094,65.2344 123.4063,65.2344 Q120.9063,65.2344 119.5781,63.5938 Q118.2656,61.9375 118.2656,58.8125 Q118.2656,55.6875 119.5781,54.0313 Q120.9063,52.375 123.4063,52.375 Q124.1094,52.375 124.75,52.5313 Q125.4063,52.6875 125.9688,52.9844 L125.9688,55.7031 Q125.3438,55.125 124.75,54.8594 Q124.1563,54.5781 123.5313,54.5781 Q122.1875,54.5781 121.5,55.6563 Q120.8125,56.7188 120.8125,58.8125 Q120.8125,60.9063 121.5,61.9844 Q122.1875,63.0469 123.5313,63.0469 Q124.1563,63.0469 124.75,62.7813 Q125.3438,62.5 125.9688,61.9219 L125.9688,64.6406 Z "/><text fill="#000000" font-family="sans-serif" font-size="12" lengthAdjust="spacingAndGlyphs" textLength="64" x="137" y="63.1543">CryptoAES</text><line style="stroke: #A80036; stroke-width: 1.5;" x1="109" x2="203" y1="75" y2="75"/><line style="stroke: #A80036; stroke-width: 1.5;" x1="109" x2="203" y1="83" y2="83"/><!--class AESEncryptor--><rect fill="#FEFECE" filter="url(#fbar3zaem7ahb)" height="48" id="AESEncryptor" style="stroke: #A80036; stroke-width: 1.5;" width="116" x="22" y="151"/><ellipse cx="37" cy="167" fill="#ADD1B2" rx="11" ry="11" style="stroke: #A80036; stroke-width: 1.0;"/><path d="M39.9688,172.6406 Q39.3906,172.9375 38.75,173.0781 Q38.1094,173.2344 37.4063,173.2344 Q34.9063,173.2344 33.5781,171.5938 Q32.2656,169.9375 32.2656,166.8125 Q32.2656,163.6875 33.5781,162.0313 Q34.9063,160.375 37.4063,160.375 Q38.1094,160.375 38.75,160.5313 Q39.4063,160.6875 39.9688,160.9844 L39.9688,163.7031 Q39.3438,163.125 38.75,162.8594 Q38.1563,162.5781 37.5313,162.5781 Q36.1875,162.5781 35.5,163.6563 Q34.8125,164.7188 34.8125,166.8125 Q34.8125,168.9063 35.5,169.9844 Q36.1875,171.0469 37.5313,171.0469 Q38.1563,171.0469 38.75,170.7813 Q39.3438,170.5 39.9688,169.9219 L39.9688,172.6406 Z "/><text fill="#000000" font-family="sans-serif" font-size="12" lengthAdjust="spacingAndGlyphs" textLength="84" x="51" y="171.1543">AESEncryptor</text><line style="stroke: #A80036; stroke-width: 1.5;" x1="23" x2="137" y1="183" y2="183"/><line style="stroke: #A80036; stroke-width: 1.5;" x1="23" x2="137" y1="191" y2="191"/><!--class AESDecryptor--><rect fill="#FEFECE" filter="url(#fbar3zaem7ahb)" height="48" id="AESDecryptor" style="stroke: #A80036; stroke-width: 1.5;" width="117" x="173.5" y="151"/><ellipse cx="188.5" cy="167" fill="#ADD1B2" rx="11" ry="11" style="stroke: #A80036; stroke-width: 1.0;"/><path d="M191.4688,172.6406 Q190.8906,172.9375 190.25,173.0781 Q189.6094,173.2344 188.9063,173.2344 Q186.4063,173.2344 185.0781,171.5938 Q183.7656,169.9375 183.7656,166.8125 Q183.7656,163.6875 185.0781,162.0313 Q186.4063,160.375 188.9063,160.375 Q189.6094,160.375 190.25,160.5313 Q190.9063,160.6875 191.4688,160.9844 L191.4688,163.7031 Q190.8438,163.125 190.25,162.8594 Q189.6563,162.5781 189.0313,162.5781 Q187.6875,162.5781 187,163.6563 Q186.3125,164.7188 186.3125,166.8125 Q186.3125,168.9063 187,169.9844 Q187.6875,171.0469 189.0313,171.0469 Q189.6563,171.0469 190.25,170.7813 Q190.8438,170.5 191.4688,169.9219 L191.4688,172.6406 Z "/><text fill="#000000" font-family="sans-serif" font-size="12" lengthAdjust="spacingAndGlyphs" textLength="85" x="202.5" y="171.1543">AESDecryptor</text><line style="stroke: #A80036; stroke-width: 1.5;" x1="174.5" x2="289.5" y1="183" y2="183"/><line style="stroke: #A80036; stroke-width: 1.5;" x1="174.5" x2="289.5" y1="191" y2="191"/><!--link CryptoAES to AESEncryptor--><path d="M135.934,95.5148 C123.8099,112.7438 108.5253,134.464 96.999,150.8436 " fill="none" id="CryptoAES-AESEncryptor" style="stroke: #A80036; stroke-width: 1.0;"/><polygon fill="#A80036" points="138.9441,91.2373,130.4934,96.2955,136.0666,95.3263,137.0358,100.8995,138.9441,91.2373" style="stroke: #A80036; stroke-width: 1.0;"/><!--link CryptoAES to AESDecryptor--><path d="M176.066,95.5148 C188.1901,112.7438 203.4747,134.464 215.001,150.8436 " fill="none" id="CryptoAES-AESDecryptor" style="stroke: #A80036; stroke-width: 1.0;"/><polygon fill="#A80036" points="173.0559,91.2373,174.9642,100.8995,175.9334,95.3263,181.5066,96.2955,173.0559,91.2373" style="stroke: #A80036; stroke-width: 1.0;"/><!--
@startuml
'https://plantuml.com/sequence-diagram
package AES #DDDDDD {

class CryptoAES {
}

class AESEncryptor {

}

class AESDecryptor {

}

CryptoAES <- - AESEncryptor
CryptoAES <- - AESDecryptor
}
@enduml

PlantUML version 1.2017.15(Mon Jul 03 18:45:34 CEST 2017)
(GPL source distribution)
Java Runtime: OpenJDK Runtime Environment
JVM: OpenJDK 64-Bit Server VM
Java Version: 11.0.10+9-Ubuntu-0ubuntu1.18.04
Operating System: Linux
OS Version: 5.4.0-70-generic
Default Encoding: UTF-8
Language: de
Country: DE
--></g></svg>