<?xml version="1.0" encoding="UTF-8" standalone="no"?><svg xmlns="http://www.w3.org/2000/svg" xmlns:xlink="http://www.w3.org/1999/xlink" contentScriptType="application/ecmascript" contentStyleType="text/css" height="250px" preserveAspectRatio="none" style="width:340px;height:250px;" version="1.1" viewBox="0 0 340 250" width="340px" zoomAndPan="magnify"><defs><filter height="300%" id="ffj7999dwsqql" width="300%" x="-1" y="-1"><feGaussianBlur result="blurOut" stdDeviation="2.0"/><feColorMatrix in="blurOut" result="blurOut2" type="matrix" values="0 0 0 0 0 0 0 0 0 0 0 0 0 0 0 0 0 0 .4 0"/><feOffset dx="4.0" dy="4.0" in="blurOut2" result="blurOut3"/><feBlend in="SourceGraphic" in2="blurOut3" mode="normal"/></filter></defs><g><!--cluster butterfly--><polygon fill="#DDDDDD" filter="url(#ffj7999dwsqql)" points="22,24,96,24,103,46.2969,318,46.2969,318,238,22,238,22,24" style="stroke: #000000; stroke-width: 1.5;"/><line style="stroke: #000000; stroke-width: 1.5;" x1="22" x2="103" y1="46.2969" y2="46.2969"/><text fill="#000000" font-family="sans-serif" font-size="14" font-weight="bold" lengthAdjust="spacingAndGlyphs" textLength="68" x="26" y="38.9951">butterfly</text><!--class ArgumentParser--><rect fill="#FEFECE" filter="url(#ffj7999dwsqql)" height="163.2422" id="ArgumentParser" style="stroke: #A80036; stroke-width: 1.5;" width="264" x="38" y="59"/><ellipse cx="114.75" cy="75" fill="#ADD1B2" rx="11" ry="11" style="stroke: #A80036; stroke-width: 1.0;"/><path d="M117.7188,80.6406 Q117.1406,80.9375 116.5,81.0781 Q115.8594,81.2344 115.1563,81.2344 Q112.6563,81.2344 111.3281,79.5938 Q110.0156,77.9375 110.0156,74.8125 Q110.0156,71.6875 111.3281,70.0313 Q112.6563,68.375 115.1563,68.375 Q115.8594,68.375 116.5,68.5313 Q117.1563,68.6875 117.7188,68.9844 L117.7188,71.7031 Q117.0938,71.125 116.5,70.8594 Q115.9063,70.5781 115.2813,70.5781 Q113.9375,70.5781 113.25,71.6563 Q112.5625,72.7188 112.5625,74.8125 Q112.5625,76.9063 113.25,77.9844 Q113.9375,79.0469 115.2813,79.0469 Q115.9063,79.0469 116.5,78.7813 Q117.0938,78.5 117.7188,77.9219 L117.7188,80.6406 Z "/><text fill="#000000" font-family="sans-serif" font-size="12" lengthAdjust="spacingAndGlyphs" textLength="102" x="135.25" y="79.1543">ArgumentParser</text><line style="stroke: #A80036; stroke-width: 1.5;" x1="39" x2="301" y1="91" y2="91"/><rect fill="none" height="6" style="stroke: #C82930; stroke-width: 1.0;" width="6" x="46" y="99.9023"/><text fill="#000000" font-family="sans-serif" font-size="11" lengthAdjust="spacingAndGlyphs" textLength="53" x="58" y="105.2104">_argc: int</text><rect fill="none" height="6" style="stroke: #C82930; stroke-width: 1.0;" width="6" x="46" y="112.707"/><text fill="#000000" font-family="sans-serif" font-size="11" lengthAdjust="spacingAndGlyphs" textLength="76" x="58" y="118.0151">_argv: char**</text><rect fill="none" height="6" style="stroke: #C82930; stroke-width: 1.0;" width="6" x="46" y="125.5117"/><text fill="#000000" font-family="sans-serif" font-size="11" lengthAdjust="spacingAndGlyphs" textLength="101" x="58" y="130.8198">_args: std::vector</text><line style="stroke: #A80036; stroke-width: 1.5;" x1="39" x2="301" y1="137.4141" y2="137.4141"/><rect fill="#F24D5C" height="6" style="stroke: #C82930; stroke-width: 1.0;" width="6" x="46" y="146.3164"/><text fill="#000000" font-family="sans-serif" font-size="11" lengthAdjust="spacingAndGlyphs" textLength="140" x="58" y="151.6245">showUsage() const: void</text><rect fill="#F24D5C" height="6" style="stroke: #C82930; stroke-width: 1.0;" width="6" x="46" y="159.1211"/><text fill="#000000" font-family="sans-serif" font-size="11" lengthAdjust="spacingAndGlyphs" textLength="147" x="58" y="164.4292">showVersion() const: void</text><text fill="#000000" font-family="sans-serif" font-size="11" lengthAdjust="spacingAndGlyphs" textLength="0" x="62" y="177.2339"/><ellipse cx="49" cy="187.7305" fill="#84BE84" rx="3" ry="3" style="stroke: #038048; stroke-width: 1.0;"/><text fill="#000000" font-family="sans-serif" font-size="11" lengthAdjust="spacingAndGlyphs" textLength="220" x="58" y="190.0386">ArgumentParser(int argc, char *argv[])</text><text fill="#000000" font-family="sans-serif" font-size="11" lengthAdjust="spacingAndGlyphs" textLength="0" x="62" y="202.8433"/><ellipse cx="49" cy="213.3398" fill="#84BE84" rx="3" ry="3" style="stroke: #038048; stroke-width: 1.0;"/><text fill="#000000" font-family="sans-serif" font-size="11" lengthAdjust="spacingAndGlyphs" textLength="238" x="58" y="215.6479">parseArgs(): ArgumentParser::Arguments</text><!--
@startuml

package butterfly #DDDDDD
{

class ArgumentParser
{
    - _argc: int
    - _argv: char**
    - _args: std::vector

    - showUsage() const: void
    - showVersion() const: void

    + ArgumentParser(int argc, char *argv[])

    + parseArgs(): ArgumentParser::Arguments
}

}
@enduml

PlantUML version 1.2018.13(Mon Nov 26 18:11:51 CET 2018)
(GPL source distribution)
Java Runtime: OpenJDK Runtime Environment
JVM: OpenJDK 64-Bit Server VM
Java Version: 11.0.11+9-Ubuntu-0ubuntu2.20.04
Operating System: Linux
OS Version: 5.11.0-38-generic
Default Encoding: UTF-8
Language: de
Country: DE
--></g></svg>