<?xml version="1.0" encoding="UTF-8" standalone="no"?><svg xmlns="http://www.w3.org/2000/svg" xmlns:xlink="http://www.w3.org/1999/xlink" contentScriptType="application/ecmascript" contentStyleType="text/css" height="225px" preserveAspectRatio="none" style="width:696px;height:225px;" version="1.1" viewBox="0 0 696 225" width="696px" zoomAndPan="magnify"><defs><filter height="300%" id="f1x2a6c91aoq5m" width="300%" x="-1" y="-1"><feGaussianBlur result="blurOut" stdDeviation="2.0"/><feColorMatrix in="blurOut" result="blurOut2" type="matrix" values="0 0 0 0 0 0 0 0 0 0 0 0 0 0 0 0 0 0 .4 0"/><feOffset dx="4.0" dy="4.0" in="blurOut2" result="blurOut3"/><feBlend in="SourceGraphic" in2="blurOut3" mode="normal"/></filter></defs><g><!--cluster butterfly--><polygon fill="#DDDDDD" filter="url(#f1x2a6c91aoq5m)" points="22,24,96,24,103,46.2969,674,46.2969,674,213,22,213,22,24" style="stroke: #000000; stroke-width: 1.5;"/><line style="stroke: #000000; stroke-width: 1.5;" x1="22" x2="103" y1="46.2969" y2="46.2969"/><text fill="#000000" font-family="sans-serif" font-size="14" font-weight="bold" lengthAdjust="spacingAndGlyphs" textLength="68" x="26" y="38.9951">butterfly</text><!--class ArgumentParser--><rect fill="#FEFECE" filter="url(#f1x2a6c91aoq5m)" height="137.6328" id="ArgumentParser" style="stroke: #A80036; stroke-width: 1.5;" width="619" x="38.5" y="59"/><ellipse cx="292.75" cy="75" fill="#ADD1B2" rx="11" ry="11" style="stroke: #A80036; stroke-width: 1.0;"/><path d="M295.7188,80.6406 Q295.1406,80.9375 294.5,81.0781 Q293.8594,81.2344 293.1563,81.2344 Q290.6563,81.2344 289.3281,79.5938 Q288.0156,77.9375 288.0156,74.8125 Q288.0156,71.6875 289.3281,70.0313 Q290.6563,68.375 293.1563,68.375 Q293.8594,68.375 294.5,68.5313 Q295.1563,68.6875 295.7188,68.9844 L295.7188,71.7031 Q295.0938,71.125 294.5,70.8594 Q293.9063,70.5781 293.2813,70.5781 Q291.9375,70.5781 291.25,71.6563 Q290.5625,72.7188 290.5625,74.8125 Q290.5625,76.9063 291.25,77.9844 Q291.9375,79.0469 293.2813,79.0469 Q293.9063,79.0469 294.5,78.7813 Q295.0938,78.5 295.7188,77.9219 L295.7188,80.6406 Z "/><text fill="#000000" font-family="sans-serif" font-size="12" lengthAdjust="spacingAndGlyphs" textLength="102" x="313.25" y="79.1543">ArgumentParser</text><line style="stroke: #A80036; stroke-width: 1.5;" x1="39.5" x2="656.5" y1="91" y2="91"/><rect fill="none" height="6" style="stroke: #C82930; stroke-width: 1.0;" width="6" x="46.5" y="99.9023"/><text fill="#000000" font-family="sans-serif" font-size="11" lengthAdjust="spacingAndGlyphs" textLength="593" x="58.5" y="105.2104">_dir, _encrypt, _decrypt, _protected, _serverpKey, _config, _help, _version, _usage, _options: std::string</text><line style="stroke: #A80036; stroke-width: 1.5;" x1="39.5" x2="656.5" y1="111.8047" y2="111.8047"/><rect fill="#F24D5C" height="6" style="stroke: #C82930; stroke-width: 1.0;" width="6" x="46.5" y="120.707"/><text fill="#000000" font-family="sans-serif" font-size="11" lengthAdjust="spacingAndGlyphs" textLength="90" x="58.5" y="126.0151">printHelp(): void</text><rect fill="#F24D5C" height="6" style="stroke: #C82930; stroke-width: 1.0;" width="6" x="46.5" y="133.5117"/><text fill="#000000" font-family="sans-serif" font-size="11" lengthAdjust="spacingAndGlyphs" textLength="108" x="58.5" y="138.8198">printVersion(): void</text><text fill="#000000" font-family="sans-serif" font-size="11" lengthAdjust="spacingAndGlyphs" textLength="0" x="62.5" y="151.6245"/><ellipse cx="49.5" cy="162.1211" fill="#84BE84" rx="3" ry="3" style="stroke: #038048; stroke-width: 1.0;"/><text fill="#000000" font-family="sans-serif" font-size="11" lengthAdjust="spacingAndGlyphs" textLength="101" x="58.5" y="164.4292">ArgumentParser()</text><text fill="#000000" font-family="sans-serif" font-size="11" lengthAdjust="spacingAndGlyphs" textLength="0" x="62.5" y="177.2339"/><ellipse cx="49.5" cy="187.7305" fill="#84BE84" rx="3" ry="3" style="stroke: #038048; stroke-width: 1.0;"/><text fill="#000000" font-family="sans-serif" font-size="11" lengthAdjust="spacingAndGlyphs" textLength="301" x="58.5" y="190.0386">parseArgs(const int &amp;argc, char *argv[]): Arguments</text><!--
@startuml

package butterfly #DDDDDD
{

class ArgumentParser
{
    -_dir, _encrypt, _decrypt, _protected, _serverpKey, _config, _help, _version, _usage, _options: std::string
    -printHelp(): void
    -printVersion(): void

    +ArgumentParser()

    +parseArgs(const int &argc, char *argv[]): Arguments
}

}
@enduml

PlantUML version 1.2018.13(Mon Nov 26 18:11:51 CET 2018)
(GPL source distribution)
Java Runtime: OpenJDK Runtime Environment
JVM: OpenJDK 64-Bit Server VM
Java Version: 11.0.11+9-Ubuntu-0ubuntu2.20.04
Operating System: Linux
OS Version: 5.11.0-34-generic
Default Encoding: UTF-8
Language: de
Country: DE
--></g></svg>