<?xml version="1.0" encoding="UTF-8" standalone="no"?><svg xmlns="http://www.w3.org/2000/svg" xmlns:xlink="http://www.w3.org/1999/xlink" contentScriptType="application/ecmascript" contentStyleType="text/css" height="599px" preserveAspectRatio="none" style="width:1407px;height:599px;" version="1.1" viewBox="0 0 1407 599" width="1407px" zoomAndPan="magnify"><defs><filter height="300%" id="fdis8ncudklup" width="300%" x="-1" y="-1"><feGaussianBlur result="blurOut" stdDeviation="2.0"/><feColorMatrix in="blurOut" result="blurOut2" type="matrix" values="0 0 0 0 0 0 0 0 0 0 0 0 0 0 0 0 0 0 .4 0"/><feOffset dx="4.0" dy="4.0" in="blurOut2" result="blurOut3"/><feBlend in="SourceGraphic" in2="blurOut3" mode="normal"/></filter></defs><g><!--cluster butterfly--><polygon fill="#DDDDDD" filter="url(#fdis8ncudklup)" points="22,24,96,24,103,46.2969,1385,46.2969,1385,587,22,587,22,24" style="stroke: #000000; stroke-width: 1.5;"/><line style="stroke: #000000; stroke-width: 1.5;" x1="22" x2="103" y1="46.2969" y2="46.2969"/><text fill="#000000" font-family="sans-serif" font-size="14" font-weight="bold" lengthAdjust="spacingAndGlyphs" textLength="68" x="26" y="38.9951">butterfly</text><!--class std::exception--><rect fill="#FEFECE" filter="url(#fdis8ncudklup)" height="48" id="std::exception" style="stroke: #A80036; stroke-width: 1.5;" width="121" x="695.5" y="59"/><ellipse cx="710.5" cy="75" fill="#ADD1B2" rx="11" ry="11" style="stroke: #A80036; stroke-width: 1.0;"/><path d="M713.4688,80.6406 Q712.8906,80.9375 712.25,81.0781 Q711.6094,81.2344 710.9063,81.2344 Q708.4063,81.2344 707.0781,79.5938 Q705.7656,77.9375 705.7656,74.8125 Q705.7656,71.6875 707.0781,70.0313 Q708.4063,68.375 710.9063,68.375 Q711.6094,68.375 712.25,68.5313 Q712.9063,68.6875 713.4688,68.9844 L713.4688,71.7031 Q712.8438,71.125 712.25,70.8594 Q711.6563,70.5781 711.0313,70.5781 Q709.6875,70.5781 709,71.6563 Q708.3125,72.7188 708.3125,74.8125 Q708.3125,76.9063 709,77.9844 Q709.6875,79.0469 711.0313,79.0469 Q711.6563,79.0469 712.25,78.7813 Q712.8438,78.5 713.4688,77.9219 L713.4688,80.6406 Z "/><text fill="#000000" font-family="sans-serif" font-size="12" lengthAdjust="spacingAndGlyphs" textLength="89" x="724.5" y="79.1543">std::exception</text><line style="stroke: #A80036; stroke-width: 1.5;" x1="696.5" x2="815.5" y1="91" y2="91"/><line style="stroke: #A80036; stroke-width: 1.5;" x1="696.5" x2="815.5" y1="99" y2="99"/><!--class ButterflyException--><rect fill="#FEFECE" filter="url(#fdis8ncudklup)" height="112.0234" id="ButterflyException" style="stroke: #A80036; stroke-width: 1.5;" width="273" x="619.5" y="167"/><ellipse cx="695.25" cy="183" fill="#ADD1B2" rx="11" ry="11" style="stroke: #A80036; stroke-width: 1.0;"/><path d="M698.2188,188.6406 Q697.6406,188.9375 697,189.0781 Q696.3594,189.2344 695.6563,189.2344 Q693.1563,189.2344 691.8281,187.5938 Q690.5156,185.9375 690.5156,182.8125 Q690.5156,179.6875 691.8281,178.0313 Q693.1563,176.375 695.6563,176.375 Q696.3594,176.375 697,176.5313 Q697.6563,176.6875 698.2188,176.9844 L698.2188,179.7031 Q697.5938,179.125 697,178.8594 Q696.4063,178.5781 695.7813,178.5781 Q694.4375,178.5781 693.75,179.6563 Q693.0625,180.7188 693.0625,182.8125 Q693.0625,184.9063 693.75,185.9844 Q694.4375,187.0469 695.7813,187.0469 Q696.4063,187.0469 697,186.7813 Q697.5938,186.5 698.2188,185.9219 L698.2188,188.6406 Z "/><text fill="#000000" font-family="sans-serif" font-size="12" lengthAdjust="spacingAndGlyphs" textLength="113" x="715.75" y="187.1543">ButterflyException</text><line style="stroke: #A80036; stroke-width: 1.5;" x1="620.5" x2="891.5" y1="199" y2="199"/><rect fill="none" height="6" style="stroke: #C82930; stroke-width: 1.0;" width="6" x="627.5" y="207.9023"/><text fill="#000000" font-family="sans-serif" font-size="11" lengthAdjust="spacingAndGlyphs" textLength="102" x="639.5" y="213.2104">_error: std::string</text><line style="stroke: #A80036; stroke-width: 1.5;" x1="620.5" x2="891.5" y1="219.8047" y2="219.8047"/><ellipse cx="630.5" cy="231.707" fill="#84BE84" rx="3" ry="3" style="stroke: #038048; stroke-width: 1.0;"/><text fill="#000000" font-family="sans-serif" font-size="11" lengthAdjust="spacingAndGlyphs" textLength="247" x="639.5" y="234.0151">ButterflyException(const std::string &amp;error)</text><text fill="#000000" font-family="sans-serif" font-size="11" lengthAdjust="spacingAndGlyphs" textLength="0" x="643.5" y="246.8198"/><ellipse cx="630.5" cy="257.3164" fill="#84BE84" rx="3" ry="3" style="stroke: #038048; stroke-width: 1.0;"/><text fill="#000000" font-family="sans-serif" font-size="11" lengthAdjust="spacingAndGlyphs" textLength="109" x="639.5" y="259.6245">what(): const char*</text><ellipse cx="630.5" cy="270.1211" fill="#84BE84" rx="3" ry="3" style="stroke: #038048; stroke-width: 1.0;"/><text fill="#000000" font-family="sans-serif" font-size="11" lengthAdjust="spacingAndGlyphs" textLength="194" x="639.5" y="272.4292">virtual getType() const: std::string</text><!--class RSAEncryptionException--><rect fill="#FEFECE" filter="url(#fdis8ncudklup)" height="86.4141" id="RSAEncryptionException" style="stroke: #A80036; stroke-width: 1.5;" width="306" x="38" y="485"/><ellipse cx="111.25" cy="501" fill="#ADD1B2" rx="11" ry="11" style="stroke: #A80036; stroke-width: 1.0;"/><path d="M114.2188,506.6406 Q113.6406,506.9375 113,507.0781 Q112.3594,507.2344 111.6563,507.2344 Q109.1563,507.2344 107.8281,505.5938 Q106.5156,503.9375 106.5156,500.8125 Q106.5156,497.6875 107.8281,496.0313 Q109.1563,494.375 111.6563,494.375 Q112.3594,494.375 113,494.5313 Q113.6563,494.6875 114.2188,494.9844 L114.2188,497.7031 Q113.5938,497.125 113,496.8594 Q112.4063,496.5781 111.7813,496.5781 Q110.4375,496.5781 109.75,497.6563 Q109.0625,498.7188 109.0625,500.8125 Q109.0625,502.9063 109.75,503.9844 Q110.4375,505.0469 111.7813,505.0469 Q112.4063,505.0469 113,504.7813 Q113.5938,504.5 114.2188,503.9219 L114.2188,506.6406 Z "/><text fill="#000000" font-family="sans-serif" font-size="12" lengthAdjust="spacingAndGlyphs" textLength="151" x="131.75" y="505.1543">RSAEncryptionException</text><line style="stroke: #A80036; stroke-width: 1.5;" x1="39" x2="343" y1="517" y2="517"/><line style="stroke: #A80036; stroke-width: 1.5;" x1="39" x2="343" y1="525" y2="525"/><ellipse cx="49" cy="536.9023" fill="#84BE84" rx="3" ry="3" style="stroke: #038048; stroke-width: 1.0;"/><text fill="#000000" font-family="sans-serif" font-size="11" lengthAdjust="spacingAndGlyphs" textLength="280" x="58" y="539.2104">RSAEncryptionException(const std::string &amp;error)</text><text fill="#000000" font-family="sans-serif" font-size="11" lengthAdjust="spacingAndGlyphs" textLength="0" x="62" y="552.0151"/><ellipse cx="49" cy="562.5117" fill="#84BE84" rx="3" ry="3" style="stroke: #038048; stroke-width: 1.0;"/><text fill="#000000" font-family="sans-serif" font-size="11" lengthAdjust="spacingAndGlyphs" textLength="155" x="58" y="564.8198">getType() const: std::string</text><!--class RSADecryptionException--><rect fill="#FEFECE" filter="url(#fdis8ncudklup)" height="86.4141" id="RSADecryptionException" style="stroke: #A80036; stroke-width: 1.5;" width="307" x="720.5" y="485"/><ellipse cx="793.75" cy="501" fill="#ADD1B2" rx="11" ry="11" style="stroke: #A80036; stroke-width: 1.0;"/><path d="M796.7188,506.6406 Q796.1406,506.9375 795.5,507.0781 Q794.8594,507.2344 794.1563,507.2344 Q791.6563,507.2344 790.3281,505.5938 Q789.0156,503.9375 789.0156,500.8125 Q789.0156,497.6875 790.3281,496.0313 Q791.6563,494.375 794.1563,494.375 Q794.8594,494.375 795.5,494.5313 Q796.1563,494.6875 796.7188,494.9844 L796.7188,497.7031 Q796.0938,497.125 795.5,496.8594 Q794.9063,496.5781 794.2813,496.5781 Q792.9375,496.5781 792.25,497.6563 Q791.5625,498.7188 791.5625,500.8125 Q791.5625,502.9063 792.25,503.9844 Q792.9375,505.0469 794.2813,505.0469 Q794.9063,505.0469 795.5,504.7813 Q796.0938,504.5 796.7188,503.9219 L796.7188,506.6406 Z "/><text fill="#000000" font-family="sans-serif" font-size="12" lengthAdjust="spacingAndGlyphs" textLength="152" x="814.25" y="505.1543">RSADecryptionException</text><line style="stroke: #A80036; stroke-width: 1.5;" x1="721.5" x2="1026.5" y1="517" y2="517"/><line style="stroke: #A80036; stroke-width: 1.5;" x1="721.5" x2="1026.5" y1="525" y2="525"/><ellipse cx="731.5" cy="536.9023" fill="#84BE84" rx="3" ry="3" style="stroke: #038048; stroke-width: 1.0;"/><text fill="#000000" font-family="sans-serif" font-size="11" lengthAdjust="spacingAndGlyphs" textLength="281" x="740.5" y="539.2104">RSADecryptionException(const std::string &amp;error)</text><text fill="#000000" font-family="sans-serif" font-size="11" lengthAdjust="spacingAndGlyphs" textLength="0" x="744.5" y="552.0151"/><ellipse cx="731.5" cy="562.5117" fill="#84BE84" rx="3" ry="3" style="stroke: #038048; stroke-width: 1.0;"/><text fill="#000000" font-family="sans-serif" font-size="11" lengthAdjust="spacingAndGlyphs" textLength="155" x="740.5" y="564.8198">getType() const: std::string</text><!--class AESEncryptionException--><rect fill="#FEFECE" filter="url(#fdis8ncudklup)" height="86.4141" id="AESEncryptionException" style="stroke: #A80036; stroke-width: 1.5;" width="306" x="379" y="485"/><ellipse cx="452.25" cy="501" fill="#ADD1B2" rx="11" ry="11" style="stroke: #A80036; stroke-width: 1.0;"/><path d="M455.2188,506.6406 Q454.6406,506.9375 454,507.0781 Q453.3594,507.2344 452.6563,507.2344 Q450.1563,507.2344 448.8281,505.5938 Q447.5156,503.9375 447.5156,500.8125 Q447.5156,497.6875 448.8281,496.0313 Q450.1563,494.375 452.6563,494.375 Q453.3594,494.375 454,494.5313 Q454.6563,494.6875 455.2188,494.9844 L455.2188,497.7031 Q454.5938,497.125 454,496.8594 Q453.4063,496.5781 452.7813,496.5781 Q451.4375,496.5781 450.75,497.6563 Q450.0625,498.7188 450.0625,500.8125 Q450.0625,502.9063 450.75,503.9844 Q451.4375,505.0469 452.7813,505.0469 Q453.4063,505.0469 454,504.7813 Q454.5938,504.5 455.2188,503.9219 L455.2188,506.6406 Z "/><text fill="#000000" font-family="sans-serif" font-size="12" lengthAdjust="spacingAndGlyphs" textLength="151" x="472.75" y="505.1543">AESEncryptionException</text><line style="stroke: #A80036; stroke-width: 1.5;" x1="380" x2="684" y1="517" y2="517"/><line style="stroke: #A80036; stroke-width: 1.5;" x1="380" x2="684" y1="525" y2="525"/><ellipse cx="390" cy="536.9023" fill="#84BE84" rx="3" ry="3" style="stroke: #038048; stroke-width: 1.0;"/><text fill="#000000" font-family="sans-serif" font-size="11" lengthAdjust="spacingAndGlyphs" textLength="280" x="399" y="539.2104">AESEncryptionException(const std::string &amp;error)</text><text fill="#000000" font-family="sans-serif" font-size="11" lengthAdjust="spacingAndGlyphs" textLength="0" x="403" y="552.0151"/><ellipse cx="390" cy="562.5117" fill="#84BE84" rx="3" ry="3" style="stroke: #038048; stroke-width: 1.0;"/><text fill="#000000" font-family="sans-serif" font-size="11" lengthAdjust="spacingAndGlyphs" textLength="155" x="399" y="564.8198">getType() const: std::string</text><!--class AESDecryptionException--><rect fill="#FEFECE" filter="url(#fdis8ncudklup)" height="86.4141" id="AESDecryptionException" style="stroke: #A80036; stroke-width: 1.5;" width="307" x="1062.5" y="485"/><ellipse cx="1135.75" cy="501" fill="#ADD1B2" rx="11" ry="11" style="stroke: #A80036; stroke-width: 1.0;"/><path d="M1138.7188,506.6406 Q1138.1406,506.9375 1137.5,507.0781 Q1136.8594,507.2344 1136.1563,507.2344 Q1133.6563,507.2344 1132.3281,505.5938 Q1131.0156,503.9375 1131.0156,500.8125 Q1131.0156,497.6875 1132.3281,496.0313 Q1133.6563,494.375 1136.1563,494.375 Q1136.8594,494.375 1137.5,494.5313 Q1138.1563,494.6875 1138.7188,494.9844 L1138.7188,497.7031 Q1138.0938,497.125 1137.5,496.8594 Q1136.9063,496.5781 1136.2813,496.5781 Q1134.9375,496.5781 1134.25,497.6563 Q1133.5625,498.7188 1133.5625,500.8125 Q1133.5625,502.9063 1134.25,503.9844 Q1134.9375,505.0469 1136.2813,505.0469 Q1136.9063,505.0469 1137.5,504.7813 Q1138.0938,504.5 1138.7188,503.9219 L1138.7188,506.6406 Z "/><text fill="#000000" font-family="sans-serif" font-size="12" lengthAdjust="spacingAndGlyphs" textLength="152" x="1156.25" y="505.1543">AESDecryptionException</text><line style="stroke: #A80036; stroke-width: 1.5;" x1="1063.5" x2="1368.5" y1="517" y2="517"/><line style="stroke: #A80036; stroke-width: 1.5;" x1="1063.5" x2="1368.5" y1="525" y2="525"/><ellipse cx="1073.5" cy="536.9023" fill="#84BE84" rx="3" ry="3" style="stroke: #038048; stroke-width: 1.0;"/><text fill="#000000" font-family="sans-serif" font-size="11" lengthAdjust="spacingAndGlyphs" textLength="281" x="1082.5" y="539.2104">AESDecryptionException(const std::string &amp;error)</text><text fill="#000000" font-family="sans-serif" font-size="11" lengthAdjust="spacingAndGlyphs" textLength="0" x="1086.5" y="552.0151"/><ellipse cx="1073.5" cy="562.5117" fill="#84BE84" rx="3" ry="3" style="stroke: #038048; stroke-width: 1.0;"/><text fill="#000000" font-family="sans-serif" font-size="11" lengthAdjust="spacingAndGlyphs" textLength="155" x="1082.5" y="564.8198">getType() const: std::string</text><!--class EncryptorException--><rect fill="#FEFECE" filter="url(#fdis8ncudklup)" height="86.4141" id="EncryptorException" style="stroke: #A80036; stroke-width: 1.5;" width="279" x="138.5" y="339"/><ellipse cx="213.25" cy="355" fill="#ADD1B2" rx="11" ry="11" style="stroke: #A80036; stroke-width: 1.0;"/><path d="M216.2188,360.6406 Q215.6406,360.9375 215,361.0781 Q214.3594,361.2344 213.6563,361.2344 Q211.1563,361.2344 209.8281,359.5938 Q208.5156,357.9375 208.5156,354.8125 Q208.5156,351.6875 209.8281,350.0313 Q211.1563,348.375 213.6563,348.375 Q214.3594,348.375 215,348.5313 Q215.6563,348.6875 216.2188,348.9844 L216.2188,351.7031 Q215.5938,351.125 215,350.8594 Q214.4063,350.5781 213.7813,350.5781 Q212.4375,350.5781 211.75,351.6563 Q211.0625,352.7188 211.0625,354.8125 Q211.0625,356.9063 211.75,357.9844 Q212.4375,359.0469 213.7813,359.0469 Q214.4063,359.0469 215,358.7813 Q215.5938,358.5 216.2188,357.9219 L216.2188,360.6406 Z "/><text fill="#000000" font-family="sans-serif" font-size="12" lengthAdjust="spacingAndGlyphs" textLength="121" x="233.75" y="359.1543">EncryptorException</text><line style="stroke: #A80036; stroke-width: 1.5;" x1="139.5" x2="416.5" y1="371" y2="371"/><line style="stroke: #A80036; stroke-width: 1.5;" x1="139.5" x2="416.5" y1="379" y2="379"/><ellipse cx="149.5" cy="390.9023" fill="#84BE84" rx="3" ry="3" style="stroke: #038048; stroke-width: 1.0;"/><text fill="#000000" font-family="sans-serif" font-size="11" lengthAdjust="spacingAndGlyphs" textLength="253" x="158.5" y="393.2104">EncryptorException(const std::string &amp;error)</text><text fill="#000000" font-family="sans-serif" font-size="11" lengthAdjust="spacingAndGlyphs" textLength="0" x="162.5" y="406.0151"/><ellipse cx="149.5" cy="416.5117" fill="#84BE84" rx="3" ry="3" style="stroke: #038048; stroke-width: 1.0;"/><text fill="#000000" font-family="sans-serif" font-size="11" lengthAdjust="spacingAndGlyphs" textLength="155" x="158.5" y="418.8198">getType() const: std::string</text><!--class DecryptorException--><rect fill="#FEFECE" filter="url(#fdis8ncudklup)" height="86.4141" id="DecryptorException" style="stroke: #A80036; stroke-width: 1.5;" width="280" x="453" y="339"/><ellipse cx="527.75" cy="355" fill="#ADD1B2" rx="11" ry="11" style="stroke: #A80036; stroke-width: 1.0;"/><path d="M530.7188,360.6406 Q530.1406,360.9375 529.5,361.0781 Q528.8594,361.2344 528.1563,361.2344 Q525.6563,361.2344 524.3281,359.5938 Q523.0156,357.9375 523.0156,354.8125 Q523.0156,351.6875 524.3281,350.0313 Q525.6563,348.375 528.1563,348.375 Q528.8594,348.375 529.5,348.5313 Q530.1563,348.6875 530.7188,348.9844 L530.7188,351.7031 Q530.0938,351.125 529.5,350.8594 Q528.9063,350.5781 528.2813,350.5781 Q526.9375,350.5781 526.25,351.6563 Q525.5625,352.7188 525.5625,354.8125 Q525.5625,356.9063 526.25,357.9844 Q526.9375,359.0469 528.2813,359.0469 Q528.9063,359.0469 529.5,358.7813 Q530.0938,358.5 530.7188,357.9219 L530.7188,360.6406 Z "/><text fill="#000000" font-family="sans-serif" font-size="12" lengthAdjust="spacingAndGlyphs" textLength="122" x="548.25" y="359.1543">DecryptorException</text><line style="stroke: #A80036; stroke-width: 1.5;" x1="454" x2="732" y1="371" y2="371"/><line style="stroke: #A80036; stroke-width: 1.5;" x1="454" x2="732" y1="379" y2="379"/><ellipse cx="464" cy="390.9023" fill="#84BE84" rx="3" ry="3" style="stroke: #038048; stroke-width: 1.0;"/><text fill="#000000" font-family="sans-serif" font-size="11" lengthAdjust="spacingAndGlyphs" textLength="254" x="473" y="393.2104">DecryptorException(const std::string &amp;error)</text><text fill="#000000" font-family="sans-serif" font-size="11" lengthAdjust="spacingAndGlyphs" textLength="0" x="477" y="406.0151"/><ellipse cx="464" cy="416.5117" fill="#84BE84" rx="3" ry="3" style="stroke: #038048; stroke-width: 1.0;"/><text fill="#000000" font-family="sans-serif" font-size="11" lengthAdjust="spacingAndGlyphs" textLength="155" x="473" y="418.8198">getType() const: std::string</text><!--class SQLDatabaseException--><rect fill="#FEFECE" filter="url(#fdis8ncudklup)" height="86.4141" id="SQLDatabaseException" style="stroke: #A80036; stroke-width: 1.5;" width="302" x="768" y="339"/><ellipse cx="842.25" cy="355" fill="#ADD1B2" rx="11" ry="11" style="stroke: #A80036; stroke-width: 1.0;"/><path d="M845.2188,360.6406 Q844.6406,360.9375 844,361.0781 Q843.3594,361.2344 842.6563,361.2344 Q840.1563,361.2344 838.8281,359.5938 Q837.5156,357.9375 837.5156,354.8125 Q837.5156,351.6875 838.8281,350.0313 Q840.1563,348.375 842.6563,348.375 Q843.3594,348.375 844,348.5313 Q844.6563,348.6875 845.2188,348.9844 L845.2188,351.7031 Q844.5938,351.125 844,350.8594 Q843.4063,350.5781 842.7813,350.5781 Q841.4375,350.5781 840.75,351.6563 Q840.0625,352.7188 840.0625,354.8125 Q840.0625,356.9063 840.75,357.9844 Q841.4375,359.0469 842.7813,359.0469 Q843.4063,359.0469 844,358.7813 Q844.5938,358.5 845.2188,357.9219 L845.2188,360.6406 Z "/><text fill="#000000" font-family="sans-serif" font-size="12" lengthAdjust="spacingAndGlyphs" textLength="145" x="862.75" y="359.1543">SQLDatabaseException</text><line style="stroke: #A80036; stroke-width: 1.5;" x1="769" x2="1069" y1="371" y2="371"/><line style="stroke: #A80036; stroke-width: 1.5;" x1="769" x2="1069" y1="379" y2="379"/><ellipse cx="779" cy="390.9023" fill="#84BE84" rx="3" ry="3" style="stroke: #038048; stroke-width: 1.0;"/><text fill="#000000" font-family="sans-serif" font-size="11" lengthAdjust="spacingAndGlyphs" textLength="276" x="788" y="393.2104">SQLDatabaseException(const std::string &amp;error)</text><text fill="#000000" font-family="sans-serif" font-size="11" lengthAdjust="spacingAndGlyphs" textLength="0" x="792" y="406.0151"/><ellipse cx="779" cy="416.5117" fill="#84BE84" rx="3" ry="3" style="stroke: #038048; stroke-width: 1.0;"/><text fill="#000000" font-family="sans-serif" font-size="11" lengthAdjust="spacingAndGlyphs" textLength="155" x="788" y="418.8198">getType() const: std::string</text><!--class SocketException--><rect fill="#FEFECE" filter="url(#fdis8ncudklup)" height="86.4141" id="SocketException" style="stroke: #A80036; stroke-width: 1.5;" width="263" x="1105.5" y="339"/><ellipse cx="1180.75" cy="355" fill="#ADD1B2" rx="11" ry="11" style="stroke: #A80036; stroke-width: 1.0;"/><path d="M1183.7188,360.6406 Q1183.1406,360.9375 1182.5,361.0781 Q1181.8594,361.2344 1181.1563,361.2344 Q1178.6563,361.2344 1177.3281,359.5938 Q1176.0156,357.9375 1176.0156,354.8125 Q1176.0156,351.6875 1177.3281,350.0313 Q1178.6563,348.375 1181.1563,348.375 Q1181.8594,348.375 1182.5,348.5313 Q1183.1563,348.6875 1183.7188,348.9844 L1183.7188,351.7031 Q1183.0938,351.125 1182.5,350.8594 Q1181.9063,350.5781 1181.2813,350.5781 Q1179.9375,350.5781 1179.25,351.6563 Q1178.5625,352.7188 1178.5625,354.8125 Q1178.5625,356.9063 1179.25,357.9844 Q1179.9375,359.0469 1181.2813,359.0469 Q1181.9063,359.0469 1182.5,358.7813 Q1183.0938,358.5 1183.7188,357.9219 L1183.7188,360.6406 Z "/><text fill="#000000" font-family="sans-serif" font-size="12" lengthAdjust="spacingAndGlyphs" textLength="104" x="1201.25" y="359.1543">SocketException</text><line style="stroke: #A80036; stroke-width: 1.5;" x1="1106.5" x2="1367.5" y1="371" y2="371"/><line style="stroke: #A80036; stroke-width: 1.5;" x1="1106.5" x2="1367.5" y1="379" y2="379"/><ellipse cx="1116.5" cy="390.9023" fill="#84BE84" rx="3" ry="3" style="stroke: #038048; stroke-width: 1.0;"/><text fill="#000000" font-family="sans-serif" font-size="11" lengthAdjust="spacingAndGlyphs" textLength="237" x="1125.5" y="393.2104">SocketException(const std::string &amp;error)</text><text fill="#000000" font-family="sans-serif" font-size="11" lengthAdjust="spacingAndGlyphs" textLength="0" x="1129.5" y="406.0151"/><ellipse cx="1116.5" cy="416.5117" fill="#84BE84" rx="3" ry="3" style="stroke: #038048; stroke-width: 1.0;"/><text fill="#000000" font-family="sans-serif" font-size="11" lengthAdjust="spacingAndGlyphs" textLength="155" x="1125.5" y="418.8198">getType() const: std::string</text><!--link std::exception to ButterflyException--><path d="M756,127.25 C756,139.82 756,153.73 756,166.93 " fill="none" id="std::exception-ButterflyException" style="stroke: #A80036; stroke-width: 1.0;"/><polygon fill="none" points="749,127.1,756,107.1,763,127.1,749,127.1" style="stroke: #A80036; stroke-width: 1.0;"/><!--link ButterflyException to EncryptorException--><path d="M600.16,275.19 C537.37,295.81 465.83,319.31 406.14,338.91 " fill="none" id="ButterflyException-EncryptorException" style="stroke: #A80036; stroke-width: 1.0;"/><polygon fill="none" points="598.16,268.48,619.34,268.88,602.53,281.78,598.16,268.48" style="stroke: #A80036; stroke-width: 1.0;"/><!--link ButterflyException to DecryptorException--><path d="M683.94,293.41 C667.81,308.94 651.19,324.96 636.63,338.97 " fill="none" id="ButterflyException-DecryptorException" style="stroke: #A80036; stroke-width: 1.0;"/><polygon fill="none" points="679.27,288.19,698.53,279.35,688.98,298.27,679.27,288.19" style="stroke: #A80036; stroke-width: 1.0;"/><!--link EncryptorException to RSAEncryptionException--><path d="M242.08,442.45 C233.53,456.61 224.56,471.44 216.58,484.66 " fill="none" id="EncryptorException-RSAEncryptionException" style="stroke: #A80036; stroke-width: 1.0;"/><polygon fill="none" points="236.27,438.54,252.6,425.04,248.25,445.78,236.27,438.54" style="stroke: #A80036; stroke-width: 1.0;"/><!--link DecryptorException to RSADecryptionException--><path d="M693.15,434.32 C725.5,450.9 760.97,469.08 791.87,484.91 " fill="none" id="DecryptorException-RSADecryptionException" style="stroke: #A80036; stroke-width: 1.0;"/><polygon fill="none" points="689.64,440.39,675.03,425.04,696.02,427.93,689.64,440.39" style="stroke: #A80036; stroke-width: 1.0;"/><!--link EncryptorException to AESEncryptionException--><path d="M369.75,435.02 C398.66,451.41 430.22,469.3 457.76,484.91 " fill="none" id="EncryptorException-AESEncryptionException" style="stroke: #A80036; stroke-width: 1.0;"/><polygon fill="none" points="366.1,440.99,352.15,425.04,373,428.81,366.1,440.99" style="stroke: #A80036; stroke-width: 1.0;"/><!--link DecryptorException to AESDecryptionException--><path d="M752.93,425.32 C884.16,455.56 920.86,457.1 1045,485 C1050.67,486.27 1056.43,487.59 1062.26,488.93 " fill="none" id="DecryptorException-AESDecryptionException" style="stroke: #A80036; stroke-width: 1.0;"/><polygon fill="none" points="751.21,432.11,733.32,420.76,754.38,418.48,751.21,432.11" style="stroke: #A80036; stroke-width: 1.0;"/><!--link ButterflyException to SQLDatabaseException--><path d="M828.06,293.41 C844.19,308.94 860.81,324.96 875.37,338.97 " fill="none" id="ButterflyException-SQLDatabaseException" style="stroke: #A80036; stroke-width: 1.0;"/><polygon fill="none" points="823.02,298.27,813.47,279.35,832.73,288.19,823.02,298.27" style="stroke: #A80036; stroke-width: 1.0;"/><!--link ButterflyException to SocketException--><path d="M911.9,274.89 C975.28,295.57 1047.63,319.19 1107.97,338.88 " fill="none" id="ButterflyException-SocketException" style="stroke: #A80036; stroke-width: 1.0;"/><polygon fill="none" points="909.39,281.43,892.55,268.57,913.73,268.12,909.39,281.43" style="stroke: #A80036; stroke-width: 1.0;"/><!--
@startuml

package butterfly #DDDDDD
{

class std::exception
{

}

class ButterflyException
{
    - _error: std::string

    + ButterflyException(const std::string &error)

    + what(): const char*
    + virtual getType() const: std::string
}

class RSAEncryptionException
{

    + RSAEncryptionException(const std::string &error)

    + getType() const: std::string
}

class RSADecryptionException
{

    + RSADecryptionException(const std::string &error)

    + getType() const: std::string
}

class AESEncryptionException
{

    + AESEncryptionException(const std::string &error)

    + getType() const: std::string
}

class AESDecryptionException
{

    + AESDecryptionException(const std::string &error)

    + getType() const: std::string
}

class EncryptorException
{

    + EncryptorException(const std::string &error)

    + getType() const: std::string
}

class DecryptorException
{

    + DecryptorException(const std::string &error)

    + getType() const: std::string
}

class SQLDatabaseException
{

    + SQLDatabaseException(const std::string &error)

    + getType() const: std::string
}

class SocketException
{

    + SocketException(const std::string &error)

    + getType() const: std::string
}


std::exception <|- - ButterflyException
ButterflyException <|- - EncryptorException
ButterflyException <|- - DecryptorException

EncryptorException <|- - RSAEncryptionException
DecryptorException <|- - RSADecryptionException
EncryptorException <|- - AESEncryptionException
DecryptorException <|- - AESDecryptionException

ButterflyException <|- - SQLDatabaseException
ButterflyException <|- - SocketException

}
@enduml

PlantUML version 1.2018.13(Mon Nov 26 18:11:51 CET 2018)
(GPL source distribution)
Java Runtime: OpenJDK Runtime Environment
JVM: OpenJDK 64-Bit Server VM
Java Version: 11.0.11+9-Ubuntu-0ubuntu2.20.04
Operating System: Linux
OS Version: 5.11.0-38-generic
Default Encoding: UTF-8
Language: de
Country: DE
--></g></svg>