<?xml version="1.0" encoding="UTF-8" standalone="no"?><svg xmlns="http://www.w3.org/2000/svg" xmlns:xlink="http://www.w3.org/1999/xlink" contentScriptType="application/ecmascript" contentStyleType="text/css" height="536px" preserveAspectRatio="none" style="width:1407px;height:536px;" version="1.1" viewBox="0 0 1407 536" width="1407px" zoomAndPan="magnify"><defs><filter height="300%" id="f1mbog7r1qxrd" width="300%" x="-1" y="-1"><feGaussianBlur result="blurOut" stdDeviation="2.0"/><feColorMatrix in="blurOut" result="blurOut2" type="matrix" values="0 0 0 0 0 0 0 0 0 0 0 0 0 0 0 0 0 0 .4 0"/><feOffset dx="4.0" dy="4.0" in="blurOut2" result="blurOut3"/><feBlend in="SourceGraphic" in2="blurOut3" mode="normal"/></filter></defs><g><!--cluster butterfly--><polygon fill="#DDDDDD" filter="url(#f1mbog7r1qxrd)" points="22,24,96,24,103,46.2969,1385,46.2969,1385,524,22,524,22,24" style="stroke: #000000; stroke-width: 1.5;"/><line style="stroke: #000000; stroke-width: 1.5;" x1="22" x2="103" y1="46.2969" y2="46.2969"/><text fill="#000000" font-family="sans-serif" font-size="14" font-weight="bold" lengthAdjust="spacingAndGlyphs" textLength="68" x="26" y="38.9951">butterfly</text><!--class std::exception--><rect fill="#FEFECE" filter="url(#f1mbog7r1qxrd)" height="48" id="std::exception" style="stroke: #A80036; stroke-width: 1.5;" width="121" x="813.5" y="59"/><ellipse cx="828.5" cy="75" fill="#ADD1B2" rx="11" ry="11" style="stroke: #A80036; stroke-width: 1.0;"/><path d="M831.4688,80.6406 Q830.8906,80.9375 830.25,81.0781 Q829.6094,81.2344 828.9063,81.2344 Q826.4063,81.2344 825.0781,79.5938 Q823.7656,77.9375 823.7656,74.8125 Q823.7656,71.6875 825.0781,70.0313 Q826.4063,68.375 828.9063,68.375 Q829.6094,68.375 830.25,68.5313 Q830.9063,68.6875 831.4688,68.9844 L831.4688,71.7031 Q830.8438,71.125 830.25,70.8594 Q829.6563,70.5781 829.0313,70.5781 Q827.6875,70.5781 827,71.6563 Q826.3125,72.7188 826.3125,74.8125 Q826.3125,76.9063 827,77.9844 Q827.6875,79.0469 829.0313,79.0469 Q829.6563,79.0469 830.25,78.7813 Q830.8438,78.5 831.4688,77.9219 L831.4688,80.6406 Z "/><text fill="#000000" font-family="sans-serif" font-size="12" lengthAdjust="spacingAndGlyphs" textLength="89" x="842.5" y="79.1543">std::exception</text><line style="stroke: #A80036; stroke-width: 1.5;" x1="814.5" x2="933.5" y1="91" y2="91"/><line style="stroke: #A80036; stroke-width: 1.5;" x1="814.5" x2="933.5" y1="99" y2="99"/><!--class ButterflyException--><rect fill="#FEFECE" filter="url(#f1mbog7r1qxrd)" height="99.2188" id="ButterflyException" style="stroke: #A80036; stroke-width: 1.5;" width="273" x="737.5" y="167"/><ellipse cx="813.25" cy="183" fill="#ADD1B2" rx="11" ry="11" style="stroke: #A80036; stroke-width: 1.0;"/><path d="M816.2188,188.6406 Q815.6406,188.9375 815,189.0781 Q814.3594,189.2344 813.6563,189.2344 Q811.1563,189.2344 809.8281,187.5938 Q808.5156,185.9375 808.5156,182.8125 Q808.5156,179.6875 809.8281,178.0313 Q811.1563,176.375 813.6563,176.375 Q814.3594,176.375 815,176.5313 Q815.6563,176.6875 816.2188,176.9844 L816.2188,179.7031 Q815.5938,179.125 815,178.8594 Q814.4063,178.5781 813.7813,178.5781 Q812.4375,178.5781 811.75,179.6563 Q811.0625,180.7188 811.0625,182.8125 Q811.0625,184.9063 811.75,185.9844 Q812.4375,187.0469 813.7813,187.0469 Q814.4063,187.0469 815,186.7813 Q815.5938,186.5 816.2188,185.9219 L816.2188,188.6406 Z "/><text fill="#000000" font-family="sans-serif" font-size="12" lengthAdjust="spacingAndGlyphs" textLength="113" x="833.75" y="187.1543">ButterflyException</text><line style="stroke: #A80036; stroke-width: 1.5;" x1="738.5" x2="1009.5" y1="199" y2="199"/><rect fill="none" height="6" style="stroke: #C82930; stroke-width: 1.0;" width="6" x="745.5" y="207.9023"/><text fill="#000000" font-family="sans-serif" font-size="11" lengthAdjust="spacingAndGlyphs" textLength="102" x="757.5" y="213.2104">_error: std::string</text><line style="stroke: #A80036; stroke-width: 1.5;" x1="738.5" x2="1009.5" y1="219.8047" y2="219.8047"/><ellipse cx="748.5" cy="231.707" fill="#84BE84" rx="3" ry="3" style="stroke: #038048; stroke-width: 1.0;"/><text fill="#000000" font-family="sans-serif" font-size="11" lengthAdjust="spacingAndGlyphs" textLength="247" x="757.5" y="234.0151">ButterflyException(const std::string &amp;error)</text><text fill="#000000" font-family="sans-serif" font-size="11" lengthAdjust="spacingAndGlyphs" textLength="0" x="761.5" y="246.8198"/><ellipse cx="748.5" cy="257.3164" fill="#84BE84" rx="3" ry="3" style="stroke: #038048; stroke-width: 1.0;"/><text fill="#000000" font-family="sans-serif" font-size="11" lengthAdjust="spacingAndGlyphs" textLength="109" x="757.5" y="259.6245">what(): const char*</text><!--class RSAEncryptionException--><rect fill="#FEFECE" filter="url(#f1mbog7r1qxrd)" height="60.8047" id="RSAEncryptionException" style="stroke: #A80036; stroke-width: 1.5;" width="306" x="38" y="447"/><ellipse cx="111.25" cy="463" fill="#ADD1B2" rx="11" ry="11" style="stroke: #A80036; stroke-width: 1.0;"/><path d="M114.2188,468.6406 Q113.6406,468.9375 113,469.0781 Q112.3594,469.2344 111.6563,469.2344 Q109.1563,469.2344 107.8281,467.5938 Q106.5156,465.9375 106.5156,462.8125 Q106.5156,459.6875 107.8281,458.0313 Q109.1563,456.375 111.6563,456.375 Q112.3594,456.375 113,456.5313 Q113.6563,456.6875 114.2188,456.9844 L114.2188,459.7031 Q113.5938,459.125 113,458.8594 Q112.4063,458.5781 111.7813,458.5781 Q110.4375,458.5781 109.75,459.6563 Q109.0625,460.7188 109.0625,462.8125 Q109.0625,464.9063 109.75,465.9844 Q110.4375,467.0469 111.7813,467.0469 Q112.4063,467.0469 113,466.7813 Q113.5938,466.5 114.2188,465.9219 L114.2188,468.6406 Z "/><text fill="#000000" font-family="sans-serif" font-size="12" lengthAdjust="spacingAndGlyphs" textLength="151" x="131.75" y="467.1543">RSAEncryptionException</text><line style="stroke: #A80036; stroke-width: 1.5;" x1="39" x2="343" y1="479" y2="479"/><line style="stroke: #A80036; stroke-width: 1.5;" x1="39" x2="343" y1="487" y2="487"/><ellipse cx="49" cy="498.9023" fill="#84BE84" rx="3" ry="3" style="stroke: #038048; stroke-width: 1.0;"/><text fill="#000000" font-family="sans-serif" font-size="11" lengthAdjust="spacingAndGlyphs" textLength="280" x="58" y="501.2104">RSAEncryptionException(const std::string &amp;error)</text><!--class RSADecryptionException--><rect fill="#FEFECE" filter="url(#f1mbog7r1qxrd)" height="60.8047" id="RSADecryptionException" style="stroke: #A80036; stroke-width: 1.5;" width="307" x="720.5" y="447"/><ellipse cx="793.75" cy="463" fill="#ADD1B2" rx="11" ry="11" style="stroke: #A80036; stroke-width: 1.0;"/><path d="M796.7188,468.6406 Q796.1406,468.9375 795.5,469.0781 Q794.8594,469.2344 794.1563,469.2344 Q791.6563,469.2344 790.3281,467.5938 Q789.0156,465.9375 789.0156,462.8125 Q789.0156,459.6875 790.3281,458.0313 Q791.6563,456.375 794.1563,456.375 Q794.8594,456.375 795.5,456.5313 Q796.1563,456.6875 796.7188,456.9844 L796.7188,459.7031 Q796.0938,459.125 795.5,458.8594 Q794.9063,458.5781 794.2813,458.5781 Q792.9375,458.5781 792.25,459.6563 Q791.5625,460.7188 791.5625,462.8125 Q791.5625,464.9063 792.25,465.9844 Q792.9375,467.0469 794.2813,467.0469 Q794.9063,467.0469 795.5,466.7813 Q796.0938,466.5 796.7188,465.9219 L796.7188,468.6406 Z "/><text fill="#000000" font-family="sans-serif" font-size="12" lengthAdjust="spacingAndGlyphs" textLength="152" x="814.25" y="467.1543">RSADecryptionException</text><line style="stroke: #A80036; stroke-width: 1.5;" x1="721.5" x2="1026.5" y1="479" y2="479"/><line style="stroke: #A80036; stroke-width: 1.5;" x1="721.5" x2="1026.5" y1="487" y2="487"/><ellipse cx="731.5" cy="498.9023" fill="#84BE84" rx="3" ry="3" style="stroke: #038048; stroke-width: 1.0;"/><text fill="#000000" font-family="sans-serif" font-size="11" lengthAdjust="spacingAndGlyphs" textLength="281" x="740.5" y="501.2104">RSADecryptionException(const std::string &amp;error)</text><!--class AESEncryptionException--><rect fill="#FEFECE" filter="url(#f1mbog7r1qxrd)" height="60.8047" id="AESEncryptionException" style="stroke: #A80036; stroke-width: 1.5;" width="306" x="379" y="447"/><ellipse cx="452.25" cy="463" fill="#ADD1B2" rx="11" ry="11" style="stroke: #A80036; stroke-width: 1.0;"/><path d="M455.2188,468.6406 Q454.6406,468.9375 454,469.0781 Q453.3594,469.2344 452.6563,469.2344 Q450.1563,469.2344 448.8281,467.5938 Q447.5156,465.9375 447.5156,462.8125 Q447.5156,459.6875 448.8281,458.0313 Q450.1563,456.375 452.6563,456.375 Q453.3594,456.375 454,456.5313 Q454.6563,456.6875 455.2188,456.9844 L455.2188,459.7031 Q454.5938,459.125 454,458.8594 Q453.4063,458.5781 452.7813,458.5781 Q451.4375,458.5781 450.75,459.6563 Q450.0625,460.7188 450.0625,462.8125 Q450.0625,464.9063 450.75,465.9844 Q451.4375,467.0469 452.7813,467.0469 Q453.4063,467.0469 454,466.7813 Q454.5938,466.5 455.2188,465.9219 L455.2188,468.6406 Z "/><text fill="#000000" font-family="sans-serif" font-size="12" lengthAdjust="spacingAndGlyphs" textLength="151" x="472.75" y="467.1543">AESEncryptionException</text><line style="stroke: #A80036; stroke-width: 1.5;" x1="380" x2="684" y1="479" y2="479"/><line style="stroke: #A80036; stroke-width: 1.5;" x1="380" x2="684" y1="487" y2="487"/><ellipse cx="390" cy="498.9023" fill="#84BE84" rx="3" ry="3" style="stroke: #038048; stroke-width: 1.0;"/><text fill="#000000" font-family="sans-serif" font-size="11" lengthAdjust="spacingAndGlyphs" textLength="280" x="399" y="501.2104">AESEncryptionException(const std::string &amp;error)</text><!--class AESDecryptionException--><rect fill="#FEFECE" filter="url(#f1mbog7r1qxrd)" height="60.8047" id="AESDecryptionException" style="stroke: #A80036; stroke-width: 1.5;" width="307" x="1062.5" y="447"/><ellipse cx="1135.75" cy="463" fill="#ADD1B2" rx="11" ry="11" style="stroke: #A80036; stroke-width: 1.0;"/><path d="M1138.7188,468.6406 Q1138.1406,468.9375 1137.5,469.0781 Q1136.8594,469.2344 1136.1563,469.2344 Q1133.6563,469.2344 1132.3281,467.5938 Q1131.0156,465.9375 1131.0156,462.8125 Q1131.0156,459.6875 1132.3281,458.0313 Q1133.6563,456.375 1136.1563,456.375 Q1136.8594,456.375 1137.5,456.5313 Q1138.1563,456.6875 1138.7188,456.9844 L1138.7188,459.7031 Q1138.0938,459.125 1137.5,458.8594 Q1136.9063,458.5781 1136.2813,458.5781 Q1134.9375,458.5781 1134.25,459.6563 Q1133.5625,460.7188 1133.5625,462.8125 Q1133.5625,464.9063 1134.25,465.9844 Q1134.9375,467.0469 1136.2813,467.0469 Q1136.9063,467.0469 1137.5,466.7813 Q1138.0938,466.5 1138.7188,465.9219 L1138.7188,468.6406 Z "/><text fill="#000000" font-family="sans-serif" font-size="12" lengthAdjust="spacingAndGlyphs" textLength="152" x="1156.25" y="467.1543">AESDecryptionException</text><line style="stroke: #A80036; stroke-width: 1.5;" x1="1063.5" x2="1368.5" y1="479" y2="479"/><line style="stroke: #A80036; stroke-width: 1.5;" x1="1063.5" x2="1368.5" y1="487" y2="487"/><ellipse cx="1073.5" cy="498.9023" fill="#84BE84" rx="3" ry="3" style="stroke: #038048; stroke-width: 1.0;"/><text fill="#000000" font-family="sans-serif" font-size="11" lengthAdjust="spacingAndGlyphs" textLength="281" x="1082.5" y="501.2104">AESDecryptionException(const std::string &amp;error)</text><!--class EncryptorException--><rect fill="#FEFECE" filter="url(#f1mbog7r1qxrd)" height="60.8047" id="EncryptorException" style="stroke: #A80036; stroke-width: 1.5;" width="279" x="392.5" y="326"/><ellipse cx="467.25" cy="342" fill="#ADD1B2" rx="11" ry="11" style="stroke: #A80036; stroke-width: 1.0;"/><path d="M470.2188,347.6406 Q469.6406,347.9375 469,348.0781 Q468.3594,348.2344 467.6563,348.2344 Q465.1563,348.2344 463.8281,346.5938 Q462.5156,344.9375 462.5156,341.8125 Q462.5156,338.6875 463.8281,337.0313 Q465.1563,335.375 467.6563,335.375 Q468.3594,335.375 469,335.5313 Q469.6563,335.6875 470.2188,335.9844 L470.2188,338.7031 Q469.5938,338.125 469,337.8594 Q468.4063,337.5781 467.7813,337.5781 Q466.4375,337.5781 465.75,338.6563 Q465.0625,339.7188 465.0625,341.8125 Q465.0625,343.9063 465.75,344.9844 Q466.4375,346.0469 467.7813,346.0469 Q468.4063,346.0469 469,345.7813 Q469.5938,345.5 470.2188,344.9219 L470.2188,347.6406 Z "/><text fill="#000000" font-family="sans-serif" font-size="12" lengthAdjust="spacingAndGlyphs" textLength="121" x="487.75" y="346.1543">EncryptorException</text><line style="stroke: #A80036; stroke-width: 1.5;" x1="393.5" x2="670.5" y1="358" y2="358"/><line style="stroke: #A80036; stroke-width: 1.5;" x1="393.5" x2="670.5" y1="366" y2="366"/><ellipse cx="403.5" cy="377.9023" fill="#84BE84" rx="3" ry="3" style="stroke: #038048; stroke-width: 1.0;"/><text fill="#000000" font-family="sans-serif" font-size="11" lengthAdjust="spacingAndGlyphs" textLength="253" x="412.5" y="380.2104">EncryptorException(const std::string &amp;error)</text><!--class DecryptorException--><rect fill="#FEFECE" filter="url(#f1mbog7r1qxrd)" height="60.8047" id="DecryptorException" style="stroke: #A80036; stroke-width: 1.5;" width="280" x="734" y="326"/><ellipse cx="808.75" cy="342" fill="#ADD1B2" rx="11" ry="11" style="stroke: #A80036; stroke-width: 1.0;"/><path d="M811.7188,347.6406 Q811.1406,347.9375 810.5,348.0781 Q809.8594,348.2344 809.1563,348.2344 Q806.6563,348.2344 805.3281,346.5938 Q804.0156,344.9375 804.0156,341.8125 Q804.0156,338.6875 805.3281,337.0313 Q806.6563,335.375 809.1563,335.375 Q809.8594,335.375 810.5,335.5313 Q811.1563,335.6875 811.7188,335.9844 L811.7188,338.7031 Q811.0938,338.125 810.5,337.8594 Q809.9063,337.5781 809.2813,337.5781 Q807.9375,337.5781 807.25,338.6563 Q806.5625,339.7188 806.5625,341.8125 Q806.5625,343.9063 807.25,344.9844 Q807.9375,346.0469 809.2813,346.0469 Q809.9063,346.0469 810.5,345.7813 Q811.0938,345.5 811.7188,344.9219 L811.7188,347.6406 Z "/><text fill="#000000" font-family="sans-serif" font-size="12" lengthAdjust="spacingAndGlyphs" textLength="122" x="829.25" y="346.1543">DecryptorException</text><line style="stroke: #A80036; stroke-width: 1.5;" x1="735" x2="1013" y1="358" y2="358"/><line style="stroke: #A80036; stroke-width: 1.5;" x1="735" x2="1013" y1="366" y2="366"/><ellipse cx="745" cy="377.9023" fill="#84BE84" rx="3" ry="3" style="stroke: #038048; stroke-width: 1.0;"/><text fill="#000000" font-family="sans-serif" font-size="11" lengthAdjust="spacingAndGlyphs" textLength="254" x="754" y="380.2104">DecryptorException(const std::string &amp;error)</text><!--class SQLDatabaseException--><rect fill="#FEFECE" filter="url(#f1mbog7r1qxrd)" height="60.8047" id="SQLDatabaseException" style="stroke: #A80036; stroke-width: 1.5;" width="302" x="1049" y="326"/><ellipse cx="1123.25" cy="342" fill="#ADD1B2" rx="11" ry="11" style="stroke: #A80036; stroke-width: 1.0;"/><path d="M1126.2188,347.6406 Q1125.6406,347.9375 1125,348.0781 Q1124.3594,348.2344 1123.6563,348.2344 Q1121.1563,348.2344 1119.8281,346.5938 Q1118.5156,344.9375 1118.5156,341.8125 Q1118.5156,338.6875 1119.8281,337.0313 Q1121.1563,335.375 1123.6563,335.375 Q1124.3594,335.375 1125,335.5313 Q1125.6563,335.6875 1126.2188,335.9844 L1126.2188,338.7031 Q1125.5938,338.125 1125,337.8594 Q1124.4063,337.5781 1123.7813,337.5781 Q1122.4375,337.5781 1121.75,338.6563 Q1121.0625,339.7188 1121.0625,341.8125 Q1121.0625,343.9063 1121.75,344.9844 Q1122.4375,346.0469 1123.7813,346.0469 Q1124.4063,346.0469 1125,345.7813 Q1125.5938,345.5 1126.2188,344.9219 L1126.2188,347.6406 Z "/><text fill="#000000" font-family="sans-serif" font-size="12" lengthAdjust="spacingAndGlyphs" textLength="145" x="1143.75" y="346.1543">SQLDatabaseException</text><line style="stroke: #A80036; stroke-width: 1.5;" x1="1050" x2="1350" y1="358" y2="358"/><line style="stroke: #A80036; stroke-width: 1.5;" x1="1050" x2="1350" y1="366" y2="366"/><ellipse cx="1060" cy="377.9023" fill="#84BE84" rx="3" ry="3" style="stroke: #038048; stroke-width: 1.0;"/><text fill="#000000" font-family="sans-serif" font-size="11" lengthAdjust="spacingAndGlyphs" textLength="276" x="1069" y="380.2104">SQLDatabaseException(const std::string &amp;error)</text><!--link std::exception to ButterflyException--><path d="M874,127.51 C874,140.14 874,154.01 874,166.93 " fill="none" id="std::exception-ButterflyException" style="stroke: #A80036; stroke-width: 1.0;"/><polygon fill="none" points="867,127.21,874,107.21,881,127.21,867,127.21" style="stroke: #A80036; stroke-width: 1.0;"/><!--link ButterflyException to EncryptorException--><path d="M734.64,273.73 C690.3,291.63 643.01,310.71 605.28,325.93 " fill="none" id="ButterflyException-EncryptorException" style="stroke: #A80036; stroke-width: 1.0;"/><polygon fill="none" points="732.26,267.15,753.42,266.15,737.5,280.13,732.26,267.15" style="stroke: #A80036; stroke-width: 1.0;"/><!--link ButterflyException to DecryptorException--><path d="M874,286.24 C874,300.14 874,314.06 874,325.73 " fill="none" id="ButterflyException-DecryptorException" style="stroke: #A80036; stroke-width: 1.0;"/><polygon fill="none" points="867,286.15,874,266.15,881,286.15,867,286.15" style="stroke: #A80036; stroke-width: 1.0;"/><!--link EncryptorException to RSAEncryptionException--><path d="M428.3,393.69 C379.41,410.75 321.8,430.85 275.59,446.98 " fill="none" id="EncryptorException-RSAEncryptionException" style="stroke: #A80036; stroke-width: 1.0;"/><polygon fill="none" points="426.08,387.05,447.27,387.07,430.69,400.27,426.08,387.05" style="stroke: #A80036; stroke-width: 1.0;"/><!--link DecryptorException to RSADecryptionException--><path d="M874,407.33 C874,420.73 874,434.81 874,446.74 " fill="none" id="DecryptorException-RSADecryptionException" style="stroke: #A80036; stroke-width: 1.0;"/><polygon fill="none" points="867,407.22,874,387.22,881,407.22,867,407.22" style="stroke: #A80036; stroke-width: 1.0;"/><!--link EncryptorException to AESEncryptionException--><path d="M532,407.33 C532,420.73 532,434.81 532,446.74 " fill="none" id="EncryptorException-AESEncryptionException" style="stroke: #A80036; stroke-width: 1.0;"/><polygon fill="none" points="525,407.22,532,387.22,539,407.22,525,407.22" style="stroke: #A80036; stroke-width: 1.0;"/><!--link DecryptorException to AESDecryptionException--><path d="M978,393.69 C1027.04,410.75 1084.82,430.85 1131.16,446.98 " fill="none" id="DecryptorException-AESDecryptionException" style="stroke: #A80036; stroke-width: 1.0;"/><polygon fill="none" points="975.57,400.25,958.98,387.07,980.17,387.03,975.57,400.25" style="stroke: #A80036; stroke-width: 1.0;"/><!--link ButterflyException to SQLDatabaseException--><path d="M1007.41,273.97 C1049.51,291.8 1094.34,310.77 1130.14,325.93 " fill="none" id="ButterflyException-SQLDatabaseException" style="stroke: #A80036; stroke-width: 1.0;"/><polygon fill="none" points="1004.62,280.4,988.94,266.15,1010.08,267.5,1004.62,280.4" style="stroke: #A80036; stroke-width: 1.0;"/><!--
@startuml

package butterfly #DDDDDD
{

class std::exception
{

}

class ButterflyException
{
    -_error: std::string
    +ButterflyException(const std::string &error)

    +what(): const char*
}

class RSAEncryptionException
{

    +RSAEncryptionException(const std::string &error)

}

class RSADecryptionException
{

    +RSADecryptionException(const std::string &error)

}

class AESEncryptionException
{

    +AESEncryptionException(const std::string &error)

}

class AESDecryptionException
{

    +AESDecryptionException(const std::string &error)

}

class EncryptorException
{

    +EncryptorException(const std::string &error)

}

class DecryptorException
{

    +DecryptorException(const std::string &error)

}

class SQLDatabaseException
{

    +SQLDatabaseException(const std::string &error)

}

std::exception <|- - ButterflyException
ButterflyException <|- - EncryptorException
ButterflyException <|- - DecryptorException

EncryptorException <|- - RSAEncryptionException
DecryptorException <|- - RSADecryptionException
EncryptorException <|- - AESEncryptionException
DecryptorException <|- - AESDecryptionException

ButterflyException <|- - SQLDatabaseException

}
@enduml

PlantUML version 1.2018.13(Mon Nov 26 18:11:51 CET 2018)
(GPL source distribution)
Java Runtime: OpenJDK Runtime Environment
JVM: OpenJDK 64-Bit Server VM
Java Version: 11.0.11+9-Ubuntu-0ubuntu2.20.04
Operating System: Linux
OS Version: 5.11.0-37-generic
Default Encoding: UTF-8
Language: de
Country: DE
--></g></svg>