<?xml version="1.0" encoding="UTF-8" standalone="no"?><svg xmlns="http://www.w3.org/2000/svg" xmlns:xlink="http://www.w3.org/1999/xlink" contentScriptType="application/ecmascript" contentStyleType="text/css" height="263px" preserveAspectRatio="none" style="width:610px;height:263px;" version="1.1" viewBox="0 0 610 263" width="610px" zoomAndPan="magnify"><defs><filter height="300%" id="fxqzuntul72b1" width="300%" x="-1" y="-1"><feGaussianBlur result="blurOut" stdDeviation="2.0"/><feColorMatrix in="blurOut" result="blurOut2" type="matrix" values="0 0 0 0 0 0 0 0 0 0 0 0 0 0 0 0 0 0 .4 0"/><feOffset dx="4.0" dy="4.0" in="blurOut2" result="blurOut3"/><feBlend in="SourceGraphic" in2="blurOut3" mode="normal"/></filter></defs><g><!--cluster butterfly--><polygon fill="#DDDDDD" filter="url(#fxqzuntul72b1)" points="22,24,96,24,103,46.2969,588,46.2969,588,251,22,251,22,24" style="stroke: #000000; stroke-width: 1.5;"/><line style="stroke: #000000; stroke-width: 1.5;" x1="22" x2="103" y1="46.2969" y2="46.2969"/><text fill="#000000" font-family="sans-serif" font-size="14" font-weight="bold" lengthAdjust="spacingAndGlyphs" textLength="68" x="26" y="38.9951">butterfly</text><!--class DirectoryIterator--><rect fill="#FEFECE" filter="url(#fxqzuntul72b1)" height="176.0469" id="DirectoryIterator" style="stroke: #A80036; stroke-width: 1.5;" width="534" x="38" y="59"/><ellipse cx="249.25" cy="75" fill="#ADD1B2" rx="11" ry="11" style="stroke: #A80036; stroke-width: 1.0;"/><path d="M252.2188,80.6406 Q251.6406,80.9375 251,81.0781 Q250.3594,81.2344 249.6563,81.2344 Q247.1563,81.2344 245.8281,79.5938 Q244.5156,77.9375 244.5156,74.8125 Q244.5156,71.6875 245.8281,70.0313 Q247.1563,68.375 249.6563,68.375 Q250.3594,68.375 251,68.5313 Q251.6563,68.6875 252.2188,68.9844 L252.2188,71.7031 Q251.5938,71.125 251,70.8594 Q250.4063,70.5781 249.7813,70.5781 Q248.4375,70.5781 247.75,71.6563 Q247.0625,72.7188 247.0625,74.8125 Q247.0625,76.9063 247.75,77.9844 Q248.4375,79.0469 249.7813,79.0469 Q250.4063,79.0469 251,78.7813 Q251.5938,78.5 252.2188,77.9219 L252.2188,80.6406 Z "/><text fill="#000000" font-family="sans-serif" font-size="12" lengthAdjust="spacingAndGlyphs" textLength="103" x="269.75" y="79.1543">DirectoryIterator</text><line style="stroke: #A80036; stroke-width: 1.5;" x1="39" x2="571" y1="91" y2="91"/><line style="stroke: #A80036; stroke-width: 1.5;" x1="39" x2="571" y1="99" y2="99"/><ellipse cx="49" cy="110.9023" fill="#84BE84" rx="3" ry="3" style="stroke: #038048; stroke-width: 1.0;"/><text fill="#000000" font-family="sans-serif" font-size="11" lengthAdjust="spacingAndGlyphs" textLength="101" x="58" y="113.2104">DirectoryIterator()</text><text fill="#000000" font-family="sans-serif" font-size="11" lengthAdjust="spacingAndGlyphs" textLength="0" x="62" y="126.0151"/><ellipse cx="49" cy="136.5117" fill="#84BE84" rx="3" ry="3" style="stroke: #038048; stroke-width: 1.0;"/><text fill="#000000" font-family="sans-serif" font-size="11" lengthAdjust="spacingAndGlyphs" text-decoration="underline" textLength="289" x="58" y="138.8198">isDirectory(const boost::filesystem::path &amp;p): bool</text><line style="stroke: #000000; stroke-width: 1.0;" x1="58" x2="347" y1="140.8198" y2="140.8198"/><ellipse cx="49" cy="149.3164" fill="#84BE84" rx="3" ry="3" style="stroke: #038048; stroke-width: 1.0;"/><text fill="#000000" font-family="sans-serif" font-size="11" lengthAdjust="spacingAndGlyphs" text-decoration="underline" textLength="257" x="58" y="151.6245">isFile(const boost::filesystem::path &amp;p): bool</text><line style="stroke: #000000; stroke-width: 1.0;" x1="58" x2="315" y1="153.6245" y2="153.6245"/><ellipse cx="49" cy="162.1211" fill="#84BE84" rx="3" ry="3" style="stroke: #038048; stroke-width: 1.0;"/><text fill="#000000" font-family="sans-serif" font-size="11" lengthAdjust="spacingAndGlyphs" text-decoration="underline" textLength="472" x="58" y="164.4292">getAllFiles(const boost::filesystem::path &amp;p): std::vector&lt;boost::filesystem::path&gt;</text><line style="stroke: #000000; stroke-width: 1.0;" x1="58" x2="530" y1="166.4292" y2="166.4292"/><ellipse cx="49" cy="174.9258" fill="#84BE84" rx="3" ry="3" style="stroke: #038048; stroke-width: 1.0;"/><text fill="#000000" font-family="sans-serif" font-size="11" lengthAdjust="spacingAndGlyphs" text-decoration="underline" textLength="508" x="58" y="177.2339">getAllDirectories(const boost::filesystem::path &amp;p): std::vector&lt;boost::filesystem::path&gt;</text><line style="stroke: #000000; stroke-width: 1.0;" x1="58" x2="566" y1="179.2339" y2="179.2339"/><ellipse cx="49" cy="187.7305" fill="#84BE84" rx="3" ry="3" style="stroke: #038048; stroke-width: 1.0;"/><text fill="#000000" font-family="sans-serif" font-size="11" lengthAdjust="spacingAndGlyphs" text-decoration="underline" textLength="504" x="58" y="190.0386">getFilesFromDir(const boost::filesystem::path &amp;p): std::vector&lt;boost::filesystem::path&gt;</text><line style="stroke: #000000; stroke-width: 1.0;" x1="58" x2="562" y1="192.0386" y2="192.0386"/><ellipse cx="49" cy="200.5352" fill="#84BE84" rx="3" ry="3" style="stroke: #038048; stroke-width: 1.0;"/><text fill="#000000" font-family="sans-serif" font-size="11" lengthAdjust="spacingAndGlyphs" text-decoration="underline" textLength="329" x="58" y="202.8433">getFileSize(const boost::filesystem::path &amp;file): uintmax_t</text><line style="stroke: #000000; stroke-width: 1.0;" x1="58" x2="387" y1="204.8433" y2="204.8433"/><ellipse cx="49" cy="213.3398" fill="#84BE84" rx="3" ry="3" style="stroke: #038048; stroke-width: 1.0;"/><text fill="#000000" font-family="sans-serif" font-size="11" lengthAdjust="spacingAndGlyphs" text-decoration="underline" textLength="355" x="58" y="215.6479">getFileExtension(const boost::filesystem::path &amp;p): std::string</text><line style="stroke: #000000; stroke-width: 1.0;" x1="58" x2="413" y1="217.6479" y2="217.6479"/><ellipse cx="49" cy="226.1445" fill="#84BE84" rx="3" ry="3" style="stroke: #038048; stroke-width: 1.0;"/><text fill="#000000" font-family="sans-serif" font-size="11" lengthAdjust="spacingAndGlyphs" text-decoration="underline" textLength="262" x="58" y="228.4526">exists(const boost::filesystem::path &amp;p): bool</text><line style="stroke: #000000; stroke-width: 1.0;" x1="58" x2="320" y1="230.4526" y2="230.4526"/><!--
@startuml

package butterfly #DDDDDD
{

class DirectoryIterator
{

    + DirectoryIterator()

    + {static} isDirectory(const boost::filesystem::path &p): bool
    + {static} isFile(const boost::filesystem::path &p): bool
    + {static} getAllFiles(const boost::filesystem::path &p): std::vector<boost::filesystem::path>
    + {static} getAllDirectories(const boost::filesystem::path &p): std::vector<boost::filesystem::path>
    + {static} getFilesFromDir(const boost::filesystem::path &p): std::vector<boost::filesystem::path>
    + {static} getFileSize(const boost::filesystem::path &file): uintmax_t
    + {static} getFileExtension(const boost::filesystem::path &p): std::string
    + {static} exists(const boost::filesystem::path &p): bool
}

}
@enduml

PlantUML version 1.2018.13(Mon Nov 26 18:11:51 CET 2018)
(GPL source distribution)
Java Runtime: OpenJDK Runtime Environment
JVM: OpenJDK 64-Bit Server VM
Java Version: 11.0.18+10-post-Ubuntu-0ubuntu120.04.1
Operating System: Linux
OS Version: 5.15.0-67-generic
Default Encoding: UTF-8
Language: en
Country: US
--></g></svg>