<?xml version="1.0" encoding="UTF-8" standalone="no"?><svg xmlns="http://www.w3.org/2000/svg" xmlns:xlink="http://www.w3.org/1999/xlink" contentScriptType="application/ecmascript" contentStyleType="text/css" height="994px" preserveAspectRatio="none" style="width:587px;height:994px;" version="1.1" viewBox="0 0 587 994" width="587px" zoomAndPan="magnify"><defs><filter height="300%" id="fprmf2yoeo29e" width="300%" x="-1" y="-1"><feGaussianBlur result="blurOut" stdDeviation="2.0"/><feColorMatrix in="blurOut" result="blurOut2" type="matrix" values="0 0 0 0 0 0 0 0 0 0 0 0 0 0 0 0 0 0 .4 0"/><feOffset dx="4.0" dy="4.0" in="blurOut2" result="blurOut3"/><feBlend in="SourceGraphic" in2="blurOut3" mode="normal"/></filter></defs><g><!--cluster butterfly--><polygon fill="#DDDDDD" filter="url(#fprmf2yoeo29e)" points="22,24,96,24,103,46.2969,565,46.2969,565,982,22,982,22,24" style="stroke: #000000; stroke-width: 1.5;"/><line style="stroke: #000000; stroke-width: 1.5;" x1="22" x2="103" y1="46.2969" y2="46.2969"/><text fill="#000000" font-family="sans-serif" font-size="14" font-weight="bold" lengthAdjust="spacingAndGlyphs" textLength="68" x="26" y="38.9951">butterfly</text><!--class Socket--><rect fill="#FEFECE" filter="url(#fprmf2yoeo29e)" height="265.6797" id="Socket" style="stroke: #A80036; stroke-width: 1.5;" width="356" x="190" y="59"/><ellipse cx="342.25" cy="75" fill="#ADD1B2" rx="11" ry="11" style="stroke: #A80036; stroke-width: 1.0;"/><path d="M345.2188,80.6406 Q344.6406,80.9375 344,81.0781 Q343.3594,81.2344 342.6563,81.2344 Q340.1563,81.2344 338.8281,79.5938 Q337.5156,77.9375 337.5156,74.8125 Q337.5156,71.6875 338.8281,70.0313 Q340.1563,68.375 342.6563,68.375 Q343.3594,68.375 344,68.5313 Q344.6563,68.6875 345.2188,68.9844 L345.2188,71.7031 Q344.5938,71.125 344,70.8594 Q343.4063,70.5781 342.7813,70.5781 Q341.4375,70.5781 340.75,71.6563 Q340.0625,72.7188 340.0625,74.8125 Q340.0625,76.9063 340.75,77.9844 Q341.4375,79.0469 342.7813,79.0469 Q343.4063,79.0469 344,78.7813 Q344.5938,78.5 345.2188,77.9219 L345.2188,80.6406 Z "/><text fill="#000000" font-family="sans-serif" font-size="12" lengthAdjust="spacingAndGlyphs" textLength="43" x="362.75" y="79.1543">Socket</text><line style="stroke: #A80036; stroke-width: 1.5;" x1="191" x2="545" y1="91" y2="91"/><rect fill="none" height="6" style="stroke: #C82930; stroke-width: 1.0;" width="6" x="198" y="99.9023"/><text fill="#000000" font-family="sans-serif" font-size="11" lengthAdjust="spacingAndGlyphs" textLength="283" x="210" y="105.2104">_socketDomain, _socketType, _socketProtocol: int</text><polygon fill="none" points="201,110.707,205,114.707,201,118.707,197,114.707" style="stroke: #B38D22; stroke-width: 1.0;"/><text fill="#000000" font-family="sans-serif" font-size="11" lengthAdjust="spacingAndGlyphs" textLength="39" x="210" y="118.0151">_fd: int</text><polygon fill="none" points="201,123.5117,205,127.5117,201,131.5117,197,127.5117" style="stroke: #B38D22; stroke-width: 1.0;"/><text fill="#000000" font-family="sans-serif" font-size="11" lengthAdjust="spacingAndGlyphs" textLength="103" x="210" y="130.8198">_addr: sockadd_in</text><line style="stroke: #A80036; stroke-width: 1.5;" x1="191" x2="545" y1="137.4141" y2="137.4141"/><ellipse cx="201" cy="149.3164" fill="#84BE84" rx="3" ry="3" style="stroke: #038048; stroke-width: 1.0;"/><text fill="#000000" font-family="sans-serif" font-size="11" lengthAdjust="spacingAndGlyphs" textLength="228" x="210" y="151.6245">Socket(int domain, int type, int protocol)</text><ellipse cx="201" cy="162.1211" fill="#84BE84" rx="3" ry="3" style="stroke: #038048; stroke-width: 1.0;"/><text fill="#000000" font-family="sans-serif" font-size="11" lengthAdjust="spacingAndGlyphs" textLength="330" x="210" y="164.4292">Socket(int fileDescriptor, int domain, int type, int protocol)</text><text fill="#000000" font-family="sans-serif" font-size="11" lengthAdjust="spacingAndGlyphs" textLength="0" x="214" y="177.2339"/><ellipse cx="201" cy="187.7305" fill="#84BE84" rx="3" ry="3" style="stroke: #038048; stroke-width: 1.0;"/><text fill="#000000" font-family="sans-serif" font-size="11" lengthAdjust="spacingAndGlyphs" textLength="161" x="210" y="190.0386">getFileDescriptor() const: int</text><ellipse cx="201" cy="200.5352" fill="#84BE84" rx="3" ry="3" style="stroke: #038048; stroke-width: 1.0;"/><text fill="#000000" font-family="sans-serif" font-size="11" lengthAdjust="spacingAndGlyphs" textLength="130" x="210" y="202.8433">shutdown() const: bool</text><ellipse cx="201" cy="213.3398" fill="#84BE84" rx="3" ry="3" style="stroke: #038048; stroke-width: 1.0;"/><text fill="#000000" font-family="sans-serif" font-size="11" lengthAdjust="spacingAndGlyphs" textLength="137" x="210" y="215.6479">setOptions() const: bool</text><ellipse cx="201" cy="226.1445" fill="#84BE84" rx="3" ry="3" style="stroke: #038048; stroke-width: 1.0;"/><text fill="#000000" font-family="sans-serif" font-size="11" lengthAdjust="spacingAndGlyphs" textLength="140" x="210" y="228.4526">setBlocking() const: bool</text><ellipse cx="201" cy="238.9492" fill="#84BE84" rx="3" ry="3" style="stroke: #038048; stroke-width: 1.0;"/><text fill="#000000" font-family="sans-serif" font-size="11" lengthAdjust="spacingAndGlyphs" textLength="162" x="210" y="241.2573">setNonBlocking() const: bool</text><text fill="#000000" font-family="sans-serif" font-size="11" lengthAdjust="spacingAndGlyphs" textLength="0" x="214" y="254.062"/><ellipse cx="201" cy="264.5586" fill="#84BE84" rx="3" ry="3" style="stroke: #038048; stroke-width: 1.0;"/><text fill="#000000" font-family="sans-serif" font-size="11" lengthAdjust="spacingAndGlyphs" textLength="161" x="210" y="266.8667">bind(unsigned int port): bool</text><ellipse cx="201" cy="277.3633" fill="#84BE84" rx="3" ry="3" style="stroke: #038048; stroke-width: 1.0;"/><text fill="#000000" font-family="sans-serif" font-size="11" lengthAdjust="spacingAndGlyphs" textLength="106" x="210" y="279.6714">listen() const: bool</text><ellipse cx="201" cy="290.168" fill="#84BE84" rx="3" ry="3" style="stroke: #038048; stroke-width: 1.0;"/><text fill="#000000" font-family="sans-serif" font-size="11" lengthAdjust="spacingAndGlyphs" textLength="197" x="210" y="292.4761">accept(): std::shared_ptr&lt;Socket&gt;</text><ellipse cx="201" cy="302.9727" fill="#84BE84" rx="3" ry="3" style="stroke: #038048; stroke-width: 1.0;"/><text fill="#000000" font-family="sans-serif" font-size="11" lengthAdjust="spacingAndGlyphs" textLength="301" x="210" y="305.2808">connect(const std::string&amp; host, const int port): bool</text><ellipse cx="201" cy="315.7773" fill="#84BE84" rx="3" ry="3" style="stroke: #038048; stroke-width: 1.0;"/><text fill="#000000" font-family="sans-serif" font-size="11" lengthAdjust="spacingAndGlyphs" textLength="136" x="210" y="318.0854">disconnect() const: bool</text><!--class TCPSocket--><rect fill="#FEFECE" filter="url(#fprmf2yoeo29e)" height="137.6328" id="TCPSocket" style="stroke: #A80036; stroke-width: 1.5;" width="247" x="244.5" y="386"/><ellipse cx="330.75" cy="402" fill="#ADD1B2" rx="11" ry="11" style="stroke: #A80036; stroke-width: 1.0;"/><path d="M333.7188,407.6406 Q333.1406,407.9375 332.5,408.0781 Q331.8594,408.2344 331.1563,408.2344 Q328.6563,408.2344 327.3281,406.5938 Q326.0156,404.9375 326.0156,401.8125 Q326.0156,398.6875 327.3281,397.0313 Q328.6563,395.375 331.1563,395.375 Q331.8594,395.375 332.5,395.5313 Q333.1563,395.6875 333.7188,395.9844 L333.7188,398.7031 Q333.0938,398.125 332.5,397.8594 Q331.9063,397.5781 331.2813,397.5781 Q329.9375,397.5781 329.25,398.6563 Q328.5625,399.7188 328.5625,401.8125 Q328.5625,403.9063 329.25,404.9844 Q329.9375,406.0469 331.2813,406.0469 Q331.9063,406.0469 332.5,405.7813 Q333.0938,405.5 333.7188,404.9219 L333.7188,407.6406 Z "/><text fill="#000000" font-family="sans-serif" font-size="12" lengthAdjust="spacingAndGlyphs" textLength="66" x="351.25" y="406.1543">TCPSocket</text><line style="stroke: #A80036; stroke-width: 1.5;" x1="245.5" x2="490.5" y1="418" y2="418"/><line style="stroke: #A80036; stroke-width: 1.5;" x1="245.5" x2="490.5" y1="426" y2="426"/><ellipse cx="255.5" cy="437.9023" fill="#84BE84" rx="3" ry="3" style="stroke: #038048; stroke-width: 1.0;"/><text fill="#000000" font-family="sans-serif" font-size="11" lengthAdjust="spacingAndGlyphs" textLength="68" x="264.5" y="440.2104">TCPSocket()</text><ellipse cx="255.5" cy="450.707" fill="#84BE84" rx="3" ry="3" style="stroke: #038048; stroke-width: 1.0;"/><text fill="#000000" font-family="sans-serif" font-size="11" lengthAdjust="spacingAndGlyphs" textLength="162" x="264.5" y="453.0151">TCPSocket(int fileDescriptor)</text><text fill="#000000" font-family="sans-serif" font-size="11" lengthAdjust="spacingAndGlyphs" textLength="0" x="268.5" y="465.8198"/><ellipse cx="255.5" cy="476.3164" fill="#84BE84" rx="3" ry="3" style="stroke: #038048; stroke-width: 1.0;"/><text fill="#000000" font-family="sans-serif" font-size="11" lengthAdjust="spacingAndGlyphs" textLength="219" x="264.5" y="478.6245">accept(): std::shared_ptr&lt;TCPSocket&gt;</text><ellipse cx="255.5" cy="489.1211" fill="#84BE84" rx="3" ry="3" style="stroke: #038048; stroke-width: 1.0;"/><text fill="#000000" font-family="sans-serif" font-size="11" lengthAdjust="spacingAndGlyphs" textLength="218" x="264.5" y="491.4292">send(const std::string&amp; s) const: bool</text><ellipse cx="255.5" cy="501.9258" fill="#84BE84" rx="3" ry="3" style="stroke: #038048; stroke-width: 1.0;"/><text fill="#000000" font-family="sans-serif" font-size="11" lengthAdjust="spacingAndGlyphs" textLength="181" x="264.5" y="504.2339">recv(char *buf,int len) const: int</text><ellipse cx="255.5" cy="514.7305" fill="#84BE84" rx="3" ry="3" style="stroke: #038048; stroke-width: 1.0;"/><text fill="#000000" font-family="sans-serif" font-size="11" lengthAdjust="spacingAndGlyphs" textLength="221" x="264.5" y="517.0386">recvAll(int chunkSize) const: std::string</text><!--class HTTPServer--><rect fill="#FEFECE" filter="url(#fprmf2yoeo29e)" height="227.2656" id="HTTPServer" style="stroke: #A80036; stroke-width: 1.5;" width="363" x="186.5" y="601"/><ellipse cx="328.25" cy="617" fill="#ADD1B2" rx="11" ry="11" style="stroke: #A80036; stroke-width: 1.0;"/><path d="M331.2188,622.6406 Q330.6406,622.9375 330,623.0781 Q329.3594,623.2344 328.6563,623.2344 Q326.1563,623.2344 324.8281,621.5938 Q323.5156,619.9375 323.5156,616.8125 Q323.5156,613.6875 324.8281,612.0313 Q326.1563,610.375 328.6563,610.375 Q329.3594,610.375 330,610.5313 Q330.6563,610.6875 331.2188,610.9844 L331.2188,613.7031 Q330.5938,613.125 330,612.8594 Q329.4063,612.5781 328.7813,612.5781 Q327.4375,612.5781 326.75,613.6563 Q326.0625,614.7188 326.0625,616.8125 Q326.0625,618.9063 326.75,619.9844 Q327.4375,621.0469 328.7813,621.0469 Q329.4063,621.0469 330,620.7813 Q330.5938,620.5 331.2188,619.9219 L331.2188,622.6406 Z "/><text fill="#000000" font-family="sans-serif" font-size="12" lengthAdjust="spacingAndGlyphs" textLength="71" x="348.75" y="621.1543">HTTPServer</text><line style="stroke: #A80036; stroke-width: 1.5;" x1="187.5" x2="548.5" y1="633" y2="633"/><rect fill="none" height="6" style="stroke: #C82930; stroke-width: 1.0;" width="6" x="194.5" y="641.9023"/><text fill="#000000" font-family="sans-serif" font-size="11" lengthAdjust="spacingAndGlyphs" textLength="134" x="206.5" y="647.2104">_port: unsigned int port</text><rect fill="none" height="6" style="stroke: #C82930; stroke-width: 1.0;" width="6" x="194.5" y="654.707"/><text fill="#000000" font-family="sans-serif" font-size="11" lengthAdjust="spacingAndGlyphs" textLength="81" x="206.5" y="660.0151">_running: bool</text><rect fill="none" height="6" style="stroke: #C82930; stroke-width: 1.0;" width="6" x="194.5" y="667.5117"/><text fill="#000000" font-family="sans-serif" font-size="11" lengthAdjust="spacingAndGlyphs" textLength="337" x="206.5" y="672.8198">_TCPSocket, _newTCPSocket: std::shared_ptr&lt;TCPSocket&gt;</text><rect fill="none" height="6" style="stroke: #C82930; stroke-width: 1.0;" width="6" x="194.5" y="680.3164"/><text fill="#000000" font-family="sans-serif" font-size="11" lengthAdjust="spacingAndGlyphs" textLength="261" x="206.5" y="685.6245">_httpRequest: std::unique_ptr&lt;HTTPRequest&gt;</text><line style="stroke: #A80036; stroke-width: 1.5;" x1="187.5" x2="548.5" y1="692.2188" y2="692.2188"/><ellipse cx="197.5" cy="704.1211" fill="#84BE84" rx="3" ry="3" style="stroke: #038048; stroke-width: 1.0;"/><text fill="#000000" font-family="sans-serif" font-size="11" lengthAdjust="spacingAndGlyphs" textLength="172" x="206.5" y="706.4292">HTTPServer(unsigned int port)</text><text fill="#000000" font-family="sans-serif" font-size="11" lengthAdjust="spacingAndGlyphs" textLength="0" x="210.5" y="719.2339"/><rect fill="#F24D5C" height="6" style="stroke: #C82930; stroke-width: 1.0;" width="6" x="194.5" y="726.7305"/><text fill="#000000" font-family="sans-serif" font-size="11" lengthAdjust="spacingAndGlyphs" textLength="96" x="206.5" y="732.0386">handleRequest():</text><rect fill="#F24D5C" height="6" style="stroke: #C82930; stroke-width: 1.0;" width="6" x="194.5" y="739.5352"/><text fill="#000000" font-family="sans-serif" font-size="11" lengthAdjust="spacingAndGlyphs" textLength="82" x="206.5" y="744.8433">recvRequest():</text><rect fill="#F24D5C" height="6" style="stroke: #C82930; stroke-width: 1.0;" width="6" x="194.5" y="752.3398"/><text fill="#000000" font-family="sans-serif" font-size="11" lengthAdjust="spacingAndGlyphs" textLength="104" x="206.5" y="757.6479">processRequest():</text><rect fill="#F24D5C" height="6" style="stroke: #C82930; stroke-width: 1.0;" width="6" x="194.5" y="765.1445"/><text fill="#000000" font-family="sans-serif" font-size="11" lengthAdjust="spacingAndGlyphs" textLength="118" x="206.5" y="770.4526">preprareResponse():</text><rect fill="#F24D5C" height="6" style="stroke: #C82930; stroke-width: 1.0;" width="6" x="194.5" y="777.9492"/><text fill="#000000" font-family="sans-serif" font-size="11" lengthAdjust="spacingAndGlyphs" textLength="96" x="206.5" y="783.2573">sendResponse():</text><text fill="#000000" font-family="sans-serif" font-size="11" lengthAdjust="spacingAndGlyphs" textLength="0" x="210.5" y="796.062"/><ellipse cx="197.5" cy="806.5586" fill="#84BE84" rx="3" ry="3" style="stroke: #038048; stroke-width: 1.0;"/><text fill="#000000" font-family="sans-serif" font-size="11" lengthAdjust="spacingAndGlyphs" textLength="58" x="206.5" y="808.8667">run(): void</text><ellipse cx="197.5" cy="819.3633" fill="#84BE84" rx="3" ry="3" style="stroke: #038048; stroke-width: 1.0;"/><text fill="#000000" font-family="sans-serif" font-size="11" lengthAdjust="spacingAndGlyphs" textLength="64" x="206.5" y="821.6714">stop(): void</text><!--class HTTPSchema--><rect fill="#FEFECE" filter="url(#fprmf2yoeo29e)" height="60.8047" id="HTTPSchema" style="stroke: #A80036; stroke-width: 1.5;" width="113" x="38.5" y="684"/><ellipse cx="53.5" cy="700" fill="#ADD1B2" rx="11" ry="11" style="stroke: #A80036; stroke-width: 1.0;"/><path d="M56.4688,705.6406 Q55.8906,705.9375 55.25,706.0781 Q54.6094,706.2344 53.9063,706.2344 Q51.4063,706.2344 50.0781,704.5938 Q48.7656,702.9375 48.7656,699.8125 Q48.7656,696.6875 50.0781,695.0313 Q51.4063,693.375 53.9063,693.375 Q54.6094,693.375 55.25,693.5313 Q55.9063,693.6875 56.4688,693.9844 L56.4688,696.7031 Q55.8438,696.125 55.25,695.8594 Q54.6563,695.5781 54.0313,695.5781 Q52.6875,695.5781 52,696.6563 Q51.3125,697.7188 51.3125,699.8125 Q51.3125,701.9063 52,702.9844 Q52.6875,704.0469 54.0313,704.0469 Q54.6563,704.0469 55.25,703.7813 Q55.8438,703.5 56.4688,702.9219 L56.4688,705.6406 Z "/><text fill="#000000" font-family="sans-serif" font-size="12" lengthAdjust="spacingAndGlyphs" textLength="81" x="67.5" y="704.1543">HTTPSchema</text><line style="stroke: #A80036; stroke-width: 1.5;" x1="39.5" x2="150.5" y1="716" y2="716"/><line style="stroke: #A80036; stroke-width: 1.5;" x1="39.5" x2="150.5" y1="724" y2="724"/><ellipse cx="49.5" cy="735.9023" fill="#84BE84" rx="3" ry="3" style="stroke: #038048; stroke-width: 1.0;"/><text fill="#000000" font-family="sans-serif" font-size="11" lengthAdjust="spacingAndGlyphs" textLength="83" x="58.5" y="738.2104">HTTPSchema()</text><!--class HTTPRequest--><rect fill="#FEFECE" filter="url(#fprmf2yoeo29e)" height="60.8047" id="HTTPRequest" style="stroke: #A80036; stroke-width: 1.5;" width="115" x="70.5" y="905"/><ellipse cx="85.5" cy="921" fill="#ADD1B2" rx="11" ry="11" style="stroke: #A80036; stroke-width: 1.0;"/><path d="M88.4688,926.6406 Q87.8906,926.9375 87.25,927.0781 Q86.6094,927.2344 85.9063,927.2344 Q83.4063,927.2344 82.0781,925.5938 Q80.7656,923.9375 80.7656,920.8125 Q80.7656,917.6875 82.0781,916.0313 Q83.4063,914.375 85.9063,914.375 Q86.6094,914.375 87.25,914.5313 Q87.9063,914.6875 88.4688,914.9844 L88.4688,917.7031 Q87.8438,917.125 87.25,916.8594 Q86.6563,916.5781 86.0313,916.5781 Q84.6875,916.5781 84,917.6563 Q83.3125,918.7188 83.3125,920.8125 Q83.3125,922.9063 84,923.9844 Q84.6875,925.0469 86.0313,925.0469 Q86.6563,925.0469 87.25,924.7813 Q87.8438,924.5 88.4688,923.9219 L88.4688,926.6406 Z "/><text fill="#000000" font-family="sans-serif" font-size="12" lengthAdjust="spacingAndGlyphs" textLength="83" x="99.5" y="925.1543">HTTPRequest</text><line style="stroke: #A80036; stroke-width: 1.5;" x1="71.5" x2="184.5" y1="937" y2="937"/><line style="stroke: #A80036; stroke-width: 1.5;" x1="71.5" x2="184.5" y1="945" y2="945"/><ellipse cx="81.5" cy="956.9023" fill="#84BE84" rx="3" ry="3" style="stroke: #038048; stroke-width: 1.0;"/><text fill="#000000" font-family="sans-serif" font-size="11" lengthAdjust="spacingAndGlyphs" textLength="83" x="90.5" y="959.2104">HTTPRequest()</text><!--class HTTPResponse--><rect fill="#FEFECE" filter="url(#fprmf2yoeo29e)" height="60.8047" id="HTTPResponse" style="stroke: #A80036; stroke-width: 1.5;" width="125" x="272.5" y="905"/><ellipse cx="287.5" cy="921" fill="#ADD1B2" rx="11" ry="11" style="stroke: #A80036; stroke-width: 1.0;"/><path d="M290.4688,926.6406 Q289.8906,926.9375 289.25,927.0781 Q288.6094,927.2344 287.9063,927.2344 Q285.4063,927.2344 284.0781,925.5938 Q282.7656,923.9375 282.7656,920.8125 Q282.7656,917.6875 284.0781,916.0313 Q285.4063,914.375 287.9063,914.375 Q288.6094,914.375 289.25,914.5313 Q289.9063,914.6875 290.4688,914.9844 L290.4688,917.7031 Q289.8438,917.125 289.25,916.8594 Q288.6563,916.5781 288.0313,916.5781 Q286.6875,916.5781 286,917.6563 Q285.3125,918.7188 285.3125,920.8125 Q285.3125,922.9063 286,923.9844 Q286.6875,925.0469 288.0313,925.0469 Q288.6563,925.0469 289.25,924.7813 Q289.8438,924.5 290.4688,923.9219 L290.4688,926.6406 Z "/><text fill="#000000" font-family="sans-serif" font-size="12" lengthAdjust="spacingAndGlyphs" textLength="93" x="301.5" y="925.1543">HTTPResponse</text><line style="stroke: #A80036; stroke-width: 1.5;" x1="273.5" x2="396.5" y1="937" y2="937"/><line style="stroke: #A80036; stroke-width: 1.5;" x1="273.5" x2="396.5" y1="945" y2="945"/><ellipse cx="283.5" cy="956.9023" fill="#84BE84" rx="3" ry="3" style="stroke: #038048; stroke-width: 1.0;"/><text fill="#000000" font-family="sans-serif" font-size="11" lengthAdjust="spacingAndGlyphs" textLength="93" x="292.5" y="959.2104">HTTPResponse()</text><!--link Socket to TCPSocket--><path d="M368,345.11 C368,359.2 368,372.95 368,385.67 " fill="none" id="Socket-TCPSocket" style="stroke: #A80036; stroke-width: 1.0;"/><polygon fill="none" points="361,345.03,368,325.03,375,345.03,361,345.03" style="stroke: #A80036; stroke-width: 1.0;"/><!--link TCPSocket to HTTPServer--><path d="M368,537.53 C368,557.55 368,579.32 368,600.52 " fill="none" id="TCPSocket-HTTPServer" style="stroke: #A80036; stroke-width: 1.0;"/><polygon fill="#FFFFFF" points="368,524.33,364,530.33,368,536.33,372,530.33,368,524.33" style="stroke: #A80036; stroke-width: 1.0;"/><text fill="#000000" font-family="sans-serif" font-size="13" lengthAdjust="spacingAndGlyphs" textLength="46" x="369" y="567.0669">«uses»</text><text fill="#000000" font-family="sans-serif" font-size="13" lengthAdjust="spacingAndGlyphs" textLength="23" x="343.9039" y="543.7436">1..*</text><text fill="#000000" font-family="sans-serif" font-size="13" lengthAdjust="spacingAndGlyphs" textLength="8" x="359.7438" y="589.8003">1</text><!--link HTTPServer to HTTPRequest--><path d="M244.48,828.21 C217.83,852.53 191.42,876.63 170.49,895.73 " fill="none" id="HTTPServer-HTTPRequest" style="stroke: #A80036; stroke-width: 1.0;"/><polygon fill="#A80036" points="160.69,904.67,167.8176,903.5758,169.549,896.5756,162.4214,897.6698,160.69,904.67" style="stroke: #A80036; stroke-width: 1.0;"/><text fill="#000000" font-family="sans-serif" font-size="13" lengthAdjust="spacingAndGlyphs" textLength="81" x="206" y="871.0669">«processes»</text><text fill="#000000" font-family="sans-serif" font-size="13" lengthAdjust="spacingAndGlyphs" textLength="8" x="227.9123" y="848.4162">1</text><text fill="#000000" font-family="sans-serif" font-size="13" lengthAdjust="spacingAndGlyphs" textLength="23" x="142.0604" y="893.8652">1..*</text><!--link HTTPServer to HTTPResponse--><path d="M351.02,828.21 C347.6,850.87 344.22,873.34 341.44,891.75 " fill="none" id="HTTPServer-HTTPResponse" style="stroke: #A80036; stroke-width: 1.0;"/><polygon fill="#A80036" points="339.49,904.67,344.3416,899.335,341.283,892.8047,336.4314,898.1397,339.49,904.67" style="stroke: #A80036; stroke-width: 1.0;"/><text fill="#000000" font-family="sans-serif" font-size="13" lengthAdjust="spacingAndGlyphs" textLength="54" x="346" y="871.0669">«sends»</text><text fill="#000000" font-family="sans-serif" font-size="13" lengthAdjust="spacingAndGlyphs" textLength="8" x="341.6104" y="848.4162">1</text><text fill="#000000" font-family="sans-serif" font-size="13" lengthAdjust="spacingAndGlyphs" textLength="23" x="315.0442" y="893.8652">1..*</text><!--link HTTPSchema to HTTPRequest--><path d="M102.47,765.09 C108.95,808.08 118.11,868.87 123.51,904.73 " fill="none" id="HTTPSchema-HTTPRequest" style="stroke: #A80036; stroke-width: 1.0;"/><polygon fill="none" points="95.51,765.86,99.45,745.04,109.35,763.77,95.51,765.86" style="stroke: #A80036; stroke-width: 1.0;"/><!--link HTTPSchema to HTTPResponse--><path d="M113.86,763.87 C129.62,798.81 155.15,844.95 190,875 C213.49,895.26 244.82,909.27 272.34,918.58 " fill="none" id="HTTPSchema-HTTPResponse" style="stroke: #A80036; stroke-width: 1.0;"/><polygon fill="none" points="107.34,766.43,105.91,745.29,120.21,760.93,107.34,766.43" style="stroke: #A80036; stroke-width: 1.0;"/><!--
@startuml
package butterfly #DDDDDD
{

class Socket
{
    - _socketDomain, _socketType, _socketProtocol: int
    # _fd: int
    # _addr: sockadd_in

    +Socket(int domain, int type, int protocol)
    +Socket(int fileDescriptor, int domain, int type, int protocol)

    +getFileDescriptor() const: int
    +shutdown() const: bool
    +setOptions() const: bool
    +setBlocking() const: bool
    +setNonBlocking() const: bool

    +bind(unsigned int port): bool
    +listen() const: bool
    +accept(): std::shared_ptr<Socket>
    +connect(const std::string& host, const int port): bool
    +disconnect() const: bool
}

class TCPSocket
{

    +TCPSocket()
    +TCPSocket(int fileDescriptor)

    +accept(): std::shared_ptr<TCPSocket>
    +send(const std::string& s) const: bool
    +recv(char *buf,int len) const: int
    +recvAll(int chunkSize) const: std::string
}

class HTTPServer
{
    - _port: unsigned int port
    - _running: bool
    - _TCPSocket, _newTCPSocket: std::shared_ptr<TCPSocket>
    - _httpRequest: std::unique_ptr<HTTPRequest>
    +HTTPServer(unsigned int port)

    -handleRequest():
    -recvRequest():
    -processRequest():
    -preprareResponse():
    -sendResponse():

    +run(): void
    +stop(): void
}

class HTTPSchema
{

    +HTTPSchema()
}

class HTTPRequest
{

    +HTTPRequest()
}

class HTTPResponse
{

    +HTTPResponse()
}

Socket            <|- - TCPSocket
TCPSocket "1..*"  o- -  "1" HTTPServer : <<uses>>

HTTPServer "1"    - -* "1..*" HTTPRequest: <<processes>>
HTTPServer "1"    - -* "1..*" HTTPResponse: <<sends>>

HTTPSchema <|- - HTTPRequest
HTTPSchema <|- - HTTPResponse

}
@enduml

PlantUML version 1.2018.13(Mon Nov 26 18:11:51 CET 2018)
(GPL source distribution)
Java Runtime: OpenJDK Runtime Environment
JVM: OpenJDK 64-Bit Server VM
Java Version: 11.0.11+9-Ubuntu-0ubuntu2.20.04
Operating System: Linux
OS Version: 5.11.0-38-generic
Default Encoding: UTF-8
Language: de
Country: DE
--></g></svg>