<?xml version="1.0" encoding="UTF-8" standalone="no"?><svg xmlns="http://www.w3.org/2000/svg" xmlns:xlink="http://www.w3.org/1999/xlink" contentScriptType="application/ecmascript" contentStyleType="text/css" height="620px" preserveAspectRatio="none" style="width:402px;height:620px;" version="1.1" viewBox="0 0 402 620" width="402px" zoomAndPan="magnify"><defs><filter height="300%" id="f1aw764bgj8r1y" width="300%" x="-1" y="-1"><feGaussianBlur result="blurOut" stdDeviation="2.0"/><feColorMatrix in="blurOut" result="blurOut2" type="matrix" values="0 0 0 0 0 0 0 0 0 0 0 0 0 0 0 0 0 0 .4 0"/><feOffset dx="4.0" dy="4.0" in="blurOut2" result="blurOut3"/><feBlend in="SourceGraphic" in2="blurOut3" mode="normal"/></filter></defs><g><!--cluster butterfly--><polygon fill="#DDDDDD" filter="url(#f1aw764bgj8r1y)" points="22,24,96,24,103,46.2969,380,46.2969,380,608,22,608,22,24" style="stroke: #000000; stroke-width: 1.5;"/><line style="stroke: #000000; stroke-width: 1.5;" x1="22" x2="103" y1="46.2969" y2="46.2969"/><text fill="#000000" font-family="sans-serif" font-size="14" font-weight="bold" lengthAdjust="spacingAndGlyphs" textLength="68" x="26" y="38.9951">butterfly</text><!--class Socket--><rect fill="#FEFECE" filter="url(#f1aw764bgj8r1y)" height="240.0703" id="Socket" style="stroke: #A80036; stroke-width: 1.5;" width="327" x="37.5" y="59"/><ellipse cx="175.25" cy="75" fill="#ADD1B2" rx="11" ry="11" style="stroke: #A80036; stroke-width: 1.0;"/><path d="M178.2188,80.6406 Q177.6406,80.9375 177,81.0781 Q176.3594,81.2344 175.6563,81.2344 Q173.1563,81.2344 171.8281,79.5938 Q170.5156,77.9375 170.5156,74.8125 Q170.5156,71.6875 171.8281,70.0313 Q173.1563,68.375 175.6563,68.375 Q176.3594,68.375 177,68.5313 Q177.6563,68.6875 178.2188,68.9844 L178.2188,71.7031 Q177.5938,71.125 177,70.8594 Q176.4063,70.5781 175.7813,70.5781 Q174.4375,70.5781 173.75,71.6563 Q173.0625,72.7188 173.0625,74.8125 Q173.0625,76.9063 173.75,77.9844 Q174.4375,79.0469 175.7813,79.0469 Q176.4063,79.0469 177,78.7813 Q177.5938,78.5 178.2188,77.9219 L178.2188,80.6406 Z "/><text fill="#000000" font-family="sans-serif" font-size="12" lengthAdjust="spacingAndGlyphs" textLength="43" x="195.75" y="79.1543">Socket</text><line style="stroke: #A80036; stroke-width: 1.5;" x1="38.5" x2="363.5" y1="91" y2="91"/><rect fill="none" height="6" style="stroke: #C82930; stroke-width: 1.0;" width="6" x="45.5" y="99.9023"/><text fill="#000000" font-family="sans-serif" font-size="11" lengthAdjust="spacingAndGlyphs" textLength="283" x="57.5" y="105.2104">_socketDomain, _socketType, _socketProtocol: int</text><polygon fill="none" points="48.5,110.707,52.5,114.707,48.5,118.707,44.5,114.707" style="stroke: #B38D22; stroke-width: 1.0;"/><text fill="#000000" font-family="sans-serif" font-size="11" lengthAdjust="spacingAndGlyphs" textLength="39" x="57.5" y="118.0151">_fd: int</text><polygon fill="none" points="48.5,123.5117,52.5,127.5117,48.5,131.5117,44.5,127.5117" style="stroke: #B38D22; stroke-width: 1.0;"/><text fill="#000000" font-family="sans-serif" font-size="11" lengthAdjust="spacingAndGlyphs" textLength="103" x="57.5" y="130.8198">_addr: sockadd_in</text><line style="stroke: #A80036; stroke-width: 1.5;" x1="38.5" x2="363.5" y1="137.4141" y2="137.4141"/><ellipse cx="48.5" cy="149.3164" fill="#84BE84" rx="3" ry="3" style="stroke: #038048; stroke-width: 1.0;"/><text fill="#000000" font-family="sans-serif" font-size="11" lengthAdjust="spacingAndGlyphs" textLength="244" x="57.5" y="151.6245">Socket(int domain, int type, int protocol=0)</text><text fill="#000000" font-family="sans-serif" font-size="11" lengthAdjust="spacingAndGlyphs" textLength="0" x="61.5" y="164.4292"/><ellipse cx="48.5" cy="174.9258" fill="#84BE84" rx="3" ry="3" style="stroke: #038048; stroke-width: 1.0;"/><text fill="#000000" font-family="sans-serif" font-size="11" lengthAdjust="spacingAndGlyphs" textLength="130" x="57.5" y="177.2339">shutdown() const: bool</text><ellipse cx="48.5" cy="187.7305" fill="#84BE84" rx="3" ry="3" style="stroke: #038048; stroke-width: 1.0;"/><text fill="#000000" font-family="sans-serif" font-size="11" lengthAdjust="spacingAndGlyphs" textLength="137" x="57.5" y="190.0386">setOptions() const: bool</text><ellipse cx="48.5" cy="200.5352" fill="#84BE84" rx="3" ry="3" style="stroke: #038048; stroke-width: 1.0;"/><text fill="#000000" font-family="sans-serif" font-size="11" lengthAdjust="spacingAndGlyphs" textLength="140" x="57.5" y="202.8433">setBlocking() const: bool</text><ellipse cx="48.5" cy="213.3398" fill="#84BE84" rx="3" ry="3" style="stroke: #038048; stroke-width: 1.0;"/><text fill="#000000" font-family="sans-serif" font-size="11" lengthAdjust="spacingAndGlyphs" textLength="162" x="57.5" y="215.6479">setNonBlocking() const: bool</text><text fill="#000000" font-family="sans-serif" font-size="11" lengthAdjust="spacingAndGlyphs" textLength="0" x="61.5" y="228.4526"/><ellipse cx="48.5" cy="238.9492" fill="#84BE84" rx="3" ry="3" style="stroke: #038048; stroke-width: 1.0;"/><text fill="#000000" font-family="sans-serif" font-size="11" lengthAdjust="spacingAndGlyphs" textLength="161" x="57.5" y="241.2573">bind(unsigned int port): bool</text><ellipse cx="48.5" cy="251.7539" fill="#84BE84" rx="3" ry="3" style="stroke: #038048; stroke-width: 1.0;"/><text fill="#000000" font-family="sans-serif" font-size="11" lengthAdjust="spacingAndGlyphs" textLength="106" x="57.5" y="254.062">listen() const: bool</text><ellipse cx="48.5" cy="264.5586" fill="#84BE84" rx="3" ry="3" style="stroke: #038048; stroke-width: 1.0;"/><text fill="#000000" font-family="sans-serif" font-size="11" lengthAdjust="spacingAndGlyphs" textLength="197" x="57.5" y="266.8667">accept(): std::shared_ptr&lt;Socket&gt;</text><ellipse cx="48.5" cy="277.3633" fill="#84BE84" rx="3" ry="3" style="stroke: #038048; stroke-width: 1.0;"/><text fill="#000000" font-family="sans-serif" font-size="11" lengthAdjust="spacingAndGlyphs" textLength="301" x="57.5" y="279.6714">connect(const std::string&amp; host, const int port): bool</text><ellipse cx="48.5" cy="290.168" fill="#84BE84" rx="3" ry="3" style="stroke: #038048; stroke-width: 1.0;"/><text fill="#000000" font-family="sans-serif" font-size="11" lengthAdjust="spacingAndGlyphs" textLength="136" x="57.5" y="292.4761">disconnect() const: bool</text><!--class TCPSocket--><rect fill="#FEFECE" filter="url(#f1aw764bgj8r1y)" height="112.0234" id="TCPSocket" style="stroke: #A80036; stroke-width: 1.5;" width="255" x="73.5" y="359"/><ellipse cx="163.75" cy="375" fill="#ADD1B2" rx="11" ry="11" style="stroke: #A80036; stroke-width: 1.0;"/><path d="M166.7188,380.6406 Q166.1406,380.9375 165.5,381.0781 Q164.8594,381.2344 164.1563,381.2344 Q161.6563,381.2344 160.3281,379.5938 Q159.0156,377.9375 159.0156,374.8125 Q159.0156,371.6875 160.3281,370.0313 Q161.6563,368.375 164.1563,368.375 Q164.8594,368.375 165.5,368.5313 Q166.1563,368.6875 166.7188,368.9844 L166.7188,371.7031 Q166.0938,371.125 165.5,370.8594 Q164.9063,370.5781 164.2813,370.5781 Q162.9375,370.5781 162.25,371.6563 Q161.5625,372.7188 161.5625,374.8125 Q161.5625,376.9063 162.25,377.9844 Q162.9375,379.0469 164.2813,379.0469 Q164.9063,379.0469 165.5,378.7813 Q166.0938,378.5 166.7188,377.9219 L166.7188,380.6406 Z "/><text fill="#000000" font-family="sans-serif" font-size="12" lengthAdjust="spacingAndGlyphs" textLength="66" x="184.25" y="379.1543">TCPSocket</text><line style="stroke: #A80036; stroke-width: 1.5;" x1="74.5" x2="327.5" y1="391" y2="391"/><line style="stroke: #A80036; stroke-width: 1.5;" x1="74.5" x2="327.5" y1="399" y2="399"/><ellipse cx="84.5" cy="410.9023" fill="#84BE84" rx="3" ry="3" style="stroke: #038048; stroke-width: 1.0;"/><text fill="#000000" font-family="sans-serif" font-size="11" lengthAdjust="spacingAndGlyphs" textLength="68" x="93.5" y="413.2104">TCPSocket()</text><text fill="#000000" font-family="sans-serif" font-size="11" lengthAdjust="spacingAndGlyphs" textLength="0" x="97.5" y="426.0151"/><ellipse cx="84.5" cy="436.5117" fill="#84BE84" rx="3" ry="3" style="stroke: #038048; stroke-width: 1.0;"/><text fill="#000000" font-family="sans-serif" font-size="11" lengthAdjust="spacingAndGlyphs" textLength="219" x="93.5" y="438.8198">accept(): std::shared_ptr&lt;TCPSocket&gt;</text><ellipse cx="84.5" cy="449.3164" fill="#84BE84" rx="3" ry="3" style="stroke: #038048; stroke-width: 1.0;"/><text fill="#000000" font-family="sans-serif" font-size="11" lengthAdjust="spacingAndGlyphs" textLength="218" x="93.5" y="451.6245">send(const std::string&amp; s) const: bool</text><ellipse cx="84.5" cy="462.1211" fill="#84BE84" rx="3" ry="3" style="stroke: #038048; stroke-width: 1.0;"/><text fill="#000000" font-family="sans-serif" font-size="11" lengthAdjust="spacingAndGlyphs" textLength="229" x="93.5" y="464.4292">recv(std::string&amp; buf,int len) const: bool</text><!--class HTTPServer--><rect fill="#FEFECE" filter="url(#f1aw764bgj8r1y)" height="60.8047" id="HTTPServer" style="stroke: #A80036; stroke-width: 1.5;" width="103" x="149.5" y="531"/><ellipse cx="164.5" cy="547" fill="#ADD1B2" rx="11" ry="11" style="stroke: #A80036; stroke-width: 1.0;"/><path d="M167.4688,552.6406 Q166.8906,552.9375 166.25,553.0781 Q165.6094,553.2344 164.9063,553.2344 Q162.4063,553.2344 161.0781,551.5938 Q159.7656,549.9375 159.7656,546.8125 Q159.7656,543.6875 161.0781,542.0313 Q162.4063,540.375 164.9063,540.375 Q165.6094,540.375 166.25,540.5313 Q166.9063,540.6875 167.4688,540.9844 L167.4688,543.7031 Q166.8438,543.125 166.25,542.8594 Q165.6563,542.5781 165.0313,542.5781 Q163.6875,542.5781 163,543.6563 Q162.3125,544.7188 162.3125,546.8125 Q162.3125,548.9063 163,549.9844 Q163.6875,551.0469 165.0313,551.0469 Q165.6563,551.0469 166.25,550.7813 Q166.8438,550.5 167.4688,549.9219 L167.4688,552.6406 Z "/><text fill="#000000" font-family="sans-serif" font-size="12" lengthAdjust="spacingAndGlyphs" textLength="71" x="178.5" y="551.1543">HTTPServer</text><line style="stroke: #A80036; stroke-width: 1.5;" x1="150.5" x2="251.5" y1="563" y2="563"/><line style="stroke: #A80036; stroke-width: 1.5;" x1="150.5" x2="251.5" y1="571" y2="571"/><ellipse cx="160.5" cy="582.9023" fill="#84BE84" rx="3" ry="3" style="stroke: #038048; stroke-width: 1.0;"/><text fill="#000000" font-family="sans-serif" font-size="11" lengthAdjust="spacingAndGlyphs" textLength="75" x="169.5" y="585.2104">HTTPServer()</text><!--link Socket to TCPSocket--><path d="M201,319.49 C201,333.3 201,346.67 201,358.79 " fill="none" id="Socket-TCPSocket" style="stroke: #A80036; stroke-width: 1.0;"/><polygon fill="none" points="194,319.06,201,299.06,208,319.06,194,319.06" style="stroke: #A80036; stroke-width: 1.0;"/><!--link TCPSocket to HTTPServer--><path d="M201,476.3 C201,495.07 201,514.95 201,530.68 " fill="none" id="TCPSocket-HTTPServer" style="stroke: #A80036; stroke-width: 1.0;"/><polygon fill="#A80036" points="201,471.04,197,480.04,201,476.04,205,480.04,201,471.04" style="stroke: #A80036; stroke-width: 1.0;"/><!--
@startuml
package butterfly #DDDDDD
{

class Socket
{
    - _socketDomain, _socketType, _socketProtocol: int
    #_fd: int
    #_addr: sockadd_in

    +Socket(int domain, int type, int protocol=0)

    +shutdown() const: bool
    +setOptions() const: bool
    +setBlocking() const: bool
    +setNonBlocking() const: bool

    +bind(unsigned int port): bool
    +listen() const: bool
    +accept(): std::shared_ptr<Socket>
    +connect(const std::string& host, const int port): bool
    +disconnect() const: bool
}

class TCPSocket
{

    +TCPSocket()

    +accept(): std::shared_ptr<TCPSocket>
    +send(const std::string& s) const: bool
    +recv(std::string& buf,int len) const: bool
}

class HTTPServer
{

    +HTTPServer()
}

Socket <|- - TCPSocket
TCPSocket <- - HTTPServer

}
@enduml

PlantUML version 1.2018.13(Mon Nov 26 18:11:51 CET 2018)
(GPL source distribution)
Java Runtime: OpenJDK Runtime Environment
JVM: OpenJDK 64-Bit Server VM
Java Version: 11.0.11+9-Ubuntu-0ubuntu2.20.04
Operating System: Linux
OS Version: 5.11.0-37-generic
Default Encoding: UTF-8
Language: de
Country: DE
--></g></svg>