<?xml version="1.0" encoding="UTF-8" standalone="no"?><svg xmlns="http://www.w3.org/2000/svg" xmlns:xlink="http://www.w3.org/1999/xlink" contentScriptType="application/ecmascript" contentStyleType="text/css" height="1211px" preserveAspectRatio="none" style="width:1201px;height:1211px;" version="1.1" viewBox="0 0 1201 1211" width="1201px" zoomAndPan="magnify"><defs><filter height="300%" id="f1rrc7jratlkvg" width="300%" x="-1" y="-1"><feGaussianBlur result="blurOut" stdDeviation="2.0"/><feColorMatrix in="blurOut" result="blurOut2" type="matrix" values="0 0 0 0 0 0 0 0 0 0 0 0 0 0 0 0 0 0 .4 0"/><feOffset dx="4.0" dy="4.0" in="blurOut2" result="blurOut3"/><feBlend in="SourceGraphic" in2="blurOut3" mode="normal"/></filter></defs><g><!--cluster butterfly--><polygon fill="#DDDDDD" filter="url(#f1rrc7jratlkvg)" points="22,24,96,24,103,46.2969,1179,46.2969,1179,1199,22,1199,22,24" style="stroke: #000000; stroke-width: 1.5;"/><line style="stroke: #000000; stroke-width: 1.5;" x1="22" x2="103" y1="46.2969" y2="46.2969"/><text fill="#000000" font-family="sans-serif" font-size="14" font-weight="bold" lengthAdjust="spacingAndGlyphs" textLength="68" x="26" y="38.9951">butterfly</text><!--class Socket--><rect fill="#FEFECE" filter="url(#f1rrc7jratlkvg)" height="265.6797" id="Socket" style="stroke: #A80036; stroke-width: 1.5;" width="356" x="709" y="59"/><ellipse cx="861.25" cy="75" fill="#ADD1B2" rx="11" ry="11" style="stroke: #A80036; stroke-width: 1.0;"/><path d="M864.2188,80.6406 Q863.6406,80.9375 863,81.0781 Q862.3594,81.2344 861.6563,81.2344 Q859.1563,81.2344 857.8281,79.5938 Q856.5156,77.9375 856.5156,74.8125 Q856.5156,71.6875 857.8281,70.0313 Q859.1563,68.375 861.6563,68.375 Q862.3594,68.375 863,68.5313 Q863.6563,68.6875 864.2188,68.9844 L864.2188,71.7031 Q863.5938,71.125 863,70.8594 Q862.4063,70.5781 861.7813,70.5781 Q860.4375,70.5781 859.75,71.6563 Q859.0625,72.7188 859.0625,74.8125 Q859.0625,76.9063 859.75,77.9844 Q860.4375,79.0469 861.7813,79.0469 Q862.4063,79.0469 863,78.7813 Q863.5938,78.5 864.2188,77.9219 L864.2188,80.6406 Z "/><text fill="#000000" font-family="sans-serif" font-size="12" lengthAdjust="spacingAndGlyphs" textLength="43" x="881.75" y="79.1543">Socket</text><line style="stroke: #A80036; stroke-width: 1.5;" x1="710" x2="1064" y1="91" y2="91"/><rect fill="none" height="6" style="stroke: #C82930; stroke-width: 1.0;" width="6" x="717" y="99.9023"/><text fill="#000000" font-family="sans-serif" font-size="11" lengthAdjust="spacingAndGlyphs" textLength="283" x="729" y="105.2104">_socketDomain, _socketType, _socketProtocol: int</text><polygon fill="none" points="720,110.707,724,114.707,720,118.707,716,114.707" style="stroke: #B38D22; stroke-width: 1.0;"/><text fill="#000000" font-family="sans-serif" font-size="11" lengthAdjust="spacingAndGlyphs" textLength="39" x="729" y="118.0151">_fd: int</text><polygon fill="none" points="720,123.5117,724,127.5117,720,131.5117,716,127.5117" style="stroke: #B38D22; stroke-width: 1.0;"/><text fill="#000000" font-family="sans-serif" font-size="11" lengthAdjust="spacingAndGlyphs" textLength="108" x="729" y="130.8198">_addr: sockaddr_in</text><line style="stroke: #A80036; stroke-width: 1.5;" x1="710" x2="1064" y1="137.4141" y2="137.4141"/><ellipse cx="720" cy="149.3164" fill="#84BE84" rx="3" ry="3" style="stroke: #038048; stroke-width: 1.0;"/><text fill="#000000" font-family="sans-serif" font-size="11" lengthAdjust="spacingAndGlyphs" textLength="228" x="729" y="151.6245">Socket(int domain, int type, int protocol)</text><ellipse cx="720" cy="162.1211" fill="#84BE84" rx="3" ry="3" style="stroke: #038048; stroke-width: 1.0;"/><text fill="#000000" font-family="sans-serif" font-size="11" lengthAdjust="spacingAndGlyphs" textLength="330" x="729" y="164.4292">Socket(int fileDescriptor, int domain, int type, int protocol)</text><text fill="#000000" font-family="sans-serif" font-size="11" lengthAdjust="spacingAndGlyphs" textLength="0" x="733" y="177.2339"/><ellipse cx="720" cy="187.7305" fill="#84BE84" rx="3" ry="3" style="stroke: #038048; stroke-width: 1.0;"/><text fill="#000000" font-family="sans-serif" font-size="11" lengthAdjust="spacingAndGlyphs" textLength="161" x="729" y="190.0386">getFileDescriptor() const: int</text><ellipse cx="720" cy="200.5352" fill="#84BE84" rx="3" ry="3" style="stroke: #038048; stroke-width: 1.0;"/><text fill="#000000" font-family="sans-serif" font-size="11" lengthAdjust="spacingAndGlyphs" textLength="130" x="729" y="202.8433">shutdown() const: bool</text><ellipse cx="720" cy="213.3398" fill="#84BE84" rx="3" ry="3" style="stroke: #038048; stroke-width: 1.0;"/><text fill="#000000" font-family="sans-serif" font-size="11" lengthAdjust="spacingAndGlyphs" textLength="137" x="729" y="215.6479">setOptions() const: bool</text><ellipse cx="720" cy="226.1445" fill="#84BE84" rx="3" ry="3" style="stroke: #038048; stroke-width: 1.0;"/><text fill="#000000" font-family="sans-serif" font-size="11" lengthAdjust="spacingAndGlyphs" textLength="140" x="729" y="228.4526">setBlocking() const: bool</text><ellipse cx="720" cy="238.9492" fill="#84BE84" rx="3" ry="3" style="stroke: #038048; stroke-width: 1.0;"/><text fill="#000000" font-family="sans-serif" font-size="11" lengthAdjust="spacingAndGlyphs" textLength="162" x="729" y="241.2573">setNonBlocking() const: bool</text><text fill="#000000" font-family="sans-serif" font-size="11" lengthAdjust="spacingAndGlyphs" textLength="0" x="733" y="254.062"/><ellipse cx="720" cy="264.5586" fill="#84BE84" rx="3" ry="3" style="stroke: #038048; stroke-width: 1.0;"/><text fill="#000000" font-family="sans-serif" font-size="11" lengthAdjust="spacingAndGlyphs" textLength="161" x="729" y="266.8667">bind(unsigned int port): bool</text><ellipse cx="720" cy="277.3633" fill="#84BE84" rx="3" ry="3" style="stroke: #038048; stroke-width: 1.0;"/><text fill="#000000" font-family="sans-serif" font-size="11" lengthAdjust="spacingAndGlyphs" textLength="106" x="729" y="279.6714">listen() const: bool</text><ellipse cx="720" cy="290.168" fill="#84BE84" rx="3" ry="3" style="stroke: #038048; stroke-width: 1.0;"/><text fill="#000000" font-family="sans-serif" font-size="11" lengthAdjust="spacingAndGlyphs" textLength="197" x="729" y="292.4761">accept(): std::shared_ptr&lt;Socket&gt;</text><ellipse cx="720" cy="302.9727" fill="#84BE84" rx="3" ry="3" style="stroke: #038048; stroke-width: 1.0;"/><text fill="#000000" font-family="sans-serif" font-size="11" lengthAdjust="spacingAndGlyphs" textLength="301" x="729" y="305.2808">connect(const std::string&amp; host, const int port): bool</text><ellipse cx="720" cy="315.7773" fill="#84BE84" rx="3" ry="3" style="stroke: #038048; stroke-width: 1.0;"/><text fill="#000000" font-family="sans-serif" font-size="11" lengthAdjust="spacingAndGlyphs" textLength="136" x="729" y="318.0854">disconnect() const: bool</text><!--class TCPSocket--><rect fill="#FEFECE" filter="url(#f1rrc7jratlkvg)" height="137.6328" id="TCPSocket" style="stroke: #A80036; stroke-width: 1.5;" width="247" x="763.5" y="386"/><ellipse cx="849.75" cy="402" fill="#ADD1B2" rx="11" ry="11" style="stroke: #A80036; stroke-width: 1.0;"/><path d="M852.7188,407.6406 Q852.1406,407.9375 851.5,408.0781 Q850.8594,408.2344 850.1563,408.2344 Q847.6563,408.2344 846.3281,406.5938 Q845.0156,404.9375 845.0156,401.8125 Q845.0156,398.6875 846.3281,397.0313 Q847.6563,395.375 850.1563,395.375 Q850.8594,395.375 851.5,395.5313 Q852.1563,395.6875 852.7188,395.9844 L852.7188,398.7031 Q852.0938,398.125 851.5,397.8594 Q850.9063,397.5781 850.2813,397.5781 Q848.9375,397.5781 848.25,398.6563 Q847.5625,399.7188 847.5625,401.8125 Q847.5625,403.9063 848.25,404.9844 Q848.9375,406.0469 850.2813,406.0469 Q850.9063,406.0469 851.5,405.7813 Q852.0938,405.5 852.7188,404.9219 L852.7188,407.6406 Z "/><text fill="#000000" font-family="sans-serif" font-size="12" lengthAdjust="spacingAndGlyphs" textLength="66" x="870.25" y="406.1543">TCPSocket</text><line style="stroke: #A80036; stroke-width: 1.5;" x1="764.5" x2="1009.5" y1="418" y2="418"/><line style="stroke: #A80036; stroke-width: 1.5;" x1="764.5" x2="1009.5" y1="426" y2="426"/><ellipse cx="774.5" cy="437.9023" fill="#84BE84" rx="3" ry="3" style="stroke: #038048; stroke-width: 1.0;"/><text fill="#000000" font-family="sans-serif" font-size="11" lengthAdjust="spacingAndGlyphs" textLength="68" x="783.5" y="440.2104">TCPSocket()</text><ellipse cx="774.5" cy="450.707" fill="#84BE84" rx="3" ry="3" style="stroke: #038048; stroke-width: 1.0;"/><text fill="#000000" font-family="sans-serif" font-size="11" lengthAdjust="spacingAndGlyphs" textLength="162" x="783.5" y="453.0151">TCPSocket(int fileDescriptor)</text><text fill="#000000" font-family="sans-serif" font-size="11" lengthAdjust="spacingAndGlyphs" textLength="0" x="787.5" y="465.8198"/><ellipse cx="774.5" cy="476.3164" fill="#84BE84" rx="3" ry="3" style="stroke: #038048; stroke-width: 1.0;"/><text fill="#000000" font-family="sans-serif" font-size="11" lengthAdjust="spacingAndGlyphs" textLength="219" x="783.5" y="478.6245">accept(): std::shared_ptr&lt;TCPSocket&gt;</text><ellipse cx="774.5" cy="489.1211" fill="#84BE84" rx="3" ry="3" style="stroke: #038048; stroke-width: 1.0;"/><text fill="#000000" font-family="sans-serif" font-size="11" lengthAdjust="spacingAndGlyphs" textLength="218" x="783.5" y="491.4292">send(const std::string&amp; s) const: bool</text><ellipse cx="774.5" cy="501.9258" fill="#84BE84" rx="3" ry="3" style="stroke: #038048; stroke-width: 1.0;"/><text fill="#000000" font-family="sans-serif" font-size="11" lengthAdjust="spacingAndGlyphs" textLength="181" x="783.5" y="504.2339">recv(char *buf,int len) const: int</text><ellipse cx="774.5" cy="514.7305" fill="#84BE84" rx="3" ry="3" style="stroke: #038048; stroke-width: 1.0;"/><text fill="#000000" font-family="sans-serif" font-size="11" lengthAdjust="spacingAndGlyphs" textLength="221" x="783.5" y="517.0386">recvAll(int chunkSize) const: std::string</text><!--class HTTPServer--><rect fill="#FEFECE" filter="url(#f1rrc7jratlkvg)" height="227.2656" id="HTTPServer" style="stroke: #A80036; stroke-width: 1.5;" width="363" x="607.5" y="633"/><ellipse cx="749.25" cy="649" fill="#ADD1B2" rx="11" ry="11" style="stroke: #A80036; stroke-width: 1.0;"/><path d="M752.2188,654.6406 Q751.6406,654.9375 751,655.0781 Q750.3594,655.2344 749.6563,655.2344 Q747.1563,655.2344 745.8281,653.5938 Q744.5156,651.9375 744.5156,648.8125 Q744.5156,645.6875 745.8281,644.0313 Q747.1563,642.375 749.6563,642.375 Q750.3594,642.375 751,642.5313 Q751.6563,642.6875 752.2188,642.9844 L752.2188,645.7031 Q751.5938,645.125 751,644.8594 Q750.4063,644.5781 749.7813,644.5781 Q748.4375,644.5781 747.75,645.6563 Q747.0625,646.7188 747.0625,648.8125 Q747.0625,650.9063 747.75,651.9844 Q748.4375,653.0469 749.7813,653.0469 Q750.4063,653.0469 751,652.7813 Q751.5938,652.5 752.2188,651.9219 L752.2188,654.6406 Z "/><text fill="#000000" font-family="sans-serif" font-size="12" lengthAdjust="spacingAndGlyphs" textLength="71" x="769.75" y="653.1543">HTTPServer</text><line style="stroke: #A80036; stroke-width: 1.5;" x1="608.5" x2="969.5" y1="665" y2="665"/><rect fill="none" height="6" style="stroke: #C82930; stroke-width: 1.0;" width="6" x="615.5" y="673.9023"/><text fill="#000000" font-family="sans-serif" font-size="11" lengthAdjust="spacingAndGlyphs" textLength="134" x="627.5" y="679.2104">_port: unsigned int port</text><rect fill="none" height="6" style="stroke: #C82930; stroke-width: 1.0;" width="6" x="615.5" y="686.707"/><text fill="#000000" font-family="sans-serif" font-size="11" lengthAdjust="spacingAndGlyphs" textLength="81" x="627.5" y="692.0151">_running: bool</text><rect fill="none" height="6" style="stroke: #C82930; stroke-width: 1.0;" width="6" x="615.5" y="699.5117"/><text fill="#000000" font-family="sans-serif" font-size="11" lengthAdjust="spacingAndGlyphs" textLength="337" x="627.5" y="704.8198">_TCPSocket, _newTCPSocket: std::shared_ptr&lt;TCPSocket&gt;</text><rect fill="none" height="6" style="stroke: #C82930; stroke-width: 1.0;" width="6" x="615.5" y="712.3164"/><text fill="#000000" font-family="sans-serif" font-size="11" lengthAdjust="spacingAndGlyphs" textLength="261" x="627.5" y="717.6245">_httpRequest: std::unique_ptr&lt;HTTPRequest&gt;</text><line style="stroke: #A80036; stroke-width: 1.5;" x1="608.5" x2="969.5" y1="724.2188" y2="724.2188"/><ellipse cx="618.5" cy="736.1211" fill="#84BE84" rx="3" ry="3" style="stroke: #038048; stroke-width: 1.0;"/><text fill="#000000" font-family="sans-serif" font-size="11" lengthAdjust="spacingAndGlyphs" textLength="172" x="627.5" y="738.4292">HTTPServer(unsigned int port)</text><text fill="#000000" font-family="sans-serif" font-size="11" lengthAdjust="spacingAndGlyphs" textLength="0" x="631.5" y="751.2339"/><rect fill="#F24D5C" height="6" style="stroke: #C82930; stroke-width: 1.0;" width="6" x="615.5" y="758.7305"/><text fill="#000000" font-family="sans-serif" font-size="11" lengthAdjust="spacingAndGlyphs" textLength="96" x="627.5" y="764.0386">handleRequest():</text><rect fill="#F24D5C" height="6" style="stroke: #C82930; stroke-width: 1.0;" width="6" x="615.5" y="771.5352"/><text fill="#000000" font-family="sans-serif" font-size="11" lengthAdjust="spacingAndGlyphs" textLength="82" x="627.5" y="776.8433">recvRequest():</text><rect fill="#F24D5C" height="6" style="stroke: #C82930; stroke-width: 1.0;" width="6" x="615.5" y="784.3398"/><text fill="#000000" font-family="sans-serif" font-size="11" lengthAdjust="spacingAndGlyphs" textLength="104" x="627.5" y="789.6479">processRequest():</text><rect fill="#F24D5C" height="6" style="stroke: #C82930; stroke-width: 1.0;" width="6" x="615.5" y="797.1445"/><text fill="#000000" font-family="sans-serif" font-size="11" lengthAdjust="spacingAndGlyphs" textLength="118" x="627.5" y="802.4526">preprareResponse():</text><rect fill="#F24D5C" height="6" style="stroke: #C82930; stroke-width: 1.0;" width="6" x="615.5" y="809.9492"/><text fill="#000000" font-family="sans-serif" font-size="11" lengthAdjust="spacingAndGlyphs" textLength="96" x="627.5" y="815.2573">sendResponse():</text><text fill="#000000" font-family="sans-serif" font-size="11" lengthAdjust="spacingAndGlyphs" textLength="0" x="631.5" y="828.062"/><ellipse cx="618.5" cy="838.5586" fill="#84BE84" rx="3" ry="3" style="stroke: #038048; stroke-width: 1.0;"/><text fill="#000000" font-family="sans-serif" font-size="11" lengthAdjust="spacingAndGlyphs" textLength="58" x="627.5" y="840.8667">run(): void</text><ellipse cx="618.5" cy="851.3633" fill="#84BE84" rx="3" ry="3" style="stroke: #038048; stroke-width: 1.0;"/><text fill="#000000" font-family="sans-serif" font-size="11" lengthAdjust="spacingAndGlyphs" textLength="64" x="627.5" y="853.6714">stop(): void</text><!--class HTTPClient--><rect fill="#FEFECE" filter="url(#f1rrc7jratlkvg)" height="66.7422" id="HTTPClient" style="stroke: #A80036; stroke-width: 1.5;" width="157" x="1005.5" y="713"/><ellipse cx="1020.5" cy="731.9688" fill="#ADD1B2" rx="11" ry="11" style="stroke: #A80036; stroke-width: 1.0;"/><path d="M1023.4688,737.6094 Q1022.8906,737.9063 1022.25,738.0469 Q1021.6094,738.2031 1020.9063,738.2031 Q1018.4063,738.2031 1017.0781,736.5625 Q1015.7656,734.9063 1015.7656,731.7813 Q1015.7656,728.6563 1017.0781,727 Q1018.4063,725.3438 1020.9063,725.3438 Q1021.6094,725.3438 1022.25,725.5 Q1022.9063,725.6563 1023.4688,725.9531 L1023.4688,728.6719 Q1022.8438,728.0938 1022.25,727.8281 Q1021.6563,727.5469 1021.0313,727.5469 Q1019.6875,727.5469 1019,728.625 Q1018.3125,729.6875 1018.3125,731.7813 Q1018.3125,733.875 1019,734.9531 Q1019.6875,736.0156 1021.0313,736.0156 Q1021.6563,736.0156 1022.25,735.75 Q1022.8438,735.4688 1023.4688,734.8906 L1023.4688,737.6094 Z "/><text fill="#000000" font-family="sans-serif" font-size="12" font-style="italic" lengthAdjust="spacingAndGlyphs" textLength="129" x="1032.5" y="729.1387">«NOT IMPLEMENTED»</text><text fill="#000000" font-family="sans-serif" font-size="12" lengthAdjust="spacingAndGlyphs" textLength="66" x="1064" y="743.1074">HTTPClient</text><line style="stroke: #A80036; stroke-width: 1.5;" x1="1006.5" x2="1161.5" y1="750.9375" y2="750.9375"/><line style="stroke: #A80036; stroke-width: 1.5;" x1="1006.5" x2="1161.5" y1="758.9375" y2="758.9375"/><ellipse cx="1016.5" cy="770.8398" fill="#84BE84" rx="3" ry="3" style="stroke: #038048; stroke-width: 1.0;"/><text fill="#000000" font-family="sans-serif" font-size="11" lengthAdjust="spacingAndGlyphs" textLength="69" x="1025.5" y="773.1479">HTTPClient()</text><!--class HTTPMSGSchema--><rect fill="#FEFECE" filter="url(#f1rrc7jratlkvg)" height="291.2891" id="HTTPMSGSchema" style="stroke: #A80036; stroke-width: 1.5;" width="534" x="38" y="601"/><ellipse cx="246.75" cy="617" fill="#ADD1B2" rx="11" ry="11" style="stroke: #A80036; stroke-width: 1.0;"/><path d="M249.7188,622.6406 Q249.1406,622.9375 248.5,623.0781 Q247.8594,623.2344 247.1563,623.2344 Q244.6563,623.2344 243.3281,621.5938 Q242.0156,619.9375 242.0156,616.8125 Q242.0156,613.6875 243.3281,612.0313 Q244.6563,610.375 247.1563,610.375 Q247.8594,610.375 248.5,610.5313 Q249.1563,610.6875 249.7188,610.9844 L249.7188,613.7031 Q249.0938,613.125 248.5,612.8594 Q247.9063,612.5781 247.2813,612.5781 Q245.9375,612.5781 245.25,613.6563 Q244.5625,614.7188 244.5625,616.8125 Q244.5625,618.9063 245.25,619.9844 Q245.9375,621.0469 247.2813,621.0469 Q247.9063,621.0469 248.5,620.7813 Q249.0938,620.5 249.7188,619.9219 L249.7188,622.6406 Z "/><text fill="#000000" font-family="sans-serif" font-size="12" lengthAdjust="spacingAndGlyphs" textLength="108" x="267.25" y="621.1543">HTTPMSGSchema</text><line style="stroke: #A80036; stroke-width: 1.5;" x1="39" x2="571" y1="633" y2="633"/><rect fill="none" height="6" style="stroke: #C82930; stroke-width: 1.0;" width="6" x="46" y="641.9023"/><text fill="#000000" font-family="sans-serif" font-size="11" lengthAdjust="spacingAndGlyphs" textLength="233" x="58" y="647.2104">_data, _body, _messageType: std::string</text><rect fill="none" height="6" style="stroke: #C82930; stroke-width: 1.0;" width="6" x="46" y="654.707"/><text fill="#000000" font-family="sans-serif" font-size="11" lengthAdjust="spacingAndGlyphs" textLength="118" x="58" y="660.0151">_httpMethod: Method</text><rect fill="none" height="6" style="stroke: #C82930; stroke-width: 1.0;" width="6" x="46" y="667.5117"/><text fill="#000000" font-family="sans-serif" font-size="11" lengthAdjust="spacingAndGlyphs" textLength="106" x="58" y="672.8198">_protocol: Protocol</text><rect fill="none" height="6" style="stroke: #C82930; stroke-width: 1.0;" width="6" x="46" y="680.3164"/><text fill="#000000" font-family="sans-serif" font-size="11" lengthAdjust="spacingAndGlyphs" textLength="363" x="58" y="685.6245">_httpHeaders: std::vector&lt; std::pair&lt;std::string, std::string&gt; &gt;</text><line style="stroke: #A80036; stroke-width: 1.5;" x1="39" x2="571" y1="692.2188" y2="692.2188"/><ellipse cx="49" cy="704.1211" fill="#84BE84" rx="3" ry="3" style="stroke: #038048; stroke-width: 1.0;"/><text fill="#000000" font-family="sans-serif" font-size="11" lengthAdjust="spacingAndGlyphs" textLength="297" x="58" y="706.4292">HTTPMSGSchema(const std::string &amp;messageType)</text><text fill="#000000" font-family="sans-serif" font-size="11" lengthAdjust="spacingAndGlyphs" textLength="0" x="62" y="719.2339"/><ellipse cx="49" cy="729.7305" fill="#84BE84" rx="3" ry="3" style="stroke: #038048; stroke-width: 1.0;"/><text fill="#000000" font-family="sans-serif" font-size="11" lengthAdjust="spacingAndGlyphs" textLength="100" x="58" y="732.0386">print() const: void</text><ellipse cx="49" cy="742.5352" fill="#84BE84" rx="3" ry="3" style="stroke: #038048; stroke-width: 1.0;"/><text fill="#000000" font-family="sans-serif" font-size="11" lengthAdjust="spacingAndGlyphs" textLength="248" x="58" y="744.8433">addHTTPData(const std::string &amp;data): void</text><ellipse cx="49" cy="755.3398" fill="#84BE84" rx="3" ry="3" style="stroke: #038048; stroke-width: 1.0;"/><text fill="#000000" font-family="sans-serif" font-size="11" lengthAdjust="spacingAndGlyphs" textLength="183" x="58" y="757.6479">getHTTPData() const: std::string</text><ellipse cx="49" cy="768.1445" fill="#84BE84" rx="3" ry="3" style="stroke: #038048; stroke-width: 1.0;"/><text fill="#000000" font-family="sans-serif" font-size="11" lengthAdjust="spacingAndGlyphs" textLength="199" x="58" y="770.4526">setProtocol(Protocol protocol): void</text><ellipse cx="49" cy="780.9492" fill="#84BE84" rx="3" ry="3" style="stroke: #038048; stroke-width: 1.0;"/><text fill="#000000" font-family="sans-serif" font-size="11" lengthAdjust="spacingAndGlyphs" textLength="161" x="58" y="783.2573">getProtocol() const: Protocol</text><ellipse cx="49" cy="793.7539" fill="#84BE84" rx="3" ry="3" style="stroke: #038048; stroke-width: 1.0;"/><text fill="#000000" font-family="sans-serif" font-size="11" lengthAdjust="spacingAndGlyphs" textLength="192" x="58" y="796.062">addBody(const std::string &amp;body)</text><ellipse cx="49" cy="806.5586" fill="#84BE84" rx="3" ry="3" style="stroke: #038048; stroke-width: 1.0;"/><text fill="#000000" font-family="sans-serif" font-size="11" lengthAdjust="spacingAndGlyphs" textLength="156" x="58" y="808.8667">getBody() const: std::string</text><ellipse cx="49" cy="819.3633" fill="#84BE84" rx="3" ry="3" style="stroke: #038048; stroke-width: 1.0;"/><text fill="#000000" font-family="sans-serif" font-size="11" lengthAdjust="spacingAndGlyphs" textLength="508" x="58" y="821.6714">setHTTPHeader(const std::string &amp;headerName, const std::string &amp;headerContent): void</text><ellipse cx="49" cy="832.168" fill="#84BE84" rx="3" ry="3" style="stroke: #038048; stroke-width: 1.0;"/><text fill="#000000" font-family="sans-serif" font-size="11" lengthAdjust="spacingAndGlyphs" textLength="379" x="58" y="834.4761">getHTTPHeader(const std::string &amp;headerName) const: std::string</text><ellipse cx="49" cy="844.9727" fill="#84BE84" rx="3" ry="3" style="stroke: #038048; stroke-width: 1.0;"/><text fill="#000000" font-family="sans-serif" font-size="11" lengthAdjust="spacingAndGlyphs" textLength="194" x="58" y="847.2808">getHTTPHeaderSize() const: size_t</text><text fill="#000000" font-family="sans-serif" font-size="11" lengthAdjust="spacingAndGlyphs" textLength="0" x="62" y="860.0854"/><ellipse cx="49" cy="870.582" fill="#84BE84" rx="3" ry="3" style="stroke: #038048; stroke-width: 1.0;"/><text fill="#000000" font-family="sans-serif" font-size="11" lengthAdjust="spacingAndGlyphs" textLength="147" x="58" y="872.8901">parseIncoming() = 0: void</text><ellipse cx="49" cy="883.3867" fill="#84BE84" rx="3" ry="3" style="stroke: #038048; stroke-width: 1.0;"/><text fill="#000000" font-family="sans-serif" font-size="11" lengthAdjust="spacingAndGlyphs" textLength="159" x="58" y="885.6948">prepareOutgoing() = 0: void</text><!--class HTTPRequest--><rect fill="#FEFECE" filter="url(#f1rrc7jratlkvg)" height="214.4609" id="HTTPRequest" style="stroke: #A80036; stroke-width: 1.5;" width="308" x="349" y="969"/><ellipse cx="457.25" cy="985" fill="#ADD1B2" rx="11" ry="11" style="stroke: #A80036; stroke-width: 1.0;"/><path d="M460.2188,990.6406 Q459.6406,990.9375 459,991.0781 Q458.3594,991.2344 457.6563,991.2344 Q455.1563,991.2344 453.8281,989.5938 Q452.5156,987.9375 452.5156,984.8125 Q452.5156,981.6875 453.8281,980.0313 Q455.1563,978.375 457.6563,978.375 Q458.3594,978.375 459,978.5313 Q459.6563,978.6875 460.2188,978.9844 L460.2188,981.7031 Q459.5938,981.125 459,980.8594 Q458.4063,980.5781 457.7813,980.5781 Q456.4375,980.5781 455.75,981.6563 Q455.0625,982.7188 455.0625,984.8125 Q455.0625,986.9063 455.75,987.9844 Q456.4375,989.0469 457.7813,989.0469 Q458.4063,989.0469 459,988.7813 Q459.5938,988.5 460.2188,987.9219 L460.2188,990.6406 Z "/><text fill="#000000" font-family="sans-serif" font-size="12" lengthAdjust="spacingAndGlyphs" textLength="83" x="477.75" y="989.1543">HTTPRequest</text><line style="stroke: #A80036; stroke-width: 1.5;" x1="350" x2="656" y1="1001" y2="1001"/><rect fill="none" height="6" style="stroke: #C82930; stroke-width: 1.0;" width="6" x="357" y="1009.9023"/><text fill="#000000" font-family="sans-serif" font-size="11" lengthAdjust="spacingAndGlyphs" textLength="160" x="369" y="1015.2104">_url, _userAgent: std::string</text><line style="stroke: #A80036; stroke-width: 1.5;" x1="350" x2="656" y1="1021.8047" y2="1021.8047"/><ellipse cx="360" cy="1033.707" fill="#84BE84" rx="3" ry="3" style="stroke: #038048; stroke-width: 1.0;"/><text fill="#000000" font-family="sans-serif" font-size="11" lengthAdjust="spacingAndGlyphs" textLength="83" x="369" y="1036.0151">HTTPRequest()</text><text fill="#000000" font-family="sans-serif" font-size="11" lengthAdjust="spacingAndGlyphs" textLength="0" x="373" y="1048.8198"/><ellipse cx="360" cy="1059.3164" fill="#84BE84" rx="3" ry="3" style="stroke: #038048; stroke-width: 1.0;"/><text fill="#000000" font-family="sans-serif" font-size="11" lengthAdjust="spacingAndGlyphs" textLength="196" x="369" y="1061.6245">setMethod(Method &amp;method): void</text><ellipse cx="360" cy="1072.1211" fill="#84BE84" rx="3" ry="3" style="stroke: #038048; stroke-width: 1.0;"/><text fill="#000000" font-family="sans-serif" font-size="11" lengthAdjust="spacingAndGlyphs" textLength="151" x="369" y="1074.4292">getMethod() const: Method</text><ellipse cx="360" cy="1084.9258" fill="#84BE84" rx="3" ry="3" style="stroke: #038048; stroke-width: 1.0;"/><text fill="#000000" font-family="sans-serif" font-size="11" lengthAdjust="spacingAndGlyphs" textLength="201" x="369" y="1087.2339">setURL(const std::string &amp;url): void</text><ellipse cx="360" cy="1097.7305" fill="#84BE84" rx="3" ry="3" style="stroke: #038048; stroke-width: 1.0;"/><text fill="#000000" font-family="sans-serif" font-size="11" lengthAdjust="spacingAndGlyphs" textLength="149" x="369" y="1100.0386">getURL() const: std::string</text><ellipse cx="360" cy="1110.5352" fill="#84BE84" rx="3" ry="3" style="stroke: #038048; stroke-width: 1.0;"/><text fill="#000000" font-family="sans-serif" font-size="11" lengthAdjust="spacingAndGlyphs" textLength="282" x="369" y="1112.8433">setUserAgent(const std::string &amp;userAgent): void</text><ellipse cx="360" cy="1123.3398" fill="#84BE84" rx="3" ry="3" style="stroke: #038048; stroke-width: 1.0;"/><text fill="#000000" font-family="sans-serif" font-size="11" lengthAdjust="spacingAndGlyphs" textLength="187" x="369" y="1125.6479">getUserAgent() const: std::string</text><ellipse cx="360" cy="1136.1445" fill="#84BE84" rx="3" ry="3" style="stroke: #038048; stroke-width: 1.0;"/><text fill="#000000" font-family="sans-serif" font-size="11" lengthAdjust="spacingAndGlyphs" textLength="170" x="369" y="1138.4526">getRequestSize() const: size_t</text><text fill="#000000" font-family="sans-serif" font-size="11" lengthAdjust="spacingAndGlyphs" textLength="0" x="373" y="1151.2573"/><ellipse cx="360" cy="1161.7539" fill="#84BE84" rx="3" ry="3" style="stroke: #038048; stroke-width: 1.0;"/><text fill="#000000" font-family="sans-serif" font-size="11" lengthAdjust="spacingAndGlyphs" textLength="123" x="369" y="1164.062">parseIncoming(): void</text><ellipse cx="360" cy="1174.5586" fill="#84BE84" rx="3" ry="3" style="stroke: #038048; stroke-width: 1.0;"/><text fill="#000000" font-family="sans-serif" font-size="11" lengthAdjust="spacingAndGlyphs" textLength="135" x="369" y="1176.8667">prepareOutgoing(): void</text><!--class HTTPResponse--><rect fill="#FEFECE" filter="url(#f1rrc7jratlkvg)" height="201.6563" id="HTTPResponse" style="stroke: #A80036; stroke-width: 1.5;" width="266" x="692" y="975"/><ellipse cx="774.25" cy="991" fill="#ADD1B2" rx="11" ry="11" style="stroke: #A80036; stroke-width: 1.0;"/><path d="M777.2188,996.6406 Q776.6406,996.9375 776,997.0781 Q775.3594,997.2344 774.6563,997.2344 Q772.1563,997.2344 770.8281,995.5938 Q769.5156,993.9375 769.5156,990.8125 Q769.5156,987.6875 770.8281,986.0313 Q772.1563,984.375 774.6563,984.375 Q775.3594,984.375 776,984.5313 Q776.6563,984.6875 777.2188,984.9844 L777.2188,987.7031 Q776.5938,987.125 776,986.8594 Q775.4063,986.5781 774.7813,986.5781 Q773.4375,986.5781 772.75,987.6563 Q772.0625,988.7188 772.0625,990.8125 Q772.0625,992.9063 772.75,993.9844 Q773.4375,995.0469 774.7813,995.0469 Q775.4063,995.0469 776,994.7813 Q776.5938,994.5 777.2188,993.9219 L777.2188,996.6406 Z "/><text fill="#000000" font-family="sans-serif" font-size="12" lengthAdjust="spacingAndGlyphs" textLength="93" x="794.75" y="995.1543">HTTPResponse</text><line style="stroke: #A80036; stroke-width: 1.5;" x1="693" x2="957" y1="1007" y2="1007"/><rect fill="none" height="6" style="stroke: #C82930; stroke-width: 1.0;" width="6" x="700" y="1015.9023"/><text fill="#000000" font-family="sans-serif" font-size="11" lengthAdjust="spacingAndGlyphs" textLength="153" x="712" y="1021.2104">_reasonPhrase: std::string</text><rect fill="none" height="6" style="stroke: #C82930; stroke-width: 1.0;" width="6" x="700" y="1028.707"/><text fill="#000000" font-family="sans-serif" font-size="11" lengthAdjust="spacingAndGlyphs" textLength="111" x="712" y="1034.0151">_statusCode: size_t</text><line style="stroke: #A80036; stroke-width: 1.5;" x1="693" x2="957" y1="1040.6094" y2="1040.6094"/><ellipse cx="703" cy="1052.5117" fill="#84BE84" rx="3" ry="3" style="stroke: #038048; stroke-width: 1.0;"/><text fill="#000000" font-family="sans-serif" font-size="11" lengthAdjust="spacingAndGlyphs" textLength="93" x="712" y="1054.8198">HTTPResponse()</text><text fill="#000000" font-family="sans-serif" font-size="11" lengthAdjust="spacingAndGlyphs" textLength="0" x="716" y="1067.6245"/><ellipse cx="703" cy="1078.1211" fill="#84BE84" rx="3" ry="3" style="stroke: #038048; stroke-width: 1.0;"/><text fill="#000000" font-family="sans-serif" font-size="11" lengthAdjust="spacingAndGlyphs" textLength="224" x="712" y="1080.4292">setStatusCode(size_t statusCode): void</text><ellipse cx="703" cy="1090.9258" fill="#84BE84" rx="3" ry="3" style="stroke: #038048; stroke-width: 1.0;"/><text fill="#000000" font-family="sans-serif" font-size="11" lengthAdjust="spacingAndGlyphs" textLength="167" x="712" y="1093.2339">getStatusCode() const: size_t</text><ellipse cx="703" cy="1103.7305" fill="#84BE84" rx="3" ry="3" style="stroke: #038048; stroke-width: 1.0;"/><text fill="#000000" font-family="sans-serif" font-size="11" lengthAdjust="spacingAndGlyphs" textLength="240" x="712" y="1106.0386">setReasonPhrase(size_t statusCode): void</text><ellipse cx="703" cy="1116.5352" fill="#84BE84" rx="3" ry="3" style="stroke: #038048; stroke-width: 1.0;"/><text fill="#000000" font-family="sans-serif" font-size="11" lengthAdjust="spacingAndGlyphs" textLength="210" x="712" y="1118.8433">getReasonPhrase() const: std::string</text><ellipse cx="703" cy="1129.3398" fill="#84BE84" rx="3" ry="3" style="stroke: #038048; stroke-width: 1.0;"/><text fill="#000000" font-family="sans-serif" font-size="11" lengthAdjust="spacingAndGlyphs" textLength="180" x="712" y="1131.6479">getResponseSize() const: size_t</text><text fill="#000000" font-family="sans-serif" font-size="11" lengthAdjust="spacingAndGlyphs" textLength="0" x="716" y="1144.4526"/><ellipse cx="703" cy="1154.9492" fill="#84BE84" rx="3" ry="3" style="stroke: #038048; stroke-width: 1.0;"/><text fill="#000000" font-family="sans-serif" font-size="11" lengthAdjust="spacingAndGlyphs" textLength="123" x="712" y="1157.2573">parseIncoming(): void</text><ellipse cx="703" cy="1167.7539" fill="#84BE84" rx="3" ry="3" style="stroke: #038048; stroke-width: 1.0;"/><text fill="#000000" font-family="sans-serif" font-size="11" lengthAdjust="spacingAndGlyphs" textLength="135" x="712" y="1170.062">prepareOutgoing(): void</text><!--entity ##10--><!--link Socket to TCPSocket--><path d="M887,345.11 C887,359.2 887,372.95 887,385.67 " fill="none" id="Socket-TCPSocket" style="stroke: #A80036; stroke-width: 1.0;"/><polygon fill="none" points="880,345.03,887,325.03,894,345.03,880,345.03" style="stroke: #A80036; stroke-width: 1.0;"/><!--link TCPSocket to HTTPServer--><path d="M859.68,536.72 C849.58,566.53 837.96,600.88 827.08,633 " fill="none" id="TCPSocket-HTTPServer" style="stroke: #A80036; stroke-width: 1.0;"/><polygon fill="#FFFFFF" points="863.9,524.24,858.191,528.6454,860.0618,535.6096,865.7708,531.2042,863.9,524.24" style="stroke: #A80036; stroke-width: 1.0;"/><text fill="#000000" font-family="sans-serif" font-size="13" lengthAdjust="spacingAndGlyphs" textLength="46" x="853" y="567.0669">«uses»</text><text fill="#000000" font-family="sans-serif" font-size="13" lengthAdjust="spacingAndGlyphs" textLength="23" x="837.6022" y="543.645">1..*</text><text fill="#000000" font-family="sans-serif" font-size="13" lengthAdjust="spacingAndGlyphs" textLength="8" x="821.3698" y="621.9327">1</text><!--link TCPSocket to HTTPClient--><path d="M942.29,534.71 C957.22,556.15 973.31,579.41 988,601 C1014.01,639.22 1043.34,683.56 1062.66,712.94 " fill="none" id="TCPSocket-HTTPClient" style="stroke: #A80036; stroke-width: 1.0;"/><polygon fill="#FFFFFF" points="934.84,524.02,934.985,531.2296,941.6959,533.8687,941.5508,526.6591,934.84,524.02" style="stroke: #A80036; stroke-width: 1.0;"/><text fill="#000000" font-family="sans-serif" font-size="13" lengthAdjust="spacingAndGlyphs" textLength="46" x="967" y="567.0669">«uses»</text><text fill="#000000" font-family="sans-serif" font-size="13" lengthAdjust="spacingAndGlyphs" textLength="23" x="915.4172" y="543.6439">1..*</text><text fill="#000000" font-family="sans-serif" font-size="13" lengthAdjust="spacingAndGlyphs" textLength="8" x="1049.6712" y="701.9617">1</text><!--link HTTPServer to HTTPRequest--><path d="M690.58,860.21 C662.68,892.15 632.27,926.97 604.21,959.1 " fill="none" id="HTTPServer-HTTPRequest" style="stroke: #A80036; stroke-width: 1.0;"/><polygon fill="#A80036" points="595.59,968.98,602.5508,967.0964,603.4893,959.9466,596.5285,961.8302,595.59,968.98" style="stroke: #A80036; stroke-width: 1.0;"/><text fill="#000000" font-family="sans-serif" font-size="13" lengthAdjust="spacingAndGlyphs" textLength="81" x="629" y="935.0669">«processes»</text><text fill="#000000" font-family="sans-serif" font-size="13" lengthAdjust="spacingAndGlyphs" textLength="8" x="675.6987" y="880.4162">1</text><text fill="#000000" font-family="sans-serif" font-size="13" lengthAdjust="spacingAndGlyphs" textLength="23" x="578.2916" y="957.9832">1..*</text><!--link HTTPServer to HTTPResponse--><path d="M801.39,860.21 C805.01,893.12 808.96,929.09 812.58,962.02 " fill="none" id="HTTPServer-HTTPResponse" style="stroke: #A80036; stroke-width: 1.0;"/><polygon fill="#A80036" points="814,974.96,817.3168,968.557,812.6821,963.0326,809.3652,969.4356,814,974.96" style="stroke: #A80036; stroke-width: 1.0;"/><text fill="#000000" font-family="sans-serif" font-size="13" lengthAdjust="spacingAndGlyphs" textLength="54" x="810" y="935.0669">«sends»</text><text fill="#000000" font-family="sans-serif" font-size="13" lengthAdjust="spacingAndGlyphs" textLength="8" x="793.9537" y="880.4162">1</text><text fill="#000000" font-family="sans-serif" font-size="13" lengthAdjust="spacingAndGlyphs" textLength="23" x="789.3477" y="964.0735">1..*</text><!--link HTTPClient to HTTPRequest--><path d="M1069.5,780.04 C1053.64,812.35 1025.4,861.37 988,892 C877.17,982.77 809.51,919.7 675,969 C673.15,969.68 671.29,970.38 669.44,971.1 " fill="none" id="HTTPClient-HTTPRequest" style="stroke: #A80036; stroke-width: 1.0;"/><polygon fill="#A80036" points="657.2,976.13,664.2701,977.5493,668.2994,971.569,661.2294,970.1497,657.2,976.13" style="stroke: #A80036; stroke-width: 1.0;"/><text fill="#000000" font-family="sans-serif" font-size="13" lengthAdjust="spacingAndGlyphs" textLength="54" x="938" y="935.0669">«sends»</text><text fill="#000000" font-family="sans-serif" font-size="13" lengthAdjust="spacingAndGlyphs" textLength="8" x="1058.0891" y="799.7097">1</text><text fill="#000000" font-family="sans-serif" font-size="13" lengthAdjust="spacingAndGlyphs" textLength="23" x="660.8242" y="964.6531">1..*</text><!--link HTTPClient to HTTPResponse--><path d="M1077.35,780.09 C1067.84,820.59 1047.24,890.3 1010,939 C997.98,954.72 983.67,969.45 968.41,982.99 " fill="none" id="HTTPClient-HTTPResponse" style="stroke: #A80036; stroke-width: 1.0;"/><polygon fill="#A80036" points="958.26,991.72,965.4176,990.8429,967.3608,983.8986,960.2033,984.7757,958.26,991.72" style="stroke: #A80036; stroke-width: 1.0;"/><text fill="#000000" font-family="sans-serif" font-size="13" lengthAdjust="spacingAndGlyphs" textLength="81" x="1020" y="935.0669">«processes»</text><text fill="#000000" font-family="sans-serif" font-size="13" lengthAdjust="spacingAndGlyphs" textLength="8" x="1067.3864" y="799.7689">1</text><text fill="#000000" font-family="sans-serif" font-size="13" lengthAdjust="spacingAndGlyphs" textLength="23" x="966.1766" y="983.7807">1..*</text><!--link HTTPMSGSchema to HTTPRequest--><path d="M402.84,909.33 C415,929.44 427.17,949.58 438.64,968.54 " fill="none" id="HTTPMSGSchema-HTTPRequest" style="stroke: #A80036; stroke-width: 1.0;"/><polygon fill="none" points="396.78,912.84,392.42,892.1,408.76,905.59,396.78,912.84" style="stroke: #A80036; stroke-width: 1.0;"/><!--link HTTPMSGSchema to HTTPResponse--><path d="M591.36,891.63 C644.83,907.72 666.63,895.41 707,922 C728.15,935.93 747.09,954.95 763.28,974.85 " fill="none" id="HTTPMSGSchema-HTTPResponse" style="stroke: #A80036; stroke-width: 1.0;"/><polygon fill="none" points="589.05,898.24,572.38,885.16,593.57,884.99,589.05,898.24" style="stroke: #A80036; stroke-width: 1.0;"/><!--
@startuml
package butterfly #DDDDDD
{

class Socket
{
    - _socketDomain, _socketType, _socketProtocol: int
    # _fd: int
    # _addr: sockaddr_in

    + Socket(int domain, int type, int protocol)
    + Socket(int fileDescriptor, int domain, int type, int protocol)

    + getFileDescriptor() const: int
    + shutdown() const: bool
    + setOptions() const: bool
    + setBlocking() const: bool
    + setNonBlocking() const: bool

    + bind(unsigned int port): bool
    + listen() const: bool
    + accept(): std::shared_ptr<Socket>
    + connect(const std::string& host, const int port): bool
    + disconnect() const: bool
}

class TCPSocket
{

    + TCPSocket()
    + TCPSocket(int fileDescriptor)

    + accept(): std::shared_ptr<TCPSocket>
    + send(const std::string& s) const: bool
    + recv(char *buf,int len) const: int
    + recvAll(int chunkSize) const: std::string
}


class HTTPServer
{
    - _port: unsigned int port
    - _running: bool
    - _TCPSocket, _newTCPSocket: std::shared_ptr<TCPSocket>
    - _httpRequest: std::unique_ptr<HTTPRequest>

    + HTTPServer(unsigned int port)

    - handleRequest():
    - recvRequest():
    - processRequest():
    - preprareResponse():
    - sendResponse():

    +run(): void
    +stop(): void
}

class HTTPClient <<NOT IMPLEMENTED>>
{

    + HTTPClient()
}

class HTTPMSGSchema
{
    - _data, _body, _messageType: std::string
    - _httpMethod: Method
    - _protocol: Protocol
    - _httpHeaders: std::vector< std::pair<std::string, std::string> >

    + HTTPMSGSchema(const std::string &messageType)

    + print() const: void
    + addHTTPData(const std::string &data): void
    + getHTTPData() const: std::string
    + setProtocol(Protocol protocol): void
    + getProtocol() const: Protocol
    + addBody(const std::string &body)
    + getBody() const: std::string
    + setHTTPHeader(const std::string &headerName, const std::string &headerContent): void
    + getHTTPHeader(const std::string &headerName) const: std::string
    + getHTTPHeaderSize() const: size_t

    + parseIncoming() = 0: void
    + prepareOutgoing() = 0: void
}

class HTTPRequest
{
    - _url, _userAgent: std::string

    + HTTPRequest()

    + setMethod(Method &method): void
    + getMethod() const: Method
    + setURL(const std::string &url): void
    + getURL() const: std::string
    + setUserAgent(const std::string &userAgent): void
    + getUserAgent() const: std::string
    + getRequestSize() const: size_t

    + parseIncoming(): void
    + prepareOutgoing(): void
}

class HTTPResponse
{
    - _reasonPhrase: std::string
    - _statusCode: size_t

    + HTTPResponse()

    + setStatusCode(size_t statusCode): void
    + getStatusCode() const: size_t
    + setReasonPhrase(size_t statusCode): void
    + getReasonPhrase() const: std::string
    + getResponseSize() const: size_t

    + parseIncoming(): void
    + prepareOutgoing(): void
}

together {
    class HTTPServer
    class HTTPClient
}

Socket            <|- - TCPSocket
TCPSocket "1..*"  o- -  "1" HTTPServer : <<uses>>
TCPSocket "1..*"  o- -  "1" HTTPClient : <<uses>>

HTTPServer "1"    - -* "1..*" HTTPRequest: <<processes>>
HTTPServer "1"    - -* "1..*" HTTPResponse: <<sends>>

HTTPClient "1"    - -* "1..*" HTTPRequest: <<sends>>
HTTPClient "1"    - -* "1..*" HTTPResponse: <<processes>>

HTTPMSGSchema <|- - HTTPRequest
HTTPMSGSchema <|- - HTTPResponse

}
@enduml

PlantUML version 1.2018.13(Mon Nov 26 18:11:51 CET 2018)
(GPL source distribution)
Java Runtime: OpenJDK Runtime Environment
JVM: OpenJDK 64-Bit Server VM
Java Version: 11.0.11+9-Ubuntu-0ubuntu2.20.04
Operating System: Linux
OS Version: 5.11.0-38-generic
Default Encoding: UTF-8
Language: de
Country: DE
--></g></svg>