<?xml version="1.0" encoding="UTF-8" standalone="no"?><svg xmlns="http://www.w3.org/2000/svg" xmlns:xlink="http://www.w3.org/1999/xlink" contentScriptType="application/ecmascript" contentStyleType="text/css" height="994px" preserveAspectRatio="none" style="width:438px;height:994px;" version="1.1" viewBox="0 0 438 994" width="438px" zoomAndPan="magnify"><defs><filter height="300%" id="f1tb8hmz6omwr0" width="300%" x="-1" y="-1"><feGaussianBlur result="blurOut" stdDeviation="2.0"/><feColorMatrix in="blurOut" result="blurOut2" type="matrix" values="0 0 0 0 0 0 0 0 0 0 0 0 0 0 0 0 0 0 .4 0"/><feOffset dx="4.0" dy="4.0" in="blurOut2" result="blurOut3"/><feBlend in="SourceGraphic" in2="blurOut3" mode="normal"/></filter></defs><g><!--cluster butterfly--><polygon fill="#DDDDDD" filter="url(#f1tb8hmz6omwr0)" points="22,24,96,24,103,46.2969,416,46.2969,416,982,22,982,22,24" style="stroke: #000000; stroke-width: 1.5;"/><line style="stroke: #000000; stroke-width: 1.5;" x1="22" x2="103" y1="46.2969" y2="46.2969"/><text fill="#000000" font-family="sans-serif" font-size="14" font-weight="bold" lengthAdjust="spacingAndGlyphs" textLength="68" x="26" y="38.9951">butterfly</text><!--class Socket--><rect fill="#FEFECE" filter="url(#f1tb8hmz6omwr0)" height="265.6797" id="Socket" style="stroke: #A80036; stroke-width: 1.5;" width="356" x="41" y="59"/><ellipse cx="193.25" cy="75" fill="#ADD1B2" rx="11" ry="11" style="stroke: #A80036; stroke-width: 1.0;"/><path d="M196.2188,80.6406 Q195.6406,80.9375 195,81.0781 Q194.3594,81.2344 193.6563,81.2344 Q191.1563,81.2344 189.8281,79.5938 Q188.5156,77.9375 188.5156,74.8125 Q188.5156,71.6875 189.8281,70.0313 Q191.1563,68.375 193.6563,68.375 Q194.3594,68.375 195,68.5313 Q195.6563,68.6875 196.2188,68.9844 L196.2188,71.7031 Q195.5938,71.125 195,70.8594 Q194.4063,70.5781 193.7813,70.5781 Q192.4375,70.5781 191.75,71.6563 Q191.0625,72.7188 191.0625,74.8125 Q191.0625,76.9063 191.75,77.9844 Q192.4375,79.0469 193.7813,79.0469 Q194.4063,79.0469 195,78.7813 Q195.5938,78.5 196.2188,77.9219 L196.2188,80.6406 Z "/><text fill="#000000" font-family="sans-serif" font-size="12" lengthAdjust="spacingAndGlyphs" textLength="43" x="213.75" y="79.1543">Socket</text><line style="stroke: #A80036; stroke-width: 1.5;" x1="42" x2="396" y1="91" y2="91"/><rect fill="none" height="6" style="stroke: #C82930; stroke-width: 1.0;" width="6" x="49" y="99.9023"/><text fill="#000000" font-family="sans-serif" font-size="11" lengthAdjust="spacingAndGlyphs" textLength="283" x="61" y="105.2104">_socketDomain, _socketType, _socketProtocol: int</text><polygon fill="none" points="52,110.707,56,114.707,52,118.707,48,114.707" style="stroke: #B38D22; stroke-width: 1.0;"/><text fill="#000000" font-family="sans-serif" font-size="11" lengthAdjust="spacingAndGlyphs" textLength="39" x="61" y="118.0151">_fd: int</text><polygon fill="none" points="52,123.5117,56,127.5117,52,131.5117,48,127.5117" style="stroke: #B38D22; stroke-width: 1.0;"/><text fill="#000000" font-family="sans-serif" font-size="11" lengthAdjust="spacingAndGlyphs" textLength="103" x="61" y="130.8198">_addr: sockadd_in</text><line style="stroke: #A80036; stroke-width: 1.5;" x1="42" x2="396" y1="137.4141" y2="137.4141"/><ellipse cx="52" cy="149.3164" fill="#84BE84" rx="3" ry="3" style="stroke: #038048; stroke-width: 1.0;"/><text fill="#000000" font-family="sans-serif" font-size="11" lengthAdjust="spacingAndGlyphs" textLength="228" x="61" y="151.6245">Socket(int domain, int type, int protocol)</text><ellipse cx="52" cy="162.1211" fill="#84BE84" rx="3" ry="3" style="stroke: #038048; stroke-width: 1.0;"/><text fill="#000000" font-family="sans-serif" font-size="11" lengthAdjust="spacingAndGlyphs" textLength="330" x="61" y="164.4292">Socket(int fileDescriptor, int domain, int type, int protocol)</text><text fill="#000000" font-family="sans-serif" font-size="11" lengthAdjust="spacingAndGlyphs" textLength="0" x="65" y="177.2339"/><ellipse cx="52" cy="187.7305" fill="#84BE84" rx="3" ry="3" style="stroke: #038048; stroke-width: 1.0;"/><text fill="#000000" font-family="sans-serif" font-size="11" lengthAdjust="spacingAndGlyphs" textLength="161" x="61" y="190.0386">getFileDescriptor() const: int</text><ellipse cx="52" cy="200.5352" fill="#84BE84" rx="3" ry="3" style="stroke: #038048; stroke-width: 1.0;"/><text fill="#000000" font-family="sans-serif" font-size="11" lengthAdjust="spacingAndGlyphs" textLength="130" x="61" y="202.8433">shutdown() const: bool</text><ellipse cx="52" cy="213.3398" fill="#84BE84" rx="3" ry="3" style="stroke: #038048; stroke-width: 1.0;"/><text fill="#000000" font-family="sans-serif" font-size="11" lengthAdjust="spacingAndGlyphs" textLength="137" x="61" y="215.6479">setOptions() const: bool</text><ellipse cx="52" cy="226.1445" fill="#84BE84" rx="3" ry="3" style="stroke: #038048; stroke-width: 1.0;"/><text fill="#000000" font-family="sans-serif" font-size="11" lengthAdjust="spacingAndGlyphs" textLength="140" x="61" y="228.4526">setBlocking() const: bool</text><ellipse cx="52" cy="238.9492" fill="#84BE84" rx="3" ry="3" style="stroke: #038048; stroke-width: 1.0;"/><text fill="#000000" font-family="sans-serif" font-size="11" lengthAdjust="spacingAndGlyphs" textLength="162" x="61" y="241.2573">setNonBlocking() const: bool</text><text fill="#000000" font-family="sans-serif" font-size="11" lengthAdjust="spacingAndGlyphs" textLength="0" x="65" y="254.062"/><ellipse cx="52" cy="264.5586" fill="#84BE84" rx="3" ry="3" style="stroke: #038048; stroke-width: 1.0;"/><text fill="#000000" font-family="sans-serif" font-size="11" lengthAdjust="spacingAndGlyphs" textLength="161" x="61" y="266.8667">bind(unsigned int port): bool</text><ellipse cx="52" cy="277.3633" fill="#84BE84" rx="3" ry="3" style="stroke: #038048; stroke-width: 1.0;"/><text fill="#000000" font-family="sans-serif" font-size="11" lengthAdjust="spacingAndGlyphs" textLength="106" x="61" y="279.6714">listen() const: bool</text><ellipse cx="52" cy="290.168" fill="#84BE84" rx="3" ry="3" style="stroke: #038048; stroke-width: 1.0;"/><text fill="#000000" font-family="sans-serif" font-size="11" lengthAdjust="spacingAndGlyphs" textLength="197" x="61" y="292.4761">accept(): std::shared_ptr&lt;Socket&gt;</text><ellipse cx="52" cy="302.9727" fill="#84BE84" rx="3" ry="3" style="stroke: #038048; stroke-width: 1.0;"/><text fill="#000000" font-family="sans-serif" font-size="11" lengthAdjust="spacingAndGlyphs" textLength="301" x="61" y="305.2808">connect(const std::string&amp; host, const int port): bool</text><ellipse cx="52" cy="315.7773" fill="#84BE84" rx="3" ry="3" style="stroke: #038048; stroke-width: 1.0;"/><text fill="#000000" font-family="sans-serif" font-size="11" lengthAdjust="spacingAndGlyphs" textLength="136" x="61" y="318.0854">disconnect() const: bool</text><!--class TCPSocket--><rect fill="#FEFECE" filter="url(#f1tb8hmz6omwr0)" height="137.6328" id="TCPSocket" style="stroke: #A80036; stroke-width: 1.5;" width="247" x="95.5" y="386"/><ellipse cx="181.75" cy="402" fill="#ADD1B2" rx="11" ry="11" style="stroke: #A80036; stroke-width: 1.0;"/><path d="M184.7188,407.6406 Q184.1406,407.9375 183.5,408.0781 Q182.8594,408.2344 182.1563,408.2344 Q179.6563,408.2344 178.3281,406.5938 Q177.0156,404.9375 177.0156,401.8125 Q177.0156,398.6875 178.3281,397.0313 Q179.6563,395.375 182.1563,395.375 Q182.8594,395.375 183.5,395.5313 Q184.1563,395.6875 184.7188,395.9844 L184.7188,398.7031 Q184.0938,398.125 183.5,397.8594 Q182.9063,397.5781 182.2813,397.5781 Q180.9375,397.5781 180.25,398.6563 Q179.5625,399.7188 179.5625,401.8125 Q179.5625,403.9063 180.25,404.9844 Q180.9375,406.0469 182.2813,406.0469 Q182.9063,406.0469 183.5,405.7813 Q184.0938,405.5 184.7188,404.9219 L184.7188,407.6406 Z "/><text fill="#000000" font-family="sans-serif" font-size="12" lengthAdjust="spacingAndGlyphs" textLength="66" x="202.25" y="406.1543">TCPSocket</text><line style="stroke: #A80036; stroke-width: 1.5;" x1="96.5" x2="341.5" y1="418" y2="418"/><line style="stroke: #A80036; stroke-width: 1.5;" x1="96.5" x2="341.5" y1="426" y2="426"/><ellipse cx="106.5" cy="437.9023" fill="#84BE84" rx="3" ry="3" style="stroke: #038048; stroke-width: 1.0;"/><text fill="#000000" font-family="sans-serif" font-size="11" lengthAdjust="spacingAndGlyphs" textLength="68" x="115.5" y="440.2104">TCPSocket()</text><ellipse cx="106.5" cy="450.707" fill="#84BE84" rx="3" ry="3" style="stroke: #038048; stroke-width: 1.0;"/><text fill="#000000" font-family="sans-serif" font-size="11" lengthAdjust="spacingAndGlyphs" textLength="162" x="115.5" y="453.0151">TCPSocket(int fileDescriptor)</text><text fill="#000000" font-family="sans-serif" font-size="11" lengthAdjust="spacingAndGlyphs" textLength="0" x="119.5" y="465.8198"/><ellipse cx="106.5" cy="476.3164" fill="#84BE84" rx="3" ry="3" style="stroke: #038048; stroke-width: 1.0;"/><text fill="#000000" font-family="sans-serif" font-size="11" lengthAdjust="spacingAndGlyphs" textLength="219" x="115.5" y="478.6245">accept(): std::shared_ptr&lt;TCPSocket&gt;</text><ellipse cx="106.5" cy="489.1211" fill="#84BE84" rx="3" ry="3" style="stroke: #038048; stroke-width: 1.0;"/><text fill="#000000" font-family="sans-serif" font-size="11" lengthAdjust="spacingAndGlyphs" textLength="218" x="115.5" y="491.4292">send(const std::string&amp; s) const: bool</text><ellipse cx="106.5" cy="501.9258" fill="#84BE84" rx="3" ry="3" style="stroke: #038048; stroke-width: 1.0;"/><text fill="#000000" font-family="sans-serif" font-size="11" lengthAdjust="spacingAndGlyphs" textLength="181" x="115.5" y="504.2339">recv(char *buf,int len) const: int</text><ellipse cx="106.5" cy="514.7305" fill="#84BE84" rx="3" ry="3" style="stroke: #038048; stroke-width: 1.0;"/><text fill="#000000" font-family="sans-serif" font-size="11" lengthAdjust="spacingAndGlyphs" textLength="221" x="115.5" y="517.0386">recvAll(int chunkSize) const: std::string</text><!--class HTTPServer--><rect fill="#FEFECE" filter="url(#f1tb8hmz6omwr0)" height="227.2656" id="HTTPServer" style="stroke: #A80036; stroke-width: 1.5;" width="363" x="37.5" y="601"/><ellipse cx="179.25" cy="617" fill="#ADD1B2" rx="11" ry="11" style="stroke: #A80036; stroke-width: 1.0;"/><path d="M182.2188,622.6406 Q181.6406,622.9375 181,623.0781 Q180.3594,623.2344 179.6563,623.2344 Q177.1563,623.2344 175.8281,621.5938 Q174.5156,619.9375 174.5156,616.8125 Q174.5156,613.6875 175.8281,612.0313 Q177.1563,610.375 179.6563,610.375 Q180.3594,610.375 181,610.5313 Q181.6563,610.6875 182.2188,610.9844 L182.2188,613.7031 Q181.5938,613.125 181,612.8594 Q180.4063,612.5781 179.7813,612.5781 Q178.4375,612.5781 177.75,613.6563 Q177.0625,614.7188 177.0625,616.8125 Q177.0625,618.9063 177.75,619.9844 Q178.4375,621.0469 179.7813,621.0469 Q180.4063,621.0469 181,620.7813 Q181.5938,620.5 182.2188,619.9219 L182.2188,622.6406 Z "/><text fill="#000000" font-family="sans-serif" font-size="12" lengthAdjust="spacingAndGlyphs" textLength="71" x="199.75" y="621.1543">HTTPServer</text><line style="stroke: #A80036; stroke-width: 1.5;" x1="38.5" x2="399.5" y1="633" y2="633"/><rect fill="none" height="6" style="stroke: #C82930; stroke-width: 1.0;" width="6" x="45.5" y="641.9023"/><text fill="#000000" font-family="sans-serif" font-size="11" lengthAdjust="spacingAndGlyphs" textLength="134" x="57.5" y="647.2104">_port: unsigned int port</text><rect fill="none" height="6" style="stroke: #C82930; stroke-width: 1.0;" width="6" x="45.5" y="654.707"/><text fill="#000000" font-family="sans-serif" font-size="11" lengthAdjust="spacingAndGlyphs" textLength="81" x="57.5" y="660.0151">_running: bool</text><rect fill="none" height="6" style="stroke: #C82930; stroke-width: 1.0;" width="6" x="45.5" y="667.5117"/><text fill="#000000" font-family="sans-serif" font-size="11" lengthAdjust="spacingAndGlyphs" textLength="337" x="57.5" y="672.8198">_TCPSocket, _newTCPSocket: std::shared_ptr&lt;TCPSocket&gt;</text><line style="stroke: #A80036; stroke-width: 1.5;" x1="38.5" x2="399.5" y1="679.4141" y2="679.4141"/><ellipse cx="48.5" cy="691.3164" fill="#84BE84" rx="3" ry="3" style="stroke: #038048; stroke-width: 1.0;"/><text fill="#000000" font-family="sans-serif" font-size="11" lengthAdjust="spacingAndGlyphs" textLength="172" x="57.5" y="693.6245">HTTPServer(unsigned int port)</text><text fill="#000000" font-family="sans-serif" font-size="11" lengthAdjust="spacingAndGlyphs" textLength="0" x="61.5" y="706.4292"/><rect fill="#F24D5C" height="6" style="stroke: #C82930; stroke-width: 1.0;" width="6" x="45.5" y="713.9258"/><text fill="#000000" font-family="sans-serif" font-size="11" lengthAdjust="spacingAndGlyphs" textLength="96" x="57.5" y="719.2339">handleRequest():</text><rect fill="#F24D5C" height="6" style="stroke: #C82930; stroke-width: 1.0;" width="6" x="45.5" y="726.7305"/><text fill="#000000" font-family="sans-serif" font-size="11" lengthAdjust="spacingAndGlyphs" textLength="82" x="57.5" y="732.0386">recvRequest():</text><rect fill="#F24D5C" height="6" style="stroke: #C82930; stroke-width: 1.0;" width="6" x="45.5" y="739.5352"/><text fill="#000000" font-family="sans-serif" font-size="11" lengthAdjust="spacingAndGlyphs" textLength="91" x="57.5" y="744.8433">parseRequest():</text><rect fill="#F24D5C" height="6" style="stroke: #C82930; stroke-width: 1.0;" width="6" x="45.5" y="752.3398"/><text fill="#000000" font-family="sans-serif" font-size="11" lengthAdjust="spacingAndGlyphs" textLength="104" x="57.5" y="757.6479">processRequest():</text><rect fill="#F24D5C" height="6" style="stroke: #C82930; stroke-width: 1.0;" width="6" x="45.5" y="765.1445"/><text fill="#000000" font-family="sans-serif" font-size="11" lengthAdjust="spacingAndGlyphs" textLength="118" x="57.5" y="770.4526">preprareResponse():</text><rect fill="#F24D5C" height="6" style="stroke: #C82930; stroke-width: 1.0;" width="6" x="45.5" y="777.9492"/><text fill="#000000" font-family="sans-serif" font-size="11" lengthAdjust="spacingAndGlyphs" textLength="96" x="57.5" y="783.2573">sendResponse():</text><text fill="#000000" font-family="sans-serif" font-size="11" lengthAdjust="spacingAndGlyphs" textLength="0" x="61.5" y="796.062"/><ellipse cx="48.5" cy="806.5586" fill="#84BE84" rx="3" ry="3" style="stroke: #038048; stroke-width: 1.0;"/><text fill="#000000" font-family="sans-serif" font-size="11" lengthAdjust="spacingAndGlyphs" textLength="58" x="57.5" y="808.8667">run(): void</text><ellipse cx="48.5" cy="819.3633" fill="#84BE84" rx="3" ry="3" style="stroke: #038048; stroke-width: 1.0;"/><text fill="#000000" font-family="sans-serif" font-size="11" lengthAdjust="spacingAndGlyphs" textLength="64" x="57.5" y="821.6714">stop(): void</text><!--class HTTPRequest--><rect fill="#FEFECE" filter="url(#f1tb8hmz6omwr0)" height="60.8047" id="HTTPRequest" style="stroke: #A80036; stroke-width: 1.5;" width="115" x="81.5" y="905"/><ellipse cx="96.5" cy="921" fill="#ADD1B2" rx="11" ry="11" style="stroke: #A80036; stroke-width: 1.0;"/><path d="M99.4688,926.6406 Q98.8906,926.9375 98.25,927.0781 Q97.6094,927.2344 96.9063,927.2344 Q94.4063,927.2344 93.0781,925.5938 Q91.7656,923.9375 91.7656,920.8125 Q91.7656,917.6875 93.0781,916.0313 Q94.4063,914.375 96.9063,914.375 Q97.6094,914.375 98.25,914.5313 Q98.9063,914.6875 99.4688,914.9844 L99.4688,917.7031 Q98.8438,917.125 98.25,916.8594 Q97.6563,916.5781 97.0313,916.5781 Q95.6875,916.5781 95,917.6563 Q94.3125,918.7188 94.3125,920.8125 Q94.3125,922.9063 95,923.9844 Q95.6875,925.0469 97.0313,925.0469 Q97.6563,925.0469 98.25,924.7813 Q98.8438,924.5 99.4688,923.9219 L99.4688,926.6406 Z "/><text fill="#000000" font-family="sans-serif" font-size="12" lengthAdjust="spacingAndGlyphs" textLength="83" x="110.5" y="925.1543">HTTPRequest</text><line style="stroke: #A80036; stroke-width: 1.5;" x1="82.5" x2="195.5" y1="937" y2="937"/><line style="stroke: #A80036; stroke-width: 1.5;" x1="82.5" x2="195.5" y1="945" y2="945"/><ellipse cx="92.5" cy="956.9023" fill="#84BE84" rx="3" ry="3" style="stroke: #038048; stroke-width: 1.0;"/><text fill="#000000" font-family="sans-serif" font-size="11" lengthAdjust="spacingAndGlyphs" textLength="83" x="101.5" y="959.2104">HTTPRequest()</text><!--class HTTPResponse--><rect fill="#FEFECE" filter="url(#f1tb8hmz6omwr0)" height="60.8047" id="HTTPResponse" style="stroke: #A80036; stroke-width: 1.5;" width="125" x="231.5" y="905"/><ellipse cx="246.5" cy="921" fill="#ADD1B2" rx="11" ry="11" style="stroke: #A80036; stroke-width: 1.0;"/><path d="M249.4688,926.6406 Q248.8906,926.9375 248.25,927.0781 Q247.6094,927.2344 246.9063,927.2344 Q244.4063,927.2344 243.0781,925.5938 Q241.7656,923.9375 241.7656,920.8125 Q241.7656,917.6875 243.0781,916.0313 Q244.4063,914.375 246.9063,914.375 Q247.6094,914.375 248.25,914.5313 Q248.9063,914.6875 249.4688,914.9844 L249.4688,917.7031 Q248.8438,917.125 248.25,916.8594 Q247.6563,916.5781 247.0313,916.5781 Q245.6875,916.5781 245,917.6563 Q244.3125,918.7188 244.3125,920.8125 Q244.3125,922.9063 245,923.9844 Q245.6875,925.0469 247.0313,925.0469 Q247.6563,925.0469 248.25,924.7813 Q248.8438,924.5 249.4688,923.9219 L249.4688,926.6406 Z "/><text fill="#000000" font-family="sans-serif" font-size="12" lengthAdjust="spacingAndGlyphs" textLength="93" x="260.5" y="925.1543">HTTPResponse</text><line style="stroke: #A80036; stroke-width: 1.5;" x1="232.5" x2="355.5" y1="937" y2="937"/><line style="stroke: #A80036; stroke-width: 1.5;" x1="232.5" x2="355.5" y1="945" y2="945"/><ellipse cx="242.5" cy="956.9023" fill="#84BE84" rx="3" ry="3" style="stroke: #038048; stroke-width: 1.0;"/><text fill="#000000" font-family="sans-serif" font-size="11" lengthAdjust="spacingAndGlyphs" textLength="93" x="251.5" y="959.2104">HTTPResponse()</text><!--link Socket to TCPSocket--><path d="M219,345.11 C219,359.2 219,372.95 219,385.67 " fill="none" id="Socket-TCPSocket" style="stroke: #A80036; stroke-width: 1.0;"/><polygon fill="none" points="212,345.03,219,325.03,226,345.03,212,345.03" style="stroke: #A80036; stroke-width: 1.0;"/><!--link TCPSocket to HTTPServer--><path d="M219,537.53 C219,557.55 219,579.32 219,600.52 " fill="none" id="TCPSocket-HTTPServer" style="stroke: #A80036; stroke-width: 1.0;"/><polygon fill="#FFFFFF" points="219,524.33,215,530.33,219,536.33,223,530.33,219,524.33" style="stroke: #A80036; stroke-width: 1.0;"/><text fill="#000000" font-family="sans-serif" font-size="13" lengthAdjust="spacingAndGlyphs" textLength="30" x="220" y="567.0669">uses</text><text fill="#000000" font-family="sans-serif" font-size="13" lengthAdjust="spacingAndGlyphs" textLength="23" x="194.9039" y="543.7436">1..*</text><text fill="#000000" font-family="sans-serif" font-size="13" lengthAdjust="spacingAndGlyphs" textLength="8" x="210.7438" y="589.8003">1</text><!--link HTTPServer to HTTPRequest--><path d="M177.83,828.21 C169.47,851.09 161.18,873.78 154.42,892.29 " fill="none" id="HTTPServer-HTTPRequest" style="stroke: #A80036; stroke-width: 1.0;"/><polygon fill="#A80036" points="149.9,904.67,155.7144,900.4048,154.0136,893.3971,148.1992,897.6623,149.9,904.67" style="stroke: #A80036; stroke-width: 1.0;"/><text fill="#000000" font-family="sans-serif" font-size="13" lengthAdjust="spacingAndGlyphs" textLength="81" x="165" y="871.0669">«processes»</text><text fill="#000000" font-family="sans-serif" font-size="13" lengthAdjust="spacingAndGlyphs" textLength="8" x="166.7951" y="848.4162">1</text><text fill="#000000" font-family="sans-serif" font-size="13" lengthAdjust="spacingAndGlyphs" textLength="23" x="126.7763" y="893.8652">1..*</text><!--link HTTPServer to HTTPResponse--><path d="M257.6,828.21 C265.43,851.09 273.21,873.78 279.54,892.29 " fill="none" id="HTTPServer-HTTPResponse" style="stroke: #A80036; stroke-width: 1.0;"/><polygon fill="#A80036" points="283.79,904.67,285.6293,897.6974,279.9005,893.3178,278.0612,900.2904,283.79,904.67" style="stroke: #A80036; stroke-width: 1.0;"/><text fill="#000000" font-family="sans-serif" font-size="13" lengthAdjust="spacingAndGlyphs" textLength="54" x="272" y="871.0669">«sends»</text><text fill="#000000" font-family="sans-serif" font-size="13" lengthAdjust="spacingAndGlyphs" textLength="8" x="251.9247" y="848.4162">1</text><text fill="#000000" font-family="sans-serif" font-size="13" lengthAdjust="spacingAndGlyphs" textLength="23" x="256.3123" y="893.8652">1..*</text><!--
@startuml
package butterfly #DDDDDD
{

class Socket
{
    - _socketDomain, _socketType, _socketProtocol: int
    #_fd: int
    #_addr: sockadd_in

    +Socket(int domain, int type, int protocol)
    +Socket(int fileDescriptor, int domain, int type, int protocol)

    +getFileDescriptor() const: int
    +shutdown() const: bool
    +setOptions() const: bool
    +setBlocking() const: bool
    +setNonBlocking() const: bool

    +bind(unsigned int port): bool
    +listen() const: bool
    +accept(): std::shared_ptr<Socket>
    +connect(const std::string& host, const int port): bool
    +disconnect() const: bool
}

class TCPSocket
{

    +TCPSocket()
    +TCPSocket(int fileDescriptor)

    +accept(): std::shared_ptr<TCPSocket>
    +send(const std::string& s) const: bool
    +recv(char *buf,int len) const: int
    +recvAll(int chunkSize) const: std::string
}

class HTTPServer
{
    - _port: unsigned int port
    -_running: bool
    - _TCPSocket, _newTCPSocket: std::shared_ptr<TCPSocket>
    +HTTPServer(unsigned int port)

    -handleRequest():
    -recvRequest():
    -parseRequest():
    -processRequest():
    -preprareResponse():
    -sendResponse():

    +run(): void
    +stop(): void
}

class HTTPRequest
{

    +HTTPRequest()
}

class HTTPResponse
{

    +HTTPResponse()
}

Socket            <|- - TCPSocket
TCPSocket "1..*"  o- -  "1" HTTPServer : uses

HTTPServer "1"    - -* "1..*" HTTPRequest: <<processes>>
HTTPServer "1"    - -* "1..*" HTTPResponse: <<sends>>

}
@enduml

PlantUML version 1.2018.13(Mon Nov 26 18:11:51 CET 2018)
(GPL source distribution)
Java Runtime: OpenJDK Runtime Environment
JVM: OpenJDK 64-Bit Server VM
Java Version: 11.0.11+9-Ubuntu-0ubuntu2.20.04
Operating System: Linux
OS Version: 5.11.0-37-generic
Default Encoding: UTF-8
Language: de
Country: DE
--></g></svg>