<?xml version="1.0" encoding="UTF-8" standalone="no"?><svg xmlns="http://www.w3.org/2000/svg" xmlns:xlink="http://www.w3.org/1999/xlink" contentScriptType="application/ecmascript" contentStyleType="text/css" height="201px" preserveAspectRatio="none" style="width:285px;height:201px;" version="1.1" viewBox="0 0 285 201" width="285px" zoomAndPan="magnify"><defs><filter height="300%" id="fummmkpgmquzo" width="300%" x="-1" y="-1"><feGaussianBlur result="blurOut" stdDeviation="2.0"/><feColorMatrix in="blurOut" result="blurOut2" type="matrix" values="0 0 0 0 0 0 0 0 0 0 0 0 0 0 0 0 0 0 .4 0"/><feOffset dx="4.0" dy="4.0" in="blurOut2" result="blurOut3"/><feBlend in="SourceGraphic" in2="blurOut3" mode="normal"/></filter></defs><g><!--class CryptoRSA--><rect fill="#FEFECE" filter="url(#fummmkpgmquzo)" height="73.6094" id="CryptoRSA" style="stroke: #A80036; stroke-width: 1.5;" width="132" x="74" y="8"/><ellipse cx="105.2" cy="24" fill="#ADD1B2" rx="11" ry="11" style="stroke: #A80036; stroke-width: 1.0;"/><path d="M108.1688,29.6406 Q107.5906,29.9375 106.95,30.0781 Q106.3094,30.2344 105.6063,30.2344 Q103.1063,30.2344 101.7781,28.5938 Q100.4656,26.9375 100.4656,23.8125 Q100.4656,20.6875 101.7781,19.0313 Q103.1063,17.375 105.6063,17.375 Q106.3094,17.375 106.95,17.5313 Q107.6063,17.6875 108.1688,17.9844 L108.1688,20.7031 Q107.5438,20.125 106.95,19.8594 Q106.3563,19.5781 105.7313,19.5781 Q104.3875,19.5781 103.7,20.6563 Q103.0125,21.7188 103.0125,23.8125 Q103.0125,25.9063 103.7,26.9844 Q104.3875,28.0469 105.7313,28.0469 Q106.3563,28.0469 106.95,27.7813 Q107.5438,27.5 108.1688,26.9219 L108.1688,29.6406 Z "/><text fill="#000000" font-family="sans-serif" font-size="12" lengthAdjust="spacingAndGlyphs" textLength="64" x="122.8" y="28.1543">CryptoRSA</text><line style="stroke: #A80036; stroke-width: 1.5;" x1="75" x2="205" y1="40" y2="40"/><text fill="#000000" font-family="sans-serif" font-size="11" lengthAdjust="spacingAndGlyphs" textLength="60" x="80" y="54.2104">String test</text><line style="stroke: #A80036; stroke-width: 1.5;" x1="75" x2="205" y1="60.8047" y2="60.8047"/><text fill="#000000" font-family="sans-serif" font-size="11" lengthAdjust="spacingAndGlyphs" textLength="120" x="80" y="75.0151">void initPaddingSize()</text><!--class RSAEncryptor--><rect fill="#FEFECE" filter="url(#fummmkpgmquzo)" height="48" id="RSAEncryptor" style="stroke: #A80036; stroke-width: 1.5;" width="116" x="6" y="142"/><ellipse cx="21" cy="158" fill="#ADD1B2" rx="11" ry="11" style="stroke: #A80036; stroke-width: 1.0;"/><path d="M23.9688,163.6406 Q23.3906,163.9375 22.75,164.0781 Q22.1094,164.2344 21.4063,164.2344 Q18.9063,164.2344 17.5781,162.5938 Q16.2656,160.9375 16.2656,157.8125 Q16.2656,154.6875 17.5781,153.0313 Q18.9063,151.375 21.4063,151.375 Q22.1094,151.375 22.75,151.5313 Q23.4063,151.6875 23.9688,151.9844 L23.9688,154.7031 Q23.3438,154.125 22.75,153.8594 Q22.1563,153.5781 21.5313,153.5781 Q20.1875,153.5781 19.5,154.6563 Q18.8125,155.7188 18.8125,157.8125 Q18.8125,159.9063 19.5,160.9844 Q20.1875,162.0469 21.5313,162.0469 Q22.1563,162.0469 22.75,161.7813 Q23.3438,161.5 23.9688,160.9219 L23.9688,163.6406 Z "/><text fill="#000000" font-family="sans-serif" font-size="12" lengthAdjust="spacingAndGlyphs" textLength="84" x="35" y="162.1543">RSAEncryptor</text><line style="stroke: #A80036; stroke-width: 1.5;" x1="7" x2="121" y1="174" y2="174"/><line style="stroke: #A80036; stroke-width: 1.5;" x1="7" x2="121" y1="182" y2="182"/><!--class RSADecryptor--><rect fill="#FEFECE" filter="url(#fummmkpgmquzo)" height="48" id="RSADecryptor" style="stroke: #A80036; stroke-width: 1.5;" width="117" x="157.5" y="142"/><ellipse cx="172.5" cy="158" fill="#ADD1B2" rx="11" ry="11" style="stroke: #A80036; stroke-width: 1.0;"/><path d="M175.4688,163.6406 Q174.8906,163.9375 174.25,164.0781 Q173.6094,164.2344 172.9063,164.2344 Q170.4063,164.2344 169.0781,162.5938 Q167.7656,160.9375 167.7656,157.8125 Q167.7656,154.6875 169.0781,153.0313 Q170.4063,151.375 172.9063,151.375 Q173.6094,151.375 174.25,151.5313 Q174.9063,151.6875 175.4688,151.9844 L175.4688,154.7031 Q174.8438,154.125 174.25,153.8594 Q173.6563,153.5781 173.0313,153.5781 Q171.6875,153.5781 171,154.6563 Q170.3125,155.7188 170.3125,157.8125 Q170.3125,159.9063 171,160.9844 Q171.6875,162.0469 173.0313,162.0469 Q173.6563,162.0469 174.25,161.7813 Q174.8438,161.5 175.4688,160.9219 L175.4688,163.6406 Z "/><text fill="#000000" font-family="sans-serif" font-size="12" lengthAdjust="spacingAndGlyphs" textLength="85" x="186.5" y="162.1543">RSADecryptor</text><line style="stroke: #A80036; stroke-width: 1.5;" x1="158.5" x2="273.5" y1="174" y2="174"/><line style="stroke: #A80036; stroke-width: 1.5;" x1="158.5" x2="273.5" y1="182" y2="182"/><!--link CryptoRSA to RSAEncryptor--><path d="M113.6748,86.9125 C102.1109,105.3234 88.9494,126.2779 79.0804,141.9903 " fill="none" id="CryptoRSA-RSAEncryptor" style="stroke: #A80036; stroke-width: 1.0;"/><polygon fill="#A80036" points="116.5774,82.2913,108.4031,87.785,113.9179,86.5254,115.1776,92.0402,116.5774,82.2913" style="stroke: #A80036; stroke-width: 1.0;"/><!--link CryptoRSA to RSADecryptor--><path d="M166.3252,86.9125 C177.8891,105.3234 191.0506,126.2779 200.9196,141.9903 " fill="none" id="CryptoRSA-RSADecryptor" style="stroke: #A80036; stroke-width: 1.0;"/><polygon fill="#A80036" points="163.4226,82.2913,164.8224,92.0402,166.0821,86.5254,171.5969,87.785,163.4226,82.2913" style="stroke: #A80036; stroke-width: 1.0;"/><!--
@startuml
'https://plantuml.com/sequence-diagram
class CryptoRSA {
    String test
    void initPaddingSize()
}

class RSAEncryptor {
}
class RSADecryptor {
}

CryptoRSA <- - RSAEncryptor
CryptoRSA <- - RSADecryptor
@enduml

PlantUML version 1.2017.15(Mon Jul 03 18:45:34 CEST 2017)
(GPL source distribution)
Java Runtime: OpenJDK Runtime Environment
JVM: OpenJDK 64-Bit Server VM
Java Version: 11.0.10+9-Ubuntu-0ubuntu1.18.04
Operating System: Linux
OS Version: 5.4.0-67-generic
Default Encoding: UTF-8
Language: de
Country: DE
--></g></svg>