<?xml version="1.0" encoding="UTF-8" standalone="no"?><svg xmlns="http://www.w3.org/2000/svg" xmlns:xlink="http://www.w3.org/1999/xlink" contentScriptType="application/ecmascript" contentStyleType="text/css" height="563px" preserveAspectRatio="none" style="width:769px;height:563px;" version="1.1" viewBox="0 0 769 563" width="769px" zoomAndPan="magnify"><defs><filter height="300%" id="f1fvws62pikrbu" width="300%" x="-1" y="-1"><feGaussianBlur result="blurOut" stdDeviation="2.0"/><feColorMatrix in="blurOut" result="blurOut2" type="matrix" values="0 0 0 0 0 0 0 0 0 0 0 0 0 0 0 0 0 0 .4 0"/><feOffset dx="4.0" dy="4.0" in="blurOut2" result="blurOut3"/><feBlend in="SourceGraphic" in2="blurOut3" mode="normal"/></filter></defs><g><!--cluster butterfly--><polygon fill="#DDDDDD" filter="url(#f1fvws62pikrbu)" points="22,24,96,24,103,46.2969,747,46.2969,747,551,22,551,22,24" style="stroke: #000000; stroke-width: 1.5;"/><line style="stroke: #000000; stroke-width: 1.5;" x1="22" x2="103" y1="46.2969" y2="46.2969"/><text fill="#000000" font-family="sans-serif" font-size="14" font-weight="bold" lengthAdjust="spacingAndGlyphs" textLength="68" x="26" y="38.9951">butterfly</text><!--class Socket--><rect fill="#FEFECE" filter="url(#f1fvws62pikrbu)" height="278.4844" id="Socket" style="stroke: #A80036; stroke-width: 1.5;" width="393" x="321.5" y="59"/><ellipse cx="492.25" cy="75" fill="#ADD1B2" rx="11" ry="11" style="stroke: #A80036; stroke-width: 1.0;"/><path d="M495.2188,80.6406 Q494.6406,80.9375 494,81.0781 Q493.3594,81.2344 492.6563,81.2344 Q490.1563,81.2344 488.8281,79.5938 Q487.5156,77.9375 487.5156,74.8125 Q487.5156,71.6875 488.8281,70.0313 Q490.1563,68.375 492.6563,68.375 Q493.3594,68.375 494,68.5313 Q494.6563,68.6875 495.2188,68.9844 L495.2188,71.7031 Q494.5938,71.125 494,70.8594 Q493.4063,70.5781 492.7813,70.5781 Q491.4375,70.5781 490.75,71.6563 Q490.0625,72.7188 490.0625,74.8125 Q490.0625,76.9063 490.75,77.9844 Q491.4375,79.0469 492.7813,79.0469 Q493.4063,79.0469 494,78.7813 Q494.5938,78.5 495.2188,77.9219 L495.2188,80.6406 Z "/><text fill="#000000" font-family="sans-serif" font-size="12" lengthAdjust="spacingAndGlyphs" textLength="43" x="512.75" y="79.1543">Socket</text><line style="stroke: #A80036; stroke-width: 1.5;" x1="322.5" x2="713.5" y1="91" y2="91"/><rect fill="none" height="6" style="stroke: #C82930; stroke-width: 1.0;" width="6" x="329.5" y="99.9023"/><text fill="#000000" font-family="sans-serif" font-size="11" lengthAdjust="spacingAndGlyphs" textLength="283" x="341.5" y="105.2104">_socketDomain, _socketType, _socketProtocol: int</text><polygon fill="none" points="332.5,110.707,336.5,114.707,332.5,118.707,328.5,114.707" style="stroke: #B38D22; stroke-width: 1.0;"/><text fill="#000000" font-family="sans-serif" font-size="11" lengthAdjust="spacingAndGlyphs" textLength="39" x="341.5" y="118.0151">_fd: int</text><polygon fill="none" points="332.5,123.5117,336.5,127.5117,332.5,131.5117,328.5,127.5117" style="stroke: #B38D22; stroke-width: 1.0;"/><text fill="#000000" font-family="sans-serif" font-size="11" lengthAdjust="spacingAndGlyphs" textLength="108" x="341.5" y="130.8198">_addr: sockaddr_in</text><line style="stroke: #A80036; stroke-width: 1.5;" x1="322.5" x2="713.5" y1="137.4141" y2="137.4141"/><ellipse cx="332.5" cy="149.3164" fill="#84BE84" rx="3" ry="3" style="stroke: #038048; stroke-width: 1.0;"/><text fill="#000000" font-family="sans-serif" font-size="11" lengthAdjust="spacingAndGlyphs" textLength="228" x="341.5" y="151.6245">Socket(int domain, int type, int protocol)</text><ellipse cx="332.5" cy="162.1211" fill="#84BE84" rx="3" ry="3" style="stroke: #038048; stroke-width: 1.0;"/><text fill="#000000" font-family="sans-serif" font-size="11" lengthAdjust="spacingAndGlyphs" textLength="330" x="341.5" y="164.4292">Socket(int fileDescriptor, int domain, int type, int protocol)</text><text fill="#000000" font-family="sans-serif" font-size="11" lengthAdjust="spacingAndGlyphs" textLength="0" x="345.5" y="177.2339"/><ellipse cx="332.5" cy="187.7305" fill="#84BE84" rx="3" ry="3" style="stroke: #038048; stroke-width: 1.0;"/><text fill="#000000" font-family="sans-serif" font-size="11" lengthAdjust="spacingAndGlyphs" textLength="161" x="341.5" y="190.0386">getFileDescriptor() const: int</text><ellipse cx="332.5" cy="200.5352" fill="#84BE84" rx="3" ry="3" style="stroke: #038048; stroke-width: 1.0;"/><text fill="#000000" font-family="sans-serif" font-size="11" lengthAdjust="spacingAndGlyphs" textLength="130" x="341.5" y="202.8433">shutdown() const: bool</text><ellipse cx="332.5" cy="213.3398" fill="#84BE84" rx="3" ry="3" style="stroke: #038048; stroke-width: 1.0;"/><text fill="#000000" font-family="sans-serif" font-size="11" lengthAdjust="spacingAndGlyphs" textLength="137" x="341.5" y="215.6479">setOptions() const: bool</text><ellipse cx="332.5" cy="226.1445" fill="#84BE84" rx="3" ry="3" style="stroke: #038048; stroke-width: 1.0;"/><text fill="#000000" font-family="sans-serif" font-size="11" lengthAdjust="spacingAndGlyphs" textLength="140" x="341.5" y="228.4526">setBlocking() const: bool</text><ellipse cx="332.5" cy="238.9492" fill="#84BE84" rx="3" ry="3" style="stroke: #038048; stroke-width: 1.0;"/><text fill="#000000" font-family="sans-serif" font-size="11" lengthAdjust="spacingAndGlyphs" textLength="162" x="341.5" y="241.2573">setNonBlocking() const: bool</text><text fill="#000000" font-family="sans-serif" font-size="11" lengthAdjust="spacingAndGlyphs" textLength="0" x="345.5" y="254.062"/><ellipse cx="332.5" cy="264.5586" fill="#84BE84" rx="3" ry="3" style="stroke: #038048; stroke-width: 1.0;"/><text fill="#000000" font-family="sans-serif" font-size="11" lengthAdjust="spacingAndGlyphs" textLength="161" x="341.5" y="266.8667">bind(unsigned int port): bool</text><ellipse cx="332.5" cy="277.3633" fill="#84BE84" rx="3" ry="3" style="stroke: #038048; stroke-width: 1.0;"/><text fill="#000000" font-family="sans-serif" font-size="11" lengthAdjust="spacingAndGlyphs" textLength="106" x="341.5" y="279.6714">listen() const: bool</text><ellipse cx="332.5" cy="290.168" fill="#84BE84" rx="3" ry="3" style="stroke: #038048; stroke-width: 1.0;"/><text fill="#000000" font-family="sans-serif" font-size="11" lengthAdjust="spacingAndGlyphs" textLength="197" x="341.5" y="292.4761">accept(): std::shared_ptr&lt;Socket&gt;</text><ellipse cx="332.5" cy="302.9727" fill="#84BE84" rx="3" ry="3" style="stroke: #038048; stroke-width: 1.0;"/><text fill="#000000" font-family="sans-serif" font-size="11" lengthAdjust="spacingAndGlyphs" textLength="301" x="341.5" y="305.2808">connect(const std::string&amp; host, const int port): bool</text><ellipse cx="332.5" cy="315.7773" fill="#84BE84" rx="3" ry="3" style="stroke: #038048; stroke-width: 1.0;"/><text fill="#000000" font-family="sans-serif" font-size="11" lengthAdjust="spacingAndGlyphs" textLength="136" x="341.5" y="318.0854">disconnect() const: bool</text><ellipse cx="332.5" cy="328.582" fill="#84BE84" rx="3" ry="3" style="stroke: #038048; stroke-width: 1.0;"/><text fill="#000000" font-family="sans-serif" font-size="11" lengthAdjust="spacingAndGlyphs" textLength="367" x="341.5" y="330.8901">hostnameToIP(const std::string &amp;hostname, std::string &amp;ip): int</text><!--class TCPSocket--><rect fill="#FEFECE" filter="url(#f1fvws62pikrbu)" height="137.6328" id="TCPSocket" style="stroke: #A80036; stroke-width: 1.5;" width="366" x="38" y="397"/><ellipse cx="183.75" cy="413" fill="#ADD1B2" rx="11" ry="11" style="stroke: #A80036; stroke-width: 1.0;"/><path d="M186.7188,418.6406 Q186.1406,418.9375 185.5,419.0781 Q184.8594,419.2344 184.1563,419.2344 Q181.6563,419.2344 180.3281,417.5938 Q179.0156,415.9375 179.0156,412.8125 Q179.0156,409.6875 180.3281,408.0313 Q181.6563,406.375 184.1563,406.375 Q184.8594,406.375 185.5,406.5313 Q186.1563,406.6875 186.7188,406.9844 L186.7188,409.7031 Q186.0938,409.125 185.5,408.8594 Q184.9063,408.5781 184.2813,408.5781 Q182.9375,408.5781 182.25,409.6563 Q181.5625,410.7188 181.5625,412.8125 Q181.5625,414.9063 182.25,415.9844 Q182.9375,417.0469 184.2813,417.0469 Q184.9063,417.0469 185.5,416.7813 Q186.0938,416.5 186.7188,415.9219 L186.7188,418.6406 Z "/><text fill="#000000" font-family="sans-serif" font-size="12" lengthAdjust="spacingAndGlyphs" textLength="66" x="204.25" y="417.1543">TCPSocket</text><line style="stroke: #A80036; stroke-width: 1.5;" x1="39" x2="403" y1="429" y2="429"/><line style="stroke: #A80036; stroke-width: 1.5;" x1="39" x2="403" y1="437" y2="437"/><ellipse cx="49" cy="448.9023" fill="#84BE84" rx="3" ry="3" style="stroke: #038048; stroke-width: 1.0;"/><text fill="#000000" font-family="sans-serif" font-size="11" lengthAdjust="spacingAndGlyphs" textLength="68" x="58" y="451.2104">TCPSocket()</text><ellipse cx="49" cy="461.707" fill="#84BE84" rx="3" ry="3" style="stroke: #038048; stroke-width: 1.0;"/><text fill="#000000" font-family="sans-serif" font-size="11" lengthAdjust="spacingAndGlyphs" textLength="162" x="58" y="464.0151">TCPSocket(int fileDescriptor)</text><text fill="#000000" font-family="sans-serif" font-size="11" lengthAdjust="spacingAndGlyphs" textLength="0" x="62" y="476.8198"/><ellipse cx="49" cy="487.3164" fill="#84BE84" rx="3" ry="3" style="stroke: #038048; stroke-width: 1.0;"/><text fill="#000000" font-family="sans-serif" font-size="11" lengthAdjust="spacingAndGlyphs" textLength="219" x="58" y="489.6245">accept(): std::shared_ptr&lt;TCPSocket&gt;</text><ellipse cx="49" cy="500.1211" fill="#84BE84" rx="3" ry="3" style="stroke: #038048; stroke-width: 1.0;"/><text fill="#000000" font-family="sans-serif" font-size="11" lengthAdjust="spacingAndGlyphs" textLength="218" x="58" y="502.4292">send(const std::string&amp; s) const: bool</text><ellipse cx="49" cy="512.9258" fill="#84BE84" rx="3" ry="3" style="stroke: #038048; stroke-width: 1.0;"/><text fill="#000000" font-family="sans-serif" font-size="11" lengthAdjust="spacingAndGlyphs" textLength="181" x="58" y="515.2339">recv(char *buf,int len) const: int</text><ellipse cx="49" cy="525.7305" fill="#84BE84" rx="3" ry="3" style="stroke: #038048; stroke-width: 1.0;"/><text fill="#000000" font-family="sans-serif" font-size="11" lengthAdjust="spacingAndGlyphs" textLength="340" x="58" y="528.0386">recvAll(int chunkSize, bool blocking=false) const: std::string</text><!--class UDPSocket--><rect fill="#FEFECE" filter="url(#f1fvws62pikrbu)" height="66.7422" id="UDPSocket" style="stroke: #A80036; stroke-width: 1.5;" width="157" x="439.5" y="432.5"/><ellipse cx="454.5" cy="451.4688" fill="#ADD1B2" rx="11" ry="11" style="stroke: #A80036; stroke-width: 1.0;"/><path d="M457.4688,457.1094 Q456.8906,457.4063 456.25,457.5469 Q455.6094,457.7031 454.9063,457.7031 Q452.4063,457.7031 451.0781,456.0625 Q449.7656,454.4063 449.7656,451.2813 Q449.7656,448.1563 451.0781,446.5 Q452.4063,444.8438 454.9063,444.8438 Q455.6094,444.8438 456.25,445 Q456.9063,445.1563 457.4688,445.4531 L457.4688,448.1719 Q456.8438,447.5938 456.25,447.3281 Q455.6563,447.0469 455.0313,447.0469 Q453.6875,447.0469 453,448.125 Q452.3125,449.1875 452.3125,451.2813 Q452.3125,453.375 453,454.4531 Q453.6875,455.5156 455.0313,455.5156 Q455.6563,455.5156 456.25,455.25 Q456.8438,454.9688 457.4688,454.3906 L457.4688,457.1094 Z "/><text fill="#000000" font-family="sans-serif" font-size="12" font-style="italic" lengthAdjust="spacingAndGlyphs" textLength="129" x="466.5" y="448.6387">«NOT IMPLEMENTED»</text><text fill="#000000" font-family="sans-serif" font-size="12" lengthAdjust="spacingAndGlyphs" textLength="69" x="496.5" y="462.6074">UDPSocket</text><line style="stroke: #A80036; stroke-width: 1.5;" x1="440.5" x2="595.5" y1="470.4375" y2="470.4375"/><line style="stroke: #A80036; stroke-width: 1.5;" x1="440.5" x2="595.5" y1="478.4375" y2="478.4375"/><ellipse cx="450.5" cy="490.3398" fill="#84BE84" rx="3" ry="3" style="stroke: #038048; stroke-width: 1.0;"/><text fill="#000000" font-family="sans-serif" font-size="11" lengthAdjust="spacingAndGlyphs" textLength="69" x="459.5" y="492.6479">UDPSocket()</text><!--class TORSocket--><rect fill="#FEFECE" filter="url(#f1fvws62pikrbu)" height="60.8047" id="TORSocket" style="stroke: #A80036; stroke-width: 1.5;" width="99" x="631.5" y="435.5"/><ellipse cx="646.5" cy="451.5" fill="#ADD1B2" rx="11" ry="11" style="stroke: #A80036; stroke-width: 1.0;"/><path d="M649.4688,457.1406 Q648.8906,457.4375 648.25,457.5781 Q647.6094,457.7344 646.9063,457.7344 Q644.4063,457.7344 643.0781,456.0938 Q641.7656,454.4375 641.7656,451.3125 Q641.7656,448.1875 643.0781,446.5313 Q644.4063,444.875 646.9063,444.875 Q647.6094,444.875 648.25,445.0313 Q648.9063,445.1875 649.4688,445.4844 L649.4688,448.2031 Q648.8438,447.625 648.25,447.3594 Q647.6563,447.0781 647.0313,447.0781 Q645.6875,447.0781 645,448.1563 Q644.3125,449.2188 644.3125,451.3125 Q644.3125,453.4063 645,454.4844 Q645.6875,455.5469 647.0313,455.5469 Q647.6563,455.5469 648.25,455.2813 Q648.8438,455 649.4688,454.4219 L649.4688,457.1406 Z "/><text fill="#000000" font-family="sans-serif" font-size="12" lengthAdjust="spacingAndGlyphs" textLength="67" x="660.5" y="455.6543">TORSocket</text><line style="stroke: #A80036; stroke-width: 1.5;" x1="632.5" x2="729.5" y1="467.5" y2="467.5"/><line style="stroke: #A80036; stroke-width: 1.5;" x1="632.5" x2="729.5" y1="475.5" y2="475.5"/><ellipse cx="642.5" cy="487.4023" fill="#84BE84" rx="3" ry="3" style="stroke: #038048; stroke-width: 1.0;"/><text fill="#000000" font-family="sans-serif" font-size="11" lengthAdjust="spacingAndGlyphs" textLength="69" x="651.5" y="489.7104">TORSocket()</text><!--link Socket to TCPSocket--><path d="M348.69,350.63 C330.74,366.71 313.21,382.42 297.16,396.79 " fill="none" id="Socket-TCPSocket" style="stroke: #A80036; stroke-width: 1.0;"/><polygon fill="none" points="344.28,345.19,363.85,337.06,353.62,355.62,344.28,345.19" style="stroke: #A80036; stroke-width: 1.0;"/><!--link Socket to UDPSocket--><path d="M518,357.42 C518,385.81 518,412.6 518,432.34 " fill="none" id="Socket-UDPSocket" style="stroke: #A80036; stroke-width: 1.0;"/><polygon fill="none" points="511,357.06,518,337.06,525,357.06,511,357.06" style="stroke: #A80036; stroke-width: 1.0;"/><!--link Socket to TORSocket--><path d="M613.24,354.41 C632.23,385.42 650.2,414.74 662.86,435.4 " fill="none" id="Socket-TORSocket" style="stroke: #A80036; stroke-width: 1.0;"/><polygon fill="none" points="607.08,357.77,602.6,337.06,619.02,350.46,607.08,357.77" style="stroke: #A80036; stroke-width: 1.0;"/><!--
@startuml

package butterfly #DDDDDD
{

class Socket
{
    - _socketDomain, _socketType, _socketProtocol: int
    # _fd: int
    # _addr: sockaddr_in

    + Socket(int domain, int type, int protocol)
    + Socket(int fileDescriptor, int domain, int type, int protocol)

    + getFileDescriptor() const: int
    + shutdown() const: bool
    + setOptions() const: bool
    + setBlocking() const: bool
    + setNonBlocking() const: bool

    + bind(unsigned int port): bool
    + listen() const: bool
    + accept(): std::shared_ptr<Socket>
    + connect(const std::string& host, const int port): bool
    + disconnect() const: bool
    + hostnameToIP(const std::string &hostname, std::string &ip): int
}

class TCPSocket
{

    + TCPSocket()
    + TCPSocket(int fileDescriptor)

    + accept(): std::shared_ptr<TCPSocket>
    + send(const std::string& s) const: bool
    + recv(char *buf,int len) const: int
    + recvAll(int chunkSize, bool blocking=false) const: std::string
}

class UDPSocket <<NOT IMPLEMENTED>>
{
    + UDPSocket()
}

class TORSocket
{

    + TORSocket()
}

Socket            <|- - TCPSocket
Socket            <|- - UDPSocket
Socket            <|- - TORSocket

}
@enduml

PlantUML version 1.2018.13(Mon Nov 26 18:11:51 CET 2018)
(GPL source distribution)
Java Runtime: OpenJDK Runtime Environment
JVM: OpenJDK 64-Bit Server VM
Java Version: 11.0.13+8-Ubuntu-0ubuntu1.20.04
Operating System: Linux
OS Version: 5.13.0-30-generic
Default Encoding: UTF-8
Language: de
Country: DE
--></g></svg>