<?xml version="1.0" encoding="UTF-8" standalone="no"?><svg xmlns="http://www.w3.org/2000/svg" xmlns:xlink="http://www.w3.org/1999/xlink" contentScriptType="application/ecmascript" contentStyleType="text/css" height="237px" preserveAspectRatio="none" style="width:314px;height:237px;" version="1.1" viewBox="0 0 314 237" width="314px" zoomAndPan="magnify"><defs><filter height="300%" id="f1jugfltjnm7i9" width="300%" x="-1" y="-1"><feGaussianBlur result="blurOut" stdDeviation="2.0"/><feColorMatrix in="blurOut" result="blurOut2" type="matrix" values="0 0 0 0 0 0 0 0 0 0 0 0 0 0 0 0 0 0 .4 0"/><feOffset dx="4.0" dy="4.0" in="blurOut2" result="blurOut3"/><feBlend in="SourceGraphic" in2="blurOut3" mode="normal"/></filter></defs><g><!--cluster butterfly--><polygon fill="#DDDDDD" filter="url(#f1jugfltjnm7i9)" points="22,24,96,24,103,46.2969,292,46.2969,292,225,22,225,22,24" style="stroke: #000000; stroke-width: 1.5;"/><line style="stroke: #000000; stroke-width: 1.5;" x1="22" x2="103" y1="46.2969" y2="46.2969"/><text fill="#000000" font-family="sans-serif" font-size="14" font-weight="bold" lengthAdjust="spacingAndGlyphs" textLength="68" x="26" y="38.9951">butterfly</text><!--class SQLDatabase--><rect fill="#FEFECE" filter="url(#f1jugfltjnm7i9)" height="150.4375" id="SQLDatabase" style="stroke: #A80036; stroke-width: 1.5;" width="238" x="38" y="59"/><ellipse cx="110.75" cy="75" fill="#ADD1B2" rx="11" ry="11" style="stroke: #A80036; stroke-width: 1.0;"/><path d="M113.7188,80.6406 Q113.1406,80.9375 112.5,81.0781 Q111.8594,81.2344 111.1563,81.2344 Q108.6563,81.2344 107.3281,79.5938 Q106.0156,77.9375 106.0156,74.8125 Q106.0156,71.6875 107.3281,70.0313 Q108.6563,68.375 111.1563,68.375 Q111.8594,68.375 112.5,68.5313 Q113.1563,68.6875 113.7188,68.9844 L113.7188,71.7031 Q113.0938,71.125 112.5,70.8594 Q111.9063,70.5781 111.2813,70.5781 Q109.9375,70.5781 109.25,71.6563 Q108.5625,72.7188 108.5625,74.8125 Q108.5625,76.9063 109.25,77.9844 Q109.9375,79.0469 111.2813,79.0469 Q111.9063,79.0469 112.5,78.7813 Q113.0938,78.5 113.7188,77.9219 L113.7188,80.6406 Z "/><text fill="#000000" font-family="sans-serif" font-size="12" lengthAdjust="spacingAndGlyphs" textLength="84" x="131.25" y="79.1543">SQLDatabase</text><line style="stroke: #A80036; stroke-width: 1.5;" x1="39" x2="275" y1="91" y2="91"/><rect fill="none" height="6" style="stroke: #C82930; stroke-width: 1.0;" width="6" x="46" y="99.9023"/><text fill="#000000" font-family="sans-serif" font-size="11" lengthAdjust="spacingAndGlyphs" textLength="72" x="58" y="105.2104">_db: sqlite3*</text><rect fill="none" height="6" style="stroke: #C82930; stroke-width: 1.0;" width="6" x="46" y="112.707"/><text fill="#000000" font-family="sans-serif" font-size="11" lengthAdjust="spacingAndGlyphs" textLength="119" x="58" y="118.0151">_dbname: std::string</text><line style="stroke: #A80036; stroke-width: 1.5;" x1="39" x2="275" y1="124.6094" y2="124.6094"/><ellipse cx="49" cy="136.5117" fill="#84BE84" rx="3" ry="3" style="stroke: #038048; stroke-width: 1.0;"/><text fill="#000000" font-family="sans-serif" font-size="11" lengthAdjust="spacingAndGlyphs" textLength="85" x="58" y="138.8198">SQLDatabase()</text><text fill="#000000" font-family="sans-serif" font-size="11" lengthAdjust="spacingAndGlyphs" textLength="0" x="62" y="151.6245"/><ellipse cx="49" cy="162.1211" fill="#84BE84" rx="3" ry="3" style="stroke: #038048; stroke-width: 1.0;"/><text fill="#000000" font-family="sans-serif" font-size="11" lengthAdjust="spacingAndGlyphs" textLength="68" x="58" y="164.4292">open(): bool</text><ellipse cx="49" cy="174.9258" fill="#84BE84" rx="3" ry="3" style="stroke: #038048; stroke-width: 1.0;"/><text fill="#000000" font-family="sans-serif" font-size="11" lengthAdjust="spacingAndGlyphs" textLength="69" x="58" y="177.2339">close(): void</text><ellipse cx="49" cy="187.7305" fill="#84BE84" rx="3" ry="3" style="stroke: #038048; stroke-width: 1.0;"/><text fill="#000000" font-family="sans-serif" font-size="11" lengthAdjust="spacingAndGlyphs" textLength="212" x="58" y="190.0386">query(const std::string &amp;query): bool</text><ellipse cx="49" cy="200.5352" fill="#84BE84" rx="3" ry="3" style="stroke: #038048; stroke-width: 1.0;"/><text fill="#000000" font-family="sans-serif" font-size="11" lengthAdjust="spacingAndGlyphs" textLength="100" x="58" y="202.8433">print() const: void</text><!--
@startuml

package butterfly #DDDDDD
{

class SQLDatabase
{
    -_db: sqlite3*
    -_dbname: std::string

    +SQLDatabase()

    +open(): bool
    +close(): void
    +query(const std::string &query): bool
    +print() const: void
}

}
@enduml

PlantUML version 1.2018.13(Mon Nov 26 18:11:51 CET 2018)
(GPL source distribution)
Java Runtime: OpenJDK Runtime Environment
JVM: OpenJDK 64-Bit Server VM
Java Version: 11.0.11+9-Ubuntu-0ubuntu2.20.04
Operating System: Linux
OS Version: 5.11.0-27-generic
Default Encoding: UTF-8
Language: de
Country: DE
--></g></svg>