<?xml version="1.0" encoding="UTF-8" standalone="no"?><svg xmlns="http://www.w3.org/2000/svg" xmlns:xlink="http://www.w3.org/1999/xlink" contentScriptType="application/ecmascript" contentStyleType="text/css" height="66px" preserveAspectRatio="none" style="width:157px;height:66px;" version="1.1" viewBox="0 0 157 66" width="157px" zoomAndPan="magnify"><defs><filter height="300%" id="fzwqmvxpy7hil" width="300%" x="-1" y="-1"><feGaussianBlur result="blurOut" stdDeviation="2.0"/><feColorMatrix in="blurOut" result="blurOut2" type="matrix" values="0 0 0 0 0 0 0 0 0 0 0 0 0 0 0 0 0 0 .4 0"/><feOffset dx="4.0" dy="4.0" in="blurOut2" result="blurOut3"/><feBlend in="SourceGraphic" in2="blurOut3" mode="normal"/></filter></defs><g><!--entity app--><polygon fill="#FEFECE" filter="url(#fzwqmvxpy7hil)" points="6,18,16,8,72,8,72,44.2969,62,54.2969,6,54.2969,6,18" style="stroke: #000000; stroke-width: 1.5;"/><line style="stroke: #000000; stroke-width: 1.5;" x1="62" x2="71" y1="18" y2="9"/><line style="stroke: #000000; stroke-width: 1.5;" x1="6" x2="62" y1="18" y2="18"/><line style="stroke: #000000; stroke-width: 1.5;" x1="62" x2="62" y1="18" y2="54.2969"/><text fill="#000000" font-family="sans-serif" font-size="14" lengthAdjust="spacingAndGlyphs" textLength="26" x="21" y="40.9951">app</text><!--entity db--><path d="M107,18.5 C107,8.5 126,8.5 126,8.5 C126,8.5 145,8.5 145,18.5 L145,43.7969 C145,53.7969 126,53.7969 126,53.7969 C126,53.7969 107,53.7969 107,43.7969 L107,18.5 " fill="#FEFECE" filter="url(#fzwqmvxpy7hil)" style="stroke: #000000; stroke-width: 1.5;"/><path d="M107,18.5 C107,28.5 126,28.5 126,28.5 C126,28.5 145,28.5 145,18.5 " fill="none" style="stroke: #000000; stroke-width: 1.5;"/><text fill="#000000" font-family="sans-serif" font-size="14" lengthAdjust="spacingAndGlyphs" textLength="18" x="117" y="45.4951">db</text><!--link app to db--><path d="M72.3047,31 C83.7709,31 95.2371,31 106.7032,31 " fill="none" id="app-db" style="stroke: #A80036; stroke-width: 1.0;"/><!--
@startuml
node app
database db
app - db
@enduml

PlantUML version 1.2017.15(Mon Jul 03 18:45:34 CEST 2017)
(GPL source distribution)
Java Runtime: OpenJDK Runtime Environment
JVM: OpenJDK 64-Bit Server VM
Java Version: 11.0.9.1+1-Ubuntu-0ubuntu1.18.04
Operating System: Linux
OS Version: 5.4.0-60-generic
Default Encoding: UTF-8
Language: de
Country: DE
--></g></svg>