<?xml version="1.0" encoding="us-ascii" standalone="no"?><svg xmlns="http://www.w3.org/2000/svg" xmlns:xlink="http://www.w3.org/1999/xlink" contentStyleType="text/css" height="540px" preserveAspectRatio="none" style="width:670px;height:540px;background:#FFFFFF;" version="1.1" viewBox="0 0 670 540" width="670px" zoomAndPan="magnify"><defs/><g><!--cluster Butterfly--><g id="cluster_Butterfly"><rect fill="none" height="309" rx="2.5" ry="2.5" style="stroke:#181818;stroke-width:1.0;" width="657" x="7" y="106.5"/><rect fill="none" height="10" style="stroke:#181818;stroke-width:1.0;" width="15" x="644" y="111.5"/><rect fill="none" height="2" style="stroke:#181818;stroke-width:1.0;" width="4" x="642" y="113.5"/><rect fill="none" height="2" style="stroke:#181818;stroke-width:1.0;" width="4" x="642" y="117.5"/><text fill="#000000" font-family="sans-serif" font-size="14" font-weight="bold" lengthAdjust="spacing" textLength="72" x="299.5" y="132.4951">Butterfly</text></g><!--entity Encryption--><g id="elem_Encryption"><rect fill="#F1F1F1" height="46.2969" rx="2.5" ry="2.5" style="stroke:#181818;stroke-width:0.5;" width="116" x="30" y="353.5"/><rect fill="#F1F1F1" height="10" style="stroke:#181818;stroke-width:0.5;" width="15" x="126" y="358.5"/><rect fill="#F1F1F1" height="2" style="stroke:#181818;stroke-width:0.5;" width="4" x="124" y="360.5"/><rect fill="#F1F1F1" height="2" style="stroke:#181818;stroke-width:0.5;" width="4" x="124" y="364.5"/><text fill="#000000" font-family="sans-serif" font-size="14" lengthAdjust="spacing" textLength="76" x="45" y="386.4951">Encryption</text></g><!--entity Decryption--><g id="elem_Decryption"><rect fill="#F1F1F1" height="46.2969" rx="2.5" ry="2.5" style="stroke:#181818;stroke-width:0.5;" width="118" x="530" y="353.5"/><rect fill="#F1F1F1" height="10" style="stroke:#181818;stroke-width:0.5;" width="15" x="628" y="358.5"/><rect fill="#F1F1F1" height="2" style="stroke:#181818;stroke-width:0.5;" width="4" x="626" y="360.5"/><rect fill="#F1F1F1" height="2" style="stroke:#181818;stroke-width:0.5;" width="4" x="626" y="364.5"/><text fill="#000000" font-family="sans-serif" font-size="14" lengthAdjust="spacing" textLength="78" x="545" y="386.4951">Decryption</text></g><!--entity Payment--><g id="elem_Payment"><rect fill="#F1F1F1" height="46.2969" rx="2.5" ry="2.5" style="stroke:#181818;stroke-width:0.5;" width="102" x="37" y="141.5"/><rect fill="#F1F1F1" height="10" style="stroke:#181818;stroke-width:0.5;" width="15" x="119" y="146.5"/><rect fill="#F1F1F1" height="2" style="stroke:#181818;stroke-width:0.5;" width="4" x="117" y="148.5"/><rect fill="#F1F1F1" height="2" style="stroke:#181818;stroke-width:0.5;" width="4" x="117" y="152.5"/><text fill="#000000" font-family="sans-serif" font-size="14" lengthAdjust="spacing" textLength="62" x="52" y="174.4951">Payment</text></g><!--entity Visualization--><g id="elem_Visualization"><rect fill="#F1F1F1" height="46.2969" rx="2.5" ry="2.5" style="stroke:#181818;stroke-width:0.5;" width="130" x="23" y="247.5"/><rect fill="#F1F1F1" height="10" style="stroke:#181818;stroke-width:0.5;" width="15" x="133" y="252.5"/><rect fill="#F1F1F1" height="2" style="stroke:#181818;stroke-width:0.5;" width="4" x="131" y="254.5"/><rect fill="#F1F1F1" height="2" style="stroke:#181818;stroke-width:0.5;" width="4" x="131" y="258.5"/><text fill="#000000" font-family="sans-serif" font-size="14" lengthAdjust="spacing" textLength="90" x="38" y="280.4951">Visualization</text></g><!--entity Webserver--><g id="elem_Webserver"><rect fill="#F1F1F1" height="46.2969" rx="2.5" ry="2.5" style="stroke:#181818;stroke-width:0.5;" width="117" x="530.5" y="247.5"/><rect fill="#F1F1F1" height="10" style="stroke:#181818;stroke-width:0.5;" width="15" x="627.5" y="252.5"/><rect fill="#F1F1F1" height="2" style="stroke:#181818;stroke-width:0.5;" width="4" x="625.5" y="254.5"/><rect fill="#F1F1F1" height="2" style="stroke:#181818;stroke-width:0.5;" width="4" x="625.5" y="258.5"/><text fill="#000000" font-family="sans-serif" font-size="14" lengthAdjust="spacing" textLength="77" x="545.5" y="280.4951">Webserver</text></g><!--entity TorProxy--><g id="elem_TorProxy"><rect fill="#F1F1F1" height="46.2969" rx="2.5" ry="2.5" style="stroke:#181818;stroke-width:0.5;" width="103" x="188.5" y="247.5"/><rect fill="#F1F1F1" height="10" style="stroke:#181818;stroke-width:0.5;" width="15" x="271.5" y="252.5"/><rect fill="#F1F1F1" height="2" style="stroke:#181818;stroke-width:0.5;" width="4" x="269.5" y="254.5"/><rect fill="#F1F1F1" height="2" style="stroke:#181818;stroke-width:0.5;" width="4" x="269.5" y="258.5"/><text fill="#000000" font-family="sans-serif" font-size="14" lengthAdjust="spacing" textLength="63" x="203.5" y="280.4951">TorProxy</text></g><!--entity TorHiddenService--><g id="elem_TorHiddenService"><rect fill="#F1F1F1" height="46.2969" rx="2.5" ry="2.5" style="stroke:#181818;stroke-width:0.5;" width="168" x="327" y="247.5"/><rect fill="#F1F1F1" height="10" style="stroke:#181818;stroke-width:0.5;" width="15" x="475" y="252.5"/><rect fill="#F1F1F1" height="2" style="stroke:#181818;stroke-width:0.5;" width="4" x="473" y="254.5"/><rect fill="#F1F1F1" height="2" style="stroke:#181818;stroke-width:0.5;" width="4" x="473" y="258.5"/><text fill="#000000" font-family="sans-serif" font-size="14" lengthAdjust="spacing" textLength="128" x="342" y="280.4951">TorHiddenService</text></g><!--entity target--><g id="elem_target"><ellipse cx="88" cy="14" fill="#F1F1F1" rx="8" ry="8" style="stroke:#181818;stroke-width:0.5;"/><path d="M88,22 L88,49 M75,30 L101,30 M88,49 L75,64 M88,49 L101,64 " fill="none" style="stroke:#181818;stroke-width:0.5;"/><text fill="#000000" font-family="sans-serif" font-size="14" lengthAdjust="spacing" textLength="43" x="66.5" y="78.4951">target</text></g><!--entity attacker--><g id="elem_attacker"><ellipse cx="88" cy="468" fill="#F1F1F1" rx="8" ry="8" style="stroke:#181818;stroke-width:0.5;"/><path d="M88,476 L88,503 M75,484 L101,484 M88,503 L75,518 M88,503 L101,518 " fill="none" style="stroke:#181818;stroke-width:0.5;"/><text fill="#000000" font-family="sans-serif" font-size="14" lengthAdjust="spacing" textLength="59" x="58.5" y="532.4951">attacker</text></g><!--reverse link Encryption to attacker--><g id="link_Encryption_attacker"><path d="M88,405.6 C88,422.27 88,439.53 88,459.08 " fill="none" id="Encryption-backto-attacker" style="stroke:#181818;stroke-width:1.0;"/><polygon fill="#181818" points="88,399.6,84,408.6,88,404.6,92,408.6,88,399.6" style="stroke:#181818;stroke-width:1.0;"/></g><!--reverse link Visualization to Encryption--><g id="link_Visualization_Encryption"><path d="M88,299.56 C88,317.2 88,335.84 88,353.48 " fill="none" id="Visualization-backto-Encryption" style="stroke:#181818;stroke-width:1.0;"/><polygon fill="#181818" points="88,293.56,84,302.56,88,298.56,92,302.56,88,293.56" style="stroke:#181818;stroke-width:1.0;"/></g><!--link target to Payment--><g id="link_target_Payment"><path d="M88,81.5 C88,101.15 88,118.64 88,135.43 " fill="none" id="target-to-Payment" style="stroke:#181818;stroke-width:1.0;"/><polygon fill="#181818" points="88,141.43,92,132.43,88,136.43,84,132.43,88,141.43" style="stroke:#181818;stroke-width:1.0;"/></g><!--link Payment to Visualization--><g id="link_Payment_Visualization"><path d="M88,187.56 C88,205.2 88,223.84 88,241.48 " fill="none" id="Payment-to-Visualization" style="stroke:#181818;stroke-width:1.0;"/><polygon fill="#181818" points="88,247.48,92,238.48,88,242.48,84,238.48,88,247.48" style="stroke:#181818;stroke-width:1.0;"/></g><!--link Visualization to TorProxy--><g id="link_Visualization_TorProxy"><path d="M153.02,270.5 C164.79,270.5 170.57,270.5 182.35,270.5 " fill="none" id="Visualization-to-TorProxy" style="stroke:#181818;stroke-width:1.0;"/><polygon fill="#181818" points="188.35,270.5,179.35,266.5,183.35,270.5,179.35,274.5,188.35,270.5" style="stroke:#181818;stroke-width:1.0;"/></g><!--link TorProxy to TorHiddenService--><g id="link_TorProxy_TorHiddenService"><path d="M291.77,270.5 C303.41,270.5 309.06,270.5 320.7,270.5 " fill="none" id="TorProxy-to-TorHiddenService" style="stroke:#181818;stroke-width:1.0;"/><polygon fill="#181818" points="326.7,270.5,317.7,266.5,321.7,270.5,317.7,274.5,326.7,270.5" style="stroke:#181818;stroke-width:1.0;"/></g><!--link TorHiddenService to Webserver--><g id="link_TorHiddenService_Webserver"><path d="M495.13,270.5 C506.87,270.5 512.6,270.5 524.33,270.5 " fill="none" id="TorHiddenService-to-Webserver" style="stroke:#181818;stroke-width:1.0;"/><polygon fill="#181818" points="530.33,270.5,521.33,266.5,525.33,270.5,521.33,274.5,530.33,270.5" style="stroke:#181818;stroke-width:1.0;"/></g><!--link Webserver to Decryption--><g id="link_Webserver_Decryption"><path d="M589,293.56 C589,311.2 589,329.84 589,347.48 " fill="none" id="Webserver-to-Decryption" style="stroke:#181818;stroke-width:1.0;"/><polygon fill="#181818" points="589,353.48,593,344.48,589,348.48,585,344.48,589,353.48" style="stroke:#181818;stroke-width:1.0;"/></g><!--SRC=[NP0n3i8m34Ntd28Nw1KO44YCbK0mcyIWY3QfN1SH47SdaBOudMo__oD_1mm7qWnqHLRm6u0Pp0r9AHFQBdZqhDS3CzAbYVebyTORYXsxu0NSu0m5hI6sgGfoTFq0ZNl2ulq9pptIlGnm25HJUCGIxPorwFV9xGmgDINNrL2jPBX_cwLojShdwyecQSevrWmN_cBKIP_JJSq8otnBy3M9O-SsxvJV-Fu0]--></g></svg>