<?xml version="1.0" encoding="us-ascii" standalone="no"?><svg xmlns="http://www.w3.org/2000/svg" xmlns:xlink="http://www.w3.org/1999/xlink" contentStyleType="text/css" height="540px" preserveAspectRatio="none" style="width:660px;height:540px;background:#FFFFFF;" version="1.1" viewBox="0 0 660 540" width="660px" zoomAndPan="magnify"><defs/><g><!--cluster Butterfly--><g id="cluster_Butterfly"><rect fill="none" height="290" rx="2.5" ry="2.5" style="stroke:#181818;stroke-width:1.0;" width="438" x="7" y="125.5"/><rect fill="none" height="10" style="stroke:#181818;stroke-width:1.0;" width="15" x="425" y="130.5"/><rect fill="none" height="2" style="stroke:#181818;stroke-width:1.0;" width="4" x="423" y="132.5"/><rect fill="none" height="2" style="stroke:#181818;stroke-width:1.0;" width="4" x="423" y="136.5"/><text fill="#000000" font-family="sans-serif" font-size="14" font-weight="bold" lengthAdjust="spacing" textLength="72" x="240" y="151.4951">Butterfly</text></g><!--entity Encryption--><g id="elem_Encryption"><rect fill="#F1F1F1" height="46.2969" rx="2.5" ry="2.5" style="stroke:#181818;stroke-width:0.5;" width="116" x="79" y="353.5"/><rect fill="#F1F1F1" height="10" style="stroke:#181818;stroke-width:0.5;" width="15" x="175" y="358.5"/><rect fill="#F1F1F1" height="2" style="stroke:#181818;stroke-width:0.5;" width="4" x="173" y="360.5"/><rect fill="#F1F1F1" height="2" style="stroke:#181818;stroke-width:0.5;" width="4" x="173" y="364.5"/><text fill="#000000" font-family="sans-serif" font-size="14" lengthAdjust="spacing" textLength="76" x="94" y="386.4951">Encryption</text></g><!--entity Decryption--><g id="elem_Decryption"><rect fill="#F1F1F1" height="46.2969" rx="2.5" ry="2.5" style="stroke:#181818;stroke-width:0.5;" width="118" x="230" y="353.5"/><rect fill="#F1F1F1" height="10" style="stroke:#181818;stroke-width:0.5;" width="15" x="328" y="358.5"/><rect fill="#F1F1F1" height="2" style="stroke:#181818;stroke-width:0.5;" width="4" x="326" y="360.5"/><rect fill="#F1F1F1" height="2" style="stroke:#181818;stroke-width:0.5;" width="4" x="326" y="364.5"/><text fill="#000000" font-family="sans-serif" font-size="14" lengthAdjust="spacing" textLength="78" x="245" y="386.4951">Decryption</text></g><!--entity Payment--><g id="elem_Payment"><rect fill="#F1F1F1" height="46.2969" rx="2.5" ry="2.5" style="stroke:#181818;stroke-width:0.5;" width="102" x="79" y="141.5"/><rect fill="#F1F1F1" height="10" style="stroke:#181818;stroke-width:0.5;" width="15" x="161" y="146.5"/><rect fill="#F1F1F1" height="2" style="stroke:#181818;stroke-width:0.5;" width="4" x="159" y="148.5"/><rect fill="#F1F1F1" height="2" style="stroke:#181818;stroke-width:0.5;" width="4" x="159" y="152.5"/><text fill="#000000" font-family="sans-serif" font-size="14" lengthAdjust="spacing" textLength="62" x="94" y="174.4951">Payment</text></g><!--entity Visualization--><g id="elem_Visualization"><rect fill="#F1F1F1" height="46.2969" rx="2.5" ry="2.5" style="stroke:#181818;stroke-width:0.5;" width="130" x="23" y="247.5"/><rect fill="#F1F1F1" height="10" style="stroke:#181818;stroke-width:0.5;" width="15" x="133" y="252.5"/><rect fill="#F1F1F1" height="2" style="stroke:#181818;stroke-width:0.5;" width="4" x="131" y="254.5"/><rect fill="#F1F1F1" height="2" style="stroke:#181818;stroke-width:0.5;" width="4" x="131" y="258.5"/><text fill="#000000" font-family="sans-serif" font-size="14" lengthAdjust="spacing" textLength="90" x="38" y="280.4951">Visualization</text></g><!--entity HTTP--><g id="elem_HTTP"><rect fill="#F1F1F1" height="46.2969" rx="2.5" ry="2.5" style="stroke:#181818;stroke-width:0.5;" width="77" x="188.5" y="247.5"/><rect fill="#F1F1F1" height="10" style="stroke:#181818;stroke-width:0.5;" width="15" x="245.5" y="252.5"/><rect fill="#F1F1F1" height="2" style="stroke:#181818;stroke-width:0.5;" width="4" x="243.5" y="254.5"/><rect fill="#F1F1F1" height="2" style="stroke:#181818;stroke-width:0.5;" width="4" x="243.5" y="258.5"/><text fill="#000000" font-family="sans-serif" font-size="14" lengthAdjust="spacing" textLength="37" x="203.5" y="280.4951">HTTP</text></g><!--entity TorProxy--><g id="elem_TorProxy"><rect fill="#F1F1F1" height="46.2969" rx="2.5" ry="2.5" style="stroke:#181818;stroke-width:0.5;" width="103" x="300.5" y="247.5"/><rect fill="#F1F1F1" height="10" style="stroke:#181818;stroke-width:0.5;" width="15" x="383.5" y="252.5"/><rect fill="#F1F1F1" height="2" style="stroke:#181818;stroke-width:0.5;" width="4" x="381.5" y="254.5"/><rect fill="#F1F1F1" height="2" style="stroke:#181818;stroke-width:0.5;" width="4" x="381.5" y="258.5"/><text fill="#000000" font-family="sans-serif" font-size="14" lengthAdjust="spacing" textLength="63" x="315.5" y="280.4951">TorProxy</text></g><text fill="#000000" font-family="sans-serif" font-size="14" lengthAdjust="spacing" textLength="22" x="434" y="249.1982">Ext</text><rect fill="#F1F1F1" height="12" style="stroke:#181818;stroke-width:1.5;" width="12" x="439" y="264.5"/><!--entity target--><g id="elem_target"><ellipse cx="130" cy="14" fill="#F1F1F1" rx="8" ry="8" style="stroke:#181818;stroke-width:0.5;"/><path d="M130,22 L130,49 M117,30 L143,30 M130,49 L117,64 M130,49 L143,64 " fill="none" style="stroke:#181818;stroke-width:0.5;"/><text fill="#000000" font-family="sans-serif" font-size="14" lengthAdjust="spacing" textLength="43" x="108.5" y="78.4951">target</text></g><!--entity attacker--><g id="elem_attacker"><ellipse cx="137" cy="468" fill="#F1F1F1" rx="8" ry="8" style="stroke:#181818;stroke-width:0.5;"/><path d="M137,476 L137,503 M124,484 L150,484 M137,503 L124,518 M137,503 L150,518 " fill="none" style="stroke:#181818;stroke-width:0.5;"/><text fill="#000000" font-family="sans-serif" font-size="14" lengthAdjust="spacing" textLength="59" x="107.5" y="532.4951">attacker</text></g><!--entity TorHiddenService--><g id="elem_TorHiddenService"><rect fill="#F1F1F1" height="46.2969" rx="2.5" ry="2.5" style="stroke:#181818;stroke-width:0.5;" width="168" x="486" y="247.5"/><rect fill="#F1F1F1" height="10" style="stroke:#181818;stroke-width:0.5;" width="15" x="634" y="252.5"/><rect fill="#F1F1F1" height="2" style="stroke:#181818;stroke-width:0.5;" width="4" x="632" y="254.5"/><rect fill="#F1F1F1" height="2" style="stroke:#181818;stroke-width:0.5;" width="4" x="632" y="258.5"/><text fill="#000000" font-family="sans-serif" font-size="14" lengthAdjust="spacing" textLength="128" x="501" y="280.4951">TorHiddenService</text></g><!--entity Webserver--><g id="elem_Webserver"><rect fill="#F1F1F1" height="46.2969" rx="2.5" ry="2.5" style="stroke:#181818;stroke-width:0.5;" width="117" x="511.5" y="353.5"/><rect fill="#F1F1F1" height="10" style="stroke:#181818;stroke-width:0.5;" width="15" x="608.5" y="358.5"/><rect fill="#F1F1F1" height="2" style="stroke:#181818;stroke-width:0.5;" width="4" x="606.5" y="360.5"/><rect fill="#F1F1F1" height="2" style="stroke:#181818;stroke-width:0.5;" width="4" x="606.5" y="364.5"/><text fill="#000000" font-family="sans-serif" font-size="14" lengthAdjust="spacing" textLength="77" x="526.5" y="386.4951">Webserver</text></g><!--reverse link Encryption to attacker--><g id="link_Encryption_attacker"><path d="M137,405.6 C137,422.27 137,439.53 137,459.08 " fill="none" id="Encryption-backto-attacker" style="stroke:#181818;stroke-width:1.0;"/><polygon fill="#181818" points="137,399.6,133,408.6,137,404.6,141,408.6,137,399.6" style="stroke:#181818;stroke-width:1.0;"/></g><!--reverse link HTTP to Encryption--><g id="link_HTTP_Encryption"><path d="M203.9831,298.0964 C188.7131,315.7364 171.33,335.84 156.06,353.48 " fill="none" id="HTTP-backto-Encryption" style="stroke:#181818;stroke-width:1.0;"/><polygon fill="#181818" points="207.91,293.56,198.9953,297.7467,204.6376,297.3404,205.0439,302.9826,207.91,293.56" style="stroke:#181818;stroke-width:1.0;"/></g><!--link target to Payment--><g id="link_target_Payment"><path d="M130,81.5 C130,101.15 130,118.64 130,135.43 " fill="none" id="target-to-Payment" style="stroke:#181818;stroke-width:1.0;"/><polygon fill="#181818" points="130,141.43,134,132.43,130,136.43,126,132.43,130,141.43" style="stroke:#181818;stroke-width:1.0;"/></g><!--link Payment to HTTP--><g id="link_Payment_HTTP"><path d="M150.57,187.56 C167.03,205.2 185.918,225.4519 202.368,243.0919 " fill="none" id="Payment-to-HTTP" style="stroke:#181818;stroke-width:1.0;"/><polygon fill="#181818" points="206.46,247.48,203.2473,238.1699,203.05,243.8233,197.3965,243.6259,206.46,247.48" style="stroke:#181818;stroke-width:1.0;"/></g><!--link HTTP to TorProxy--><g id="link_HTTP_TorProxy"><path d="M265.57,270.5 C277.17,270.5 282.76,270.5 294.35,270.5 " fill="none" id="HTTP-to-TorProxy" style="stroke:#181818;stroke-width:1.0;"/><polygon fill="#181818" points="300.35,270.5,291.35,266.5,295.35,270.5,291.35,274.5,300.35,270.5" style="stroke:#181818;stroke-width:1.0;"/></g><!--reverse link Visualization to HTTP--><g id="link_Visualization_HTTP"><path d="M159.16,270.5 C170.89,270.5 176.62,270.5 188.35,270.5 " fill="none" id="Visualization-backto-HTTP" style="stroke:#181818;stroke-width:1.0;"/><polygon fill="#181818" points="153.16,270.5,162.16,274.5,158.16,270.5,162.16,266.5,153.16,270.5" style="stroke:#181818;stroke-width:1.0;"/></g><!--link HTTP to Decryption--><g id="link_HTTP_Decryption"><path d="M240.15,293.56 C250.67,311.2 262.2768,330.6868 272.7968,348.3268 " fill="none" id="HTTP-to-Decryption" style="stroke:#181818;stroke-width:1.0;"/><polygon fill="#181818" points="275.87,353.48,274.6956,343.7014,273.309,349.1857,267.8247,347.799,275.87,353.48" style="stroke:#181818;stroke-width:1.0;"/></g><!--link TorProxy to Ext--><g id="link_TorProxy_Ext"><path d="M403.59,270.5 C415.34,270.5 427.1,270.5 438.85,270.5 " fill="none" id="TorProxy-Ext" style="stroke:#181818;stroke-width:1.0;"/></g><!--link Ext to TorHiddenService--><g id="link_Ext_TorHiddenService"><path d="M451.35,270.5 C462.78,270.5 474.21,270.5 485.65,270.5 " fill="none" id="Ext-TorHiddenService" style="stroke:#181818;stroke-width:1.0;"/><path d="M475.5673,277.5711 A10,10 0 0 0 475.5673 263.4289" fill="none" style="stroke:#181818;stroke-width:1.5;"/><ellipse cx="468.4963" cy="270.5" fill="#FFFFFF" rx="6" ry="6" style="stroke:#181818;stroke-width:1.5;"/></g><!--link TorHiddenService to Webserver--><g id="link_TorHiddenService_Webserver"><path d="M570,293.56 C570,311.2 570,329.84 570,347.48 " fill="none" id="TorHiddenService-to-Webserver" style="stroke:#181818;stroke-width:1.0;"/><polygon fill="#181818" points="570,353.48,574,344.48,570,348.48,566,344.48,570,353.48" style="stroke:#181818;stroke-width:1.0;"/></g><!--SRC=[RP7DRi8m3CVlVWgB6uT8Uu8T49CuLberpYRrfcWbgLmNKH3lJjfG6ZuYvSC_n_RV2LaDWahonmeq6gHAzfy5m8Pz4pnxnLMdol9RzuZKuWBVZFkL1Pxpq2zlfM_K1P_1DTzXHWlgzt7Fo8zhEwhTYPxYDsLPP6OPf91mx06Q81gwMFMe05CdQ3hpcGkPZyarfeFq2cYgI2Ofjpt1T6rOCLfpqKJgo1xrtXn3QDRm1HwLRrnLiVzcEJZBcMlBkpR2uIEcKcZ4ZAt56SyVI_EQ09v94Z1dkm80]--></g></svg>