<?xml version="1.0" encoding="us-ascii" standalone="no"?><svg xmlns="http://www.w3.org/2000/svg" xmlns:xlink="http://www.w3.org/1999/xlink" contentStyleType="text/css" height="328px" preserveAspectRatio="none" style="width:724px;height:328px;background:#FFFFFF;" version="1.1" viewBox="0 0 724 328" width="724px" zoomAndPan="magnify"><defs/><g><!--entity target--><g id="elem_target"><ellipse cx="50.5" cy="14" fill="#F1F1F1" rx="8" ry="8" style="stroke:#181818;stroke-width:0.5;"/><path d="M50.5,22 L50.5,49 M37.5,30 L63.5,30 M50.5,49 L37.5,64 M50.5,49 L63.5,64 " fill="none" style="stroke:#181818;stroke-width:0.5;"/><text fill="#000000" font-family="sans-serif" font-size="14" lengthAdjust="spacing" textLength="43" x="29" y="78.4951">target</text></g><!--entity attacker--><g id="elem_attacker"><ellipse cx="35.5" cy="256" fill="#F1F1F1" rx="8" ry="8" style="stroke:#181818;stroke-width:0.5;"/><path d="M35.5,264 L35.5,291 M22.5,272 L48.5,272 M35.5,291 L22.5,306 M35.5,291 L48.5,306 " fill="none" style="stroke:#181818;stroke-width:0.5;"/><text fill="#000000" font-family="sans-serif" font-size="14" lengthAdjust="spacing" textLength="59" x="6" y="320.4951">attacker</text></g><!--entity Encryption--><g id="elem_Encryption"><rect fill="#F1F1F1" height="46.2969" rx="2.5" ry="2.5" style="stroke:#181818;stroke-width:0.5;" width="116" x="100.5" y="262.5"/><rect fill="#F1F1F1" height="10" style="stroke:#181818;stroke-width:0.5;" width="15" x="196.5" y="267.5"/><rect fill="#F1F1F1" height="2" style="stroke:#181818;stroke-width:0.5;" width="4" x="194.5" y="269.5"/><rect fill="#F1F1F1" height="2" style="stroke:#181818;stroke-width:0.5;" width="4" x="194.5" y="273.5"/><text fill="#000000" font-family="sans-serif" font-size="14" lengthAdjust="spacing" textLength="76" x="115.5" y="295.4951">Encryption</text></g><!--entity Decryption--><g id="elem_Decryption"><rect fill="#F1F1F1" height="46.2969" rx="2.5" ry="2.5" style="stroke:#181818;stroke-width:0.5;" width="118" x="600.5" y="262.5"/><rect fill="#F1F1F1" height="10" style="stroke:#181818;stroke-width:0.5;" width="15" x="698.5" y="267.5"/><rect fill="#F1F1F1" height="2" style="stroke:#181818;stroke-width:0.5;" width="4" x="696.5" y="269.5"/><rect fill="#F1F1F1" height="2" style="stroke:#181818;stroke-width:0.5;" width="4" x="696.5" y="273.5"/><text fill="#000000" font-family="sans-serif" font-size="14" lengthAdjust="spacing" textLength="78" x="615.5" y="295.4951">Decryption</text></g><!--entity Payment--><g id="elem_Payment"><rect fill="#F1F1F1" height="46.2969" rx="2.5" ry="2.5" style="stroke:#181818;stroke-width:0.5;" width="102" x="107.5" y="20.5"/><rect fill="#F1F1F1" height="10" style="stroke:#181818;stroke-width:0.5;" width="15" x="189.5" y="25.5"/><rect fill="#F1F1F1" height="2" style="stroke:#181818;stroke-width:0.5;" width="4" x="187.5" y="27.5"/><rect fill="#F1F1F1" height="2" style="stroke:#181818;stroke-width:0.5;" width="4" x="187.5" y="31.5"/><text fill="#000000" font-family="sans-serif" font-size="14" lengthAdjust="spacing" textLength="62" x="122.5" y="53.4951">Payment</text></g><!--entity Visualization--><g id="elem_Visualization"><rect fill="#F1F1F1" height="46.2969" rx="2.5" ry="2.5" style="stroke:#181818;stroke-width:0.5;" width="130" x="93.5" y="141.5"/><rect fill="#F1F1F1" height="10" style="stroke:#181818;stroke-width:0.5;" width="15" x="203.5" y="146.5"/><rect fill="#F1F1F1" height="2" style="stroke:#181818;stroke-width:0.5;" width="4" x="201.5" y="148.5"/><rect fill="#F1F1F1" height="2" style="stroke:#181818;stroke-width:0.5;" width="4" x="201.5" y="152.5"/><text fill="#000000" font-family="sans-serif" font-size="14" lengthAdjust="spacing" textLength="90" x="108.5" y="174.4951">Visualization</text></g><!--entity Webserver--><g id="elem_Webserver"><rect fill="#F1F1F1" height="46.2969" rx="2.5" ry="2.5" style="stroke:#181818;stroke-width:0.5;" width="117" x="601" y="141.5"/><rect fill="#F1F1F1" height="10" style="stroke:#181818;stroke-width:0.5;" width="15" x="698" y="146.5"/><rect fill="#F1F1F1" height="2" style="stroke:#181818;stroke-width:0.5;" width="4" x="696" y="148.5"/><rect fill="#F1F1F1" height="2" style="stroke:#181818;stroke-width:0.5;" width="4" x="696" y="152.5"/><text fill="#000000" font-family="sans-serif" font-size="14" lengthAdjust="spacing" textLength="77" x="616" y="174.4951">Webserver</text></g><!--entity TorProxy--><g id="elem_TorProxy"><rect fill="#F1F1F1" height="46.2969" rx="2.5" ry="2.5" style="stroke:#181818;stroke-width:0.5;" width="103" x="259" y="141.5"/><rect fill="#F1F1F1" height="10" style="stroke:#181818;stroke-width:0.5;" width="15" x="342" y="146.5"/><rect fill="#F1F1F1" height="2" style="stroke:#181818;stroke-width:0.5;" width="4" x="340" y="148.5"/><rect fill="#F1F1F1" height="2" style="stroke:#181818;stroke-width:0.5;" width="4" x="340" y="152.5"/><text fill="#000000" font-family="sans-serif" font-size="14" lengthAdjust="spacing" textLength="63" x="274" y="174.4951">TorProxy</text></g><!--entity TorHiddenService--><g id="elem_TorHiddenService"><rect fill="#F1F1F1" height="46.2969" rx="2.5" ry="2.5" style="stroke:#181818;stroke-width:0.5;" width="168" x="397.5" y="141.5"/><rect fill="#F1F1F1" height="10" style="stroke:#181818;stroke-width:0.5;" width="15" x="545.5" y="146.5"/><rect fill="#F1F1F1" height="2" style="stroke:#181818;stroke-width:0.5;" width="4" x="543.5" y="148.5"/><rect fill="#F1F1F1" height="2" style="stroke:#181818;stroke-width:0.5;" width="4" x="543.5" y="152.5"/><text fill="#000000" font-family="sans-serif" font-size="14" lengthAdjust="spacing" textLength="128" x="412.5" y="174.4951">TorHiddenService</text></g><!--link attacker to Encryption--><g id="link_attacker_Encryption"><path d="M65.29,285.5 C76.94,285.5 82.59,285.5 94.24,285.5 " fill="none" id="attacker-to-Encryption" style="stroke:#181818;stroke-width:1.0;"/><polygon fill="#181818" points="100.24,285.5,91.24,281.5,95.24,285.5,91.24,289.5,100.24,285.5" style="stroke:#181818;stroke-width:1.0;"/></g><!--reverse link Visualization to Encryption--><g id="link_Visualization_Encryption"><path d="M158.5,193.6 C158.5,214.84 158.5,240.78 158.5,262.11 " fill="none" id="Visualization-backto-Encryption" style="stroke:#181818;stroke-width:1.0;"/><polygon fill="#181818" points="158.5,187.6,154.5,196.6,158.5,192.6,162.5,196.6,158.5,187.6" style="stroke:#181818;stroke-width:1.0;"/></g><!--link target to Payment--><g id="link_target_Payment"><path d="M72.02,43.5 C83.84,43.5 89.66,43.5 101.49,43.5 " fill="none" id="target-to-Payment" style="stroke:#181818;stroke-width:1.0;"/><polygon fill="#181818" points="107.49,43.5,98.49,39.5,102.49,43.5,98.49,47.5,107.49,43.5" style="stroke:#181818;stroke-width:1.0;"/></g><!--link Payment to Visualization--><g id="link_Payment_Visualization"><path d="M158.5,66.6 C158.5,87.84 158.5,113.78 158.5,135.11 " fill="none" id="Payment-to-Visualization" style="stroke:#181818;stroke-width:1.0;"/><polygon fill="#181818" points="158.5,141.11,162.5,132.11,158.5,136.11,154.5,132.11,158.5,141.11" style="stroke:#181818;stroke-width:1.0;"/></g><!--link Visualization to TorProxy--><g id="link_Visualization_TorProxy"><path d="M223.52,164.5 C235.29,164.5 241.07,164.5 252.85,164.5 " fill="none" id="Visualization-to-TorProxy" style="stroke:#181818;stroke-width:1.0;"/><polygon fill="#181818" points="258.85,164.5,249.85,160.5,253.85,164.5,249.85,168.5,258.85,164.5" style="stroke:#181818;stroke-width:1.0;"/></g><!--link TorProxy to TorHiddenService--><g id="link_TorProxy_TorHiddenService"><path d="M362.27,164.5 C373.91,164.5 379.56,164.5 391.2,164.5 " fill="none" id="TorProxy-to-TorHiddenService" style="stroke:#181818;stroke-width:1.0;"/><polygon fill="#181818" points="397.2,164.5,388.2,160.5,392.2,164.5,388.2,168.5,397.2,164.5" style="stroke:#181818;stroke-width:1.0;"/></g><!--link TorHiddenService to Webserver--><g id="link_TorHiddenService_Webserver"><path d="M565.63,164.5 C577.37,164.5 583.1,164.5 594.83,164.5 " fill="none" id="TorHiddenService-to-Webserver" style="stroke:#181818;stroke-width:1.0;"/><polygon fill="#181818" points="600.83,164.5,591.83,160.5,595.83,164.5,591.83,168.5,600.83,164.5" style="stroke:#181818;stroke-width:1.0;"/></g><!--link Webserver to Decryption--><g id="link_Webserver_Decryption"><path d="M659.5,187.6 C659.5,208.84 659.5,234.78 659.5,256.11 " fill="none" id="Webserver-to-Decryption" style="stroke:#181818;stroke-width:1.0;"/><polygon fill="#181818" points="659.5,262.11,663.5,253.11,659.5,257.11,655.5,253.11,659.5,262.11" style="stroke:#181818;stroke-width:1.0;"/></g><!--SRC=[PP313i8W38RlF0Klm2juqiJZ4esUApI6w63fEYC-lU06Wtbg-_7_wLz0ioV9G7Ta0Ry1c44_a8JGlX-yGyVou3I5WQrt5TnZWHNj8FInLkHYnmcUzWCR_nLl8zAhtNJsr95_XnOThJ7eJb5jDGgH8qgrgwEjhLHJV6eNY_dAvCaPbogL-LStOpALPBbPO9jj2v9eFRHqyyhg1xy0]--></g></svg>