<?xml version="1.0" encoding="us-ascii" standalone="no"?><svg xmlns="http://www.w3.org/2000/svg" xmlns:xlink="http://www.w3.org/1999/xlink" contentStyleType="text/css" height="540px" preserveAspectRatio="none" style="width:613px;height:540px;background:#FFFFFF;" version="1.1" viewBox="0 0 613 540" width="613px" zoomAndPan="magnify"><defs/><g><!--cluster Butterfly--><g id="cluster_Butterfly"><rect fill="none" height="309" rx="2.5" ry="2.5" style="stroke:#181818;stroke-width:1.0;" width="413" x="7" y="106.5"/><rect fill="none" height="10" style="stroke:#181818;stroke-width:1.0;" width="15" x="400" y="111.5"/><rect fill="none" height="2" style="stroke:#181818;stroke-width:1.0;" width="4" x="398" y="113.5"/><rect fill="none" height="2" style="stroke:#181818;stroke-width:1.0;" width="4" x="398" y="117.5"/><text fill="#000000" font-family="sans-serif" font-size="14" font-weight="bold" lengthAdjust="spacing" textLength="72" x="177.5" y="132.4951">Butterfly</text></g><!--entity Encryption--><g id="elem_Encryption"><rect fill="#F1F1F1" height="46.2969" rx="2.5" ry="2.5" style="stroke:#181818;stroke-width:0.5;" width="116" x="79" y="353.5"/><rect fill="#F1F1F1" height="10" style="stroke:#181818;stroke-width:0.5;" width="15" x="175" y="358.5"/><rect fill="#F1F1F1" height="2" style="stroke:#181818;stroke-width:0.5;" width="4" x="173" y="360.5"/><rect fill="#F1F1F1" height="2" style="stroke:#181818;stroke-width:0.5;" width="4" x="173" y="364.5"/><text fill="#000000" font-family="sans-serif" font-size="14" lengthAdjust="spacing" textLength="76" x="94" y="386.4951">Encryption</text></g><!--entity Decryption--><g id="elem_Decryption"><rect fill="#F1F1F1" height="46.2969" rx="2.5" ry="2.5" style="stroke:#181818;stroke-width:0.5;" width="118" x="230" y="353.5"/><rect fill="#F1F1F1" height="10" style="stroke:#181818;stroke-width:0.5;" width="15" x="328" y="358.5"/><rect fill="#F1F1F1" height="2" style="stroke:#181818;stroke-width:0.5;" width="4" x="326" y="360.5"/><rect fill="#F1F1F1" height="2" style="stroke:#181818;stroke-width:0.5;" width="4" x="326" y="364.5"/><text fill="#000000" font-family="sans-serif" font-size="14" lengthAdjust="spacing" textLength="78" x="245" y="386.4951">Decryption</text></g><!--entity Payment--><g id="elem_Payment"><rect fill="#F1F1F1" height="46.2969" rx="2.5" ry="2.5" style="stroke:#181818;stroke-width:0.5;" width="102" x="176" y="141.5"/><rect fill="#F1F1F1" height="10" style="stroke:#181818;stroke-width:0.5;" width="15" x="258" y="146.5"/><rect fill="#F1F1F1" height="2" style="stroke:#181818;stroke-width:0.5;" width="4" x="256" y="148.5"/><rect fill="#F1F1F1" height="2" style="stroke:#181818;stroke-width:0.5;" width="4" x="256" y="152.5"/><text fill="#000000" font-family="sans-serif" font-size="14" lengthAdjust="spacing" textLength="62" x="191" y="174.4951">Payment</text></g><!--entity Visualization--><g id="elem_Visualization"><rect fill="#F1F1F1" height="46.2969" rx="2.5" ry="2.5" style="stroke:#181818;stroke-width:0.5;" width="130" x="23" y="247.5"/><rect fill="#F1F1F1" height="10" style="stroke:#181818;stroke-width:0.5;" width="15" x="133" y="252.5"/><rect fill="#F1F1F1" height="2" style="stroke:#181818;stroke-width:0.5;" width="4" x="131" y="254.5"/><rect fill="#F1F1F1" height="2" style="stroke:#181818;stroke-width:0.5;" width="4" x="131" y="258.5"/><text fill="#000000" font-family="sans-serif" font-size="14" lengthAdjust="spacing" textLength="90" x="38" y="280.4951">Visualization</text></g><!--entity HTTP--><g id="elem_HTTP"><rect fill="#F1F1F1" height="46.2969" rx="2.5" ry="2.5" style="stroke:#181818;stroke-width:0.5;" width="77" x="188.5" y="247.5"/><rect fill="#F1F1F1" height="10" style="stroke:#181818;stroke-width:0.5;" width="15" x="245.5" y="252.5"/><rect fill="#F1F1F1" height="2" style="stroke:#181818;stroke-width:0.5;" width="4" x="243.5" y="254.5"/><rect fill="#F1F1F1" height="2" style="stroke:#181818;stroke-width:0.5;" width="4" x="243.5" y="258.5"/><text fill="#000000" font-family="sans-serif" font-size="14" lengthAdjust="spacing" textLength="37" x="203.5" y="280.4951">HTTP</text></g><!--entity TorProxy--><g id="elem_TorProxy"><rect fill="#F1F1F1" height="46.2969" rx="2.5" ry="2.5" style="stroke:#181818;stroke-width:0.5;" width="103" x="300.5" y="247.5"/><rect fill="#F1F1F1" height="10" style="stroke:#181818;stroke-width:0.5;" width="15" x="383.5" y="252.5"/><rect fill="#F1F1F1" height="2" style="stroke:#181818;stroke-width:0.5;" width="4" x="381.5" y="254.5"/><rect fill="#F1F1F1" height="2" style="stroke:#181818;stroke-width:0.5;" width="4" x="381.5" y="258.5"/><text fill="#000000" font-family="sans-serif" font-size="14" lengthAdjust="spacing" textLength="63" x="315.5" y="280.4951">TorProxy</text></g><!--entity target--><g id="elem_target"><ellipse cx="227" cy="14" fill="#F1F1F1" rx="8" ry="8" style="stroke:#181818;stroke-width:0.5;"/><path d="M227,22 L227,49 M214,30 L240,30 M227,49 L214,64 M227,49 L240,64 " fill="none" style="stroke:#181818;stroke-width:0.5;"/><text fill="#000000" font-family="sans-serif" font-size="14" lengthAdjust="spacing" textLength="43" x="205.5" y="78.4951">target</text></g><!--entity attacker--><g id="elem_attacker"><ellipse cx="137" cy="468" fill="#F1F1F1" rx="8" ry="8" style="stroke:#181818;stroke-width:0.5;"/><path d="M137,476 L137,503 M124,484 L150,484 M137,503 L124,518 M137,503 L150,518 " fill="none" style="stroke:#181818;stroke-width:0.5;"/><text fill="#000000" font-family="sans-serif" font-size="14" lengthAdjust="spacing" textLength="59" x="107.5" y="532.4951">attacker</text></g><!--entity TorHiddenService--><g id="elem_TorHiddenService"><rect fill="#F1F1F1" height="46.2969" rx="2.5" ry="2.5" style="stroke:#181818;stroke-width:0.5;" width="168" x="439" y="247.5"/><rect fill="#F1F1F1" height="10" style="stroke:#181818;stroke-width:0.5;" width="15" x="587" y="252.5"/><rect fill="#F1F1F1" height="2" style="stroke:#181818;stroke-width:0.5;" width="4" x="585" y="254.5"/><rect fill="#F1F1F1" height="2" style="stroke:#181818;stroke-width:0.5;" width="4" x="585" y="258.5"/><text fill="#000000" font-family="sans-serif" font-size="14" lengthAdjust="spacing" textLength="128" x="454" y="280.4951">TorHiddenService</text></g><!--entity Webserver--><g id="elem_Webserver"><rect fill="#F1F1F1" height="46.2969" rx="2.5" ry="2.5" style="stroke:#181818;stroke-width:0.5;" width="117" x="464.5" y="353.5"/><rect fill="#F1F1F1" height="10" style="stroke:#181818;stroke-width:0.5;" width="15" x="561.5" y="358.5"/><rect fill="#F1F1F1" height="2" style="stroke:#181818;stroke-width:0.5;" width="4" x="559.5" y="360.5"/><rect fill="#F1F1F1" height="2" style="stroke:#181818;stroke-width:0.5;" width="4" x="559.5" y="364.5"/><text fill="#000000" font-family="sans-serif" font-size="14" lengthAdjust="spacing" textLength="77" x="479.5" y="386.4951">Webserver</text></g><!--reverse link Encryption to attacker--><g id="link_Encryption_attacker"><path d="M137,405.6 C137,422.27 137,439.53 137,459.08 " fill="none" id="Encryption-backto-attacker" style="stroke:#181818;stroke-width:1.0;"/><polygon fill="#181818" points="137,399.6,133,408.6,137,404.6,141,408.6,137,399.6" style="stroke:#181818;stroke-width:1.0;"/></g><!--reverse link HTTP to Encryption--><g id="link_HTTP_Encryption"><path d="M203.9831,298.0964 C188.7131,315.7364 171.33,335.84 156.06,353.48 " fill="none" id="HTTP-backto-Encryption" style="stroke:#181818;stroke-width:1.0;"/><polygon fill="#181818" points="207.91,293.56,198.9953,297.7467,204.6376,297.3404,205.0439,302.9826,207.91,293.56" style="stroke:#181818;stroke-width:1.0;"/></g><!--link target to Payment--><g id="link_target_Payment"><path d="M227,81.5 C227,101.15 227,118.64 227,135.43 " fill="none" id="target-to-Payment" style="stroke:#181818;stroke-width:1.0;"/><polygon fill="#181818" points="227,141.43,231,132.43,227,136.43,223,132.43,227,141.43" style="stroke:#181818;stroke-width:1.0;"/></g><!--link Payment to HTTP--><g id="link_Payment_HTTP"><path d="M227,187.56 C227,205.2 227,223.84 227,241.48 " fill="none" id="Payment-to-HTTP" style="stroke:#181818;stroke-width:1.0;"/><polygon fill="#181818" points="227,247.48,231,238.48,227,242.48,223,238.48,227,247.48" style="stroke:#181818;stroke-width:1.0;"/></g><!--link HTTP to TorProxy--><g id="link_HTTP_TorProxy"><path d="M265.57,270.5 C277.17,270.5 282.76,270.5 294.35,270.5 " fill="none" id="HTTP-to-TorProxy" style="stroke:#181818;stroke-width:1.0;"/><polygon fill="#181818" points="300.35,270.5,291.35,266.5,295.35,270.5,291.35,274.5,300.35,270.5" style="stroke:#181818;stroke-width:1.0;"/></g><!--reverse link Visualization to HTTP--><g id="link_Visualization_HTTP"><path d="M159.16,270.5 C170.89,270.5 176.62,270.5 188.35,270.5 " fill="none" id="Visualization-backto-HTTP" style="stroke:#181818;stroke-width:1.0;"/><polygon fill="#181818" points="153.16,270.5,162.16,274.5,158.16,270.5,162.16,266.5,153.16,270.5" style="stroke:#181818;stroke-width:1.0;"/></g><!--link HTTP to Decryption--><g id="link_HTTP_Decryption"><path d="M240.15,293.56 C250.67,311.2 262.2768,330.6868 272.7968,348.3268 " fill="none" id="HTTP-to-Decryption" style="stroke:#181818;stroke-width:1.0;"/><polygon fill="#181818" points="275.87,353.48,274.6956,343.7014,273.309,349.1857,267.8247,347.799,275.87,353.48" style="stroke:#181818;stroke-width:1.0;"/></g><!--link TorProxy to TorHiddenService--><g id="link_TorProxy_TorHiddenService"><path d="M403.77,270.5 C415.41,270.5 421.06,270.5 432.7,270.5 " fill="none" id="TorProxy-to-TorHiddenService" style="stroke:#181818;stroke-width:1.0;"/><polygon fill="#181818" points="438.7,270.5,429.7,266.5,433.7,270.5,429.7,274.5,438.7,270.5" style="stroke:#181818;stroke-width:1.0;"/></g><!--link TorHiddenService to Webserver--><g id="link_TorHiddenService_Webserver"><path d="M523,293.56 C523,311.2 523,329.84 523,347.48 " fill="none" id="TorHiddenService-to-Webserver" style="stroke:#181818;stroke-width:1.0;"/><polygon fill="#181818" points="523,353.48,527,344.48,523,348.48,519,344.48,523,353.48" style="stroke:#181818;stroke-width:1.0;"/></g><!--SRC=[NP313e8m38RlUugz0A_WmMZ2aKIYvpggMOIDb4ASndTtE932PLs_xk_V3WnxqWnqHrRmIu0Pp0D9AUERrZjqhFSzCzAj3lejyT4P2YrRxmGyu1yAMa1eOXJaRBiUQlk2ZJuloq8gIqy5-MTGQfvCPtssa-RBDPLIYxILpgf8Plif9fYUZQUEsUAJI1tPUiQfC4h5af_DiBcjAdGdfC4Q5AKBNhi8nu-ThIRRjM8Bak6Y_W80]--></g></svg>