<?xml version="1.0" encoding="UTF-8" standalone="no"?><svg xmlns="http://www.w3.org/2000/svg" xmlns:xlink="http://www.w3.org/1999/xlink" contentScriptType="application/ecmascript" contentStyleType="text/css" height="502px" preserveAspectRatio="none" style="width:726px;height:502px;" version="1.1" viewBox="0 0 726 502" width="726px" zoomAndPan="magnify"><defs><filter height="300%" id="fjt40rwjepvkm" width="300%" x="-1" y="-1"><feGaussianBlur result="blurOut" stdDeviation="2.0"/><feColorMatrix in="blurOut" result="blurOut2" type="matrix" values="0 0 0 0 0 0 0 0 0 0 0 0 0 0 0 0 0 0 .4 0"/><feOffset dx="4.0" dy="4.0" in="blurOut2" result="blurOut3"/><feBlend in="SourceGraphic" in2="blurOut3" mode="normal"/></filter></defs><g><!--cluster butterfly--><polygon fill="#AAAAAA" filter="url(#fjt40rwjepvkm)" points="22,24,96,24,103,46.2969,704,46.2969,704,490,22,490,22,24" style="stroke: #000000; stroke-width: 1.5;"/><line style="stroke: #000000; stroke-width: 1.5;" x1="22" x2="103" y1="46.2969" y2="46.2969"/><text fill="#000000" font-family="sans-serif" font-size="14" font-weight="bold" lengthAdjust="spacingAndGlyphs" textLength="68" x="26" y="38.9951">butterfly</text><!--cluster aes--><polygon fill="#DDDDDD" filter="url(#fjt40rwjepvkm)" points="46,67,80,67,87,89.2969,680,89.2969,680,466,46,466,46,67" style="stroke: #000000; stroke-width: 1.5;"/><line style="stroke: #000000; stroke-width: 1.5;" x1="46" x2="87" y1="89.2969" y2="89.2969"/><text fill="#000000" font-family="sans-serif" font-size="14" font-weight="bold" lengthAdjust="spacingAndGlyphs" textLength="28" x="50" y="81.9951">aes</text><!--class CryptoAES--><rect fill="#FEFECE" filter="url(#fjt40rwjepvkm)" height="163.2422" id="CryptoAES" style="stroke: #A80036; stroke-width: 1.5;" width="581" x="72.5" y="102"/><ellipse cx="326.75" cy="118" fill="#ADD1B2" rx="11" ry="11" style="stroke: #A80036; stroke-width: 1.0;"/><path d="M329.7188,123.6406 Q329.1406,123.9375 328.5,124.0781 Q327.8594,124.2344 327.1563,124.2344 Q324.6563,124.2344 323.3281,122.5938 Q322.0156,120.9375 322.0156,117.8125 Q322.0156,114.6875 323.3281,113.0313 Q324.6563,111.375 327.1563,111.375 Q327.8594,111.375 328.5,111.5313 Q329.1563,111.6875 329.7188,111.9844 L329.7188,114.7031 Q329.0938,114.125 328.5,113.8594 Q327.9063,113.5781 327.2813,113.5781 Q325.9375,113.5781 325.25,114.6563 Q324.5625,115.7188 324.5625,117.8125 Q324.5625,119.9063 325.25,120.9844 Q325.9375,122.0469 327.2813,122.0469 Q327.9063,122.0469 328.5,121.7813 Q329.0938,121.5 329.7188,120.9219 L329.7188,123.6406 Z "/><text fill="#000000" font-family="sans-serif" font-size="12" lengthAdjust="spacingAndGlyphs" textLength="64" x="347.25" y="122.1543">CryptoAES</text><line style="stroke: #A80036; stroke-width: 1.5;" x1="73.5" x2="652.5" y1="134" y2="134"/><rect fill="none" height="6" style="stroke: #C82930; stroke-width: 1.0;" width="6" x="80.5" y="142.9023"/><text fill="#000000" font-family="sans-serif" font-size="11" lengthAdjust="spacingAndGlyphs" textLength="342" x="92.5" y="148.2104">_aesEncryptContext, _aesDecryptContext: EVP_CIPHER_CTX*</text><rect fill="none" height="6" style="stroke: #C82930; stroke-width: 1.0;" width="6" x="80.5" y="155.707"/><text fill="#000000" font-family="sans-serif" font-size="11" lengthAdjust="spacingAndGlyphs" textLength="189" x="92.5" y="161.0151">_aesKeyLength, _aesIvLength: int</text><text fill="#000000" font-family="sans-serif" font-size="11" lengthAdjust="spacingAndGlyphs" textLength="0" x="96.5" y="173.8198"/><polygon fill="none" points="83.5,179.3164,87.5,183.3164,83.5,187.3164,79.5,183.3164" style="stroke: #B38D22; stroke-width: 1.0;"/><text fill="#000000" font-family="sans-serif" font-size="11" lengthAdjust="spacingAndGlyphs" textLength="186" x="92.5" y="186.6245">_aesKey, _aesIv: unsigned char*</text><line style="stroke: #A80036; stroke-width: 1.5;" x1="73.5" x2="652.5" y1="193.2188" y2="193.2188"/><ellipse cx="83.5" cy="205.1211" fill="#84BE84" rx="3" ry="3" style="stroke: #038048; stroke-width: 1.0;"/><text fill="#000000" font-family="sans-serif" font-size="11" lengthAdjust="spacingAndGlyphs" textLength="67" x="92.5" y="207.4292">CryptoAES()</text><text fill="#000000" font-family="sans-serif" font-size="11" lengthAdjust="spacingAndGlyphs" textLength="0" x="96.5" y="220.2339"/><ellipse cx="83.5" cy="230.7305" fill="#84BE84" rx="3" ry="3" style="stroke: #038048; stroke-width: 1.0;"/><text fill="#000000" font-family="sans-serif" font-size="11" lengthAdjust="spacingAndGlyphs" textLength="133" x="92.5" y="233.0386">generateAESKey(): bool</text><ellipse cx="83.5" cy="243.5352" fill="#84BE84" rx="3" ry="3" style="stroke: #038048; stroke-width: 1.0;"/><text fill="#000000" font-family="sans-serif" font-size="11" lengthAdjust="spacingAndGlyphs" textLength="555" x="92.5" y="245.8433">encrypt(const unsigned char *plaintext, size_t plaintextLength, unsigned char **ciphertext): size_t</text><ellipse cx="83.5" cy="256.3398" fill="#84BE84" rx="3" ry="3" style="stroke: #038048; stroke-width: 1.0;"/><text fill="#000000" font-family="sans-serif" font-size="11" lengthAdjust="spacingAndGlyphs" textLength="528" x="92.5" y="258.6479">decrypt(unsigned char *ciphertext, size_t ciphertextLength, unsigned char **plaintext): size_t</text><!--class AESEncryptor--><rect fill="#FEFECE" filter="url(#fjt40rwjepvkm)" height="124.8281" id="AESEncryptor" style="stroke: #A80036; stroke-width: 1.5;" width="283" x="62.5" y="325"/><ellipse cx="157.75" cy="341" fill="#ADD1B2" rx="11" ry="11" style="stroke: #A80036; stroke-width: 1.0;"/><path d="M160.7188,346.6406 Q160.1406,346.9375 159.5,347.0781 Q158.8594,347.2344 158.1563,347.2344 Q155.6563,347.2344 154.3281,345.5938 Q153.0156,343.9375 153.0156,340.8125 Q153.0156,337.6875 154.3281,336.0313 Q155.6563,334.375 158.1563,334.375 Q158.8594,334.375 159.5,334.5313 Q160.1563,334.6875 160.7188,334.9844 L160.7188,337.7031 Q160.0938,337.125 159.5,336.8594 Q158.9063,336.5781 158.2813,336.5781 Q156.9375,336.5781 156.25,337.6563 Q155.5625,338.7188 155.5625,340.8125 Q155.5625,342.9063 156.25,343.9844 Q156.9375,345.0469 158.2813,345.0469 Q158.9063,345.0469 159.5,344.7813 Q160.0938,344.5 160.7188,343.9219 L160.7188,346.6406 Z "/><text fill="#000000" font-family="sans-serif" font-size="12" lengthAdjust="spacingAndGlyphs" textLength="84" x="178.25" y="345.1543">AESEncryptor</text><line style="stroke: #A80036; stroke-width: 1.5;" x1="63.5" x2="344.5" y1="357" y2="357"/><line style="stroke: #A80036; stroke-width: 1.5;" x1="63.5" x2="344.5" y1="365" y2="365"/><ellipse cx="73.5" cy="376.9023" fill="#84BE84" rx="3" ry="3" style="stroke: #038048; stroke-width: 1.0;"/><text fill="#000000" font-family="sans-serif" font-size="11" lengthAdjust="spacingAndGlyphs" textLength="84" x="82.5" y="379.2104">AESEncryptor()</text><text fill="#000000" font-family="sans-serif" font-size="11" lengthAdjust="spacingAndGlyphs" textLength="0" x="86.5" y="392.0151"/><ellipse cx="73.5" cy="402.5117" fill="#84BE84" rx="3" ry="3" style="stroke: #038048; stroke-width: 1.0;"/><text fill="#000000" font-family="sans-serif" font-size="11" lengthAdjust="spacingAndGlyphs" textLength="170" x="82.5" y="404.8198">getAESKey() const: std::string</text><ellipse cx="73.5" cy="415.3164" fill="#84BE84" rx="3" ry="3" style="stroke: #038048; stroke-width: 1.0;"/><text fill="#000000" font-family="sans-serif" font-size="11" lengthAdjust="spacingAndGlyphs" textLength="159" x="82.5" y="417.6245">getAESIv() const: std::string</text><text fill="#000000" font-family="sans-serif" font-size="11" lengthAdjust="spacingAndGlyphs" textLength="0" x="86.5" y="430.4292"/><ellipse cx="73.5" cy="440.9258" fill="#84BE84" rx="3" ry="3" style="stroke: #038048; stroke-width: 1.0;"/><text fill="#000000" font-family="sans-serif" font-size="11" lengthAdjust="spacingAndGlyphs" textLength="257" x="82.5" y="443.2339">encryptFile(const std::string &amp;filename): void</text><!--class AESDecryptor--><rect fill="#FEFECE" filter="url(#fjt40rwjepvkm)" height="124.8281" id="AESDecryptor" style="stroke: #A80036; stroke-width: 1.5;" width="283" x="380.5" y="325"/><ellipse cx="475.25" cy="341" fill="#ADD1B2" rx="11" ry="11" style="stroke: #A80036; stroke-width: 1.0;"/><path d="M478.2188,346.6406 Q477.6406,346.9375 477,347.0781 Q476.3594,347.2344 475.6563,347.2344 Q473.1563,347.2344 471.8281,345.5938 Q470.5156,343.9375 470.5156,340.8125 Q470.5156,337.6875 471.8281,336.0313 Q473.1563,334.375 475.6563,334.375 Q476.3594,334.375 477,334.5313 Q477.6563,334.6875 478.2188,334.9844 L478.2188,337.7031 Q477.5938,337.125 477,336.8594 Q476.4063,336.5781 475.7813,336.5781 Q474.4375,336.5781 473.75,337.6563 Q473.0625,338.7188 473.0625,340.8125 Q473.0625,342.9063 473.75,343.9844 Q474.4375,345.0469 475.7813,345.0469 Q476.4063,345.0469 477,344.7813 Q477.5938,344.5 478.2188,343.9219 L478.2188,346.6406 Z "/><text fill="#000000" font-family="sans-serif" font-size="12" lengthAdjust="spacingAndGlyphs" textLength="85" x="495.75" y="345.1543">AESDecryptor</text><line style="stroke: #A80036; stroke-width: 1.5;" x1="381.5" x2="662.5" y1="357" y2="357"/><line style="stroke: #A80036; stroke-width: 1.5;" x1="381.5" x2="662.5" y1="365" y2="365"/><ellipse cx="391.5" cy="376.9023" fill="#84BE84" rx="3" ry="3" style="stroke: #038048; stroke-width: 1.0;"/><text fill="#000000" font-family="sans-serif" font-size="11" lengthAdjust="spacingAndGlyphs" textLength="85" x="400.5" y="379.2104">AESDecryptor()</text><text fill="#000000" font-family="sans-serif" font-size="11" lengthAdjust="spacingAndGlyphs" textLength="0" x="404.5" y="392.0151"/><ellipse cx="391.5" cy="402.5117" fill="#84BE84" rx="3" ry="3" style="stroke: #038048; stroke-width: 1.0;"/><text fill="#000000" font-family="sans-serif" font-size="11" lengthAdjust="spacingAndGlyphs" textLength="248" x="400.5" y="404.8198">setAESKey(const std::string &amp;aesKey): void</text><ellipse cx="391.5" cy="415.3164" fill="#84BE84" rx="3" ry="3" style="stroke: #038048; stroke-width: 1.0;"/><text fill="#000000" font-family="sans-serif" font-size="11" lengthAdjust="spacingAndGlyphs" textLength="226" x="400.5" y="417.6245">setAESIv(const std::string &amp;aesIv): void</text><text fill="#000000" font-family="sans-serif" font-size="11" lengthAdjust="spacingAndGlyphs" textLength="0" x="404.5" y="430.4292"/><ellipse cx="391.5" cy="440.9258" fill="#84BE84" rx="3" ry="3" style="stroke: #038048; stroke-width: 1.0;"/><text fill="#000000" font-family="sans-serif" font-size="11" lengthAdjust="spacingAndGlyphs" textLength="257" x="400.5" y="443.2339">decryptFile(const std::string &amp;filename): void</text><!--link CryptoAES to AESEncryptor--><path d="M296.16,269.42 C281.5,288.04 266.26,307.41 252.48,324.9 " fill="none" id="CryptoAES-AESEncryptor" style="stroke: #A80036; stroke-width: 1.0;"/><polygon fill="#A80036" points="299.47,265.21,290.7548,269.7974,296.3727,269.1351,297.035,274.7531,299.47,265.21" style="stroke: #A80036; stroke-width: 1.0;"/><!--link CryptoAES to AESDecryptor--><path d="M429.84,269.42 C444.5,288.04 459.74,307.41 473.52,324.9 " fill="none" id="CryptoAES-AESDecryptor" style="stroke: #A80036; stroke-width: 1.0;"/><polygon fill="#A80036" points="426.53,265.21,428.965,274.7531,429.6273,269.1351,435.2452,269.7974,426.53,265.21" style="stroke: #A80036; stroke-width: 1.0;"/><!--
@startuml

package butterfly #AAAAAA
{

package aes #DDDDDD
{

class CryptoAES
{
    -_aesEncryptContext, _aesDecryptContext: EVP_CIPHER_CTX*
    -_aesKeyLength, _aesIvLength: int

    #_aesKey, _aesIv: unsigned char*

    +CryptoAES()

    +generateAESKey(): bool
    +encrypt(const unsigned char *plaintext, size_t plaintextLength, unsigned char **ciphertext): size_t
    +decrypt(unsigned char *ciphertext, size_t ciphertextLength, unsigned char **plaintext): size_t
}

class AESEncryptor
{
    +AESEncryptor()

    +getAESKey() const: std::string
    +getAESIv() const: std::string

    +encryptFile(const std::string &filename): void

}

class AESDecryptor
{
    +AESDecryptor()

    +setAESKey(const std::string &aesKey): void
    +setAESIv(const std::string &aesIv): void

    +decryptFile(const std::string &filename): void
}

CryptoAES <- - AESEncryptor
CryptoAES <- - AESDecryptor
}

}
@enduml

PlantUML version 1.2018.13(Mon Nov 26 18:11:51 CET 2018)
(GPL source distribution)
Java Runtime: OpenJDK Runtime Environment
JVM: OpenJDK 64-Bit Server VM
Java Version: 11.0.11+9-Ubuntu-0ubuntu2.20.04
Operating System: Linux
OS Version: 5.11.0-27-generic
Default Encoding: UTF-8
Language: de
Country: DE
--></g></svg>