<?xml version="1.0" encoding="UTF-8" standalone="no"?><svg xmlns="http://www.w3.org/2000/svg" xmlns:xlink="http://www.w3.org/1999/xlink" contentScriptType="application/ecmascript" contentStyleType="text/css" height="279px" preserveAspectRatio="none" style="width:528px;height:279px;" version="1.1" viewBox="0 0 528 279" width="528px" zoomAndPan="magnify"><defs><filter height="300%" id="f7b5oo3wz2xyf" width="300%" x="-1" y="-1"><feGaussianBlur result="blurOut" stdDeviation="2.0"/><feColorMatrix in="blurOut" result="blurOut2" type="matrix" values="0 0 0 0 0 0 0 0 0 0 0 0 0 0 0 0 0 0 .4 0"/><feOffset dx="4.0" dy="4.0" in="blurOut2" result="blurOut3"/><feBlend in="SourceGraphic" in2="blurOut3" mode="normal"/></filter></defs><g><!--MD5=[8e789fa2d79d87af7a89a0214c555b42]
cluster butterfly--><polygon fill="#AAAAAA" filter="url(#f7b5oo3wz2xyf)" points="22,24,96,24,103,46.2969,506,46.2969,506,267,22,267,22,24" style="stroke: #000000; stroke-width: 1.5;"/><line style="stroke: #000000; stroke-width: 1.5;" x1="22" x2="103" y1="46.2969" y2="46.2969"/><text fill="#000000" font-family="sans-serif" font-size="14" font-weight="bold" lengthAdjust="spacingAndGlyphs" textLength="68" x="26" y="38.9951">butterfly</text><!--MD5=[c85b91184774f21f9fb19ef777095c59]
cluster hybrid--><polygon fill="#DDDDDD" filter="url(#f7b5oo3wz2xyf)" points="46,67,102,67,109,89.2969,482,89.2969,482,243,46,243,46,67" style="stroke: #000000; stroke-width: 1.5;"/><line style="stroke: #000000; stroke-width: 1.5;" x1="46" x2="109" y1="89.2969" y2="89.2969"/><text fill="#000000" font-family="sans-serif" font-size="14" font-weight="bold" lengthAdjust="spacingAndGlyphs" textLength="50" x="50" y="81.9951">hybrid</text><!--MD5=[d3b405991237fdfd6a1d7536c9b0ae84]
class CryptoSecurity--><rect fill="#FEFECE" filter="url(#f7b5oo3wz2xyf)" height="124.8281" id="CryptoSecurity" style="stroke: #A80036; stroke-width: 1.5;" width="403" x="62.5" y="102"/><ellipse cx="214.75" cy="118" fill="#ADD1B2" rx="11" ry="11" style="stroke: #A80036; stroke-width: 1.0;"/><path d="M217.7188,123.6406 Q217.1406,123.9375 216.5,124.0781 Q215.8594,124.2344 215.1563,124.2344 Q212.6563,124.2344 211.3281,122.5938 Q210.0156,120.9375 210.0156,117.8125 Q210.0156,114.6875 211.3281,113.0313 Q212.6563,111.375 215.1563,111.375 Q215.8594,111.375 216.5,111.5313 Q217.1563,111.6875 217.7188,111.9844 L217.7188,114.7031 Q217.0938,114.125 216.5,113.8594 Q215.9063,113.5781 215.2813,113.5781 Q213.9375,113.5781 213.25,114.6563 Q212.5625,115.7188 212.5625,117.8125 Q212.5625,119.9063 213.25,120.9844 Q213.9375,122.0469 215.2813,122.0469 Q215.9063,122.0469 216.5,121.7813 Q217.0938,121.5 217.7188,120.9219 L217.7188,123.6406 Z "/><text fill="#000000" font-family="sans-serif" font-size="12" lengthAdjust="spacingAndGlyphs" textLength="90" x="235.25" y="122.1543">CryptoSecurity</text><line style="stroke: #A80036; stroke-width: 1.5;" x1="63.5" x2="464.5" y1="134" y2="134"/><line style="stroke: #A80036; stroke-width: 1.5;" x1="63.5" x2="464.5" y1="142" y2="142"/><ellipse cx="73.5" cy="153" fill="#84BE84" rx="3" ry="3" style="stroke: #038048; stroke-width: 1.0;"/><text fill="#000000" font-family="sans-serif" font-size="11" lengthAdjust="spacingAndGlyphs" textLength="91" x="82.5" y="156.2104">CryptoSecurity()</text><text fill="#000000" font-family="sans-serif" font-size="11" lengthAdjust="spacingAndGlyphs" textLength="0" x="86.5" y="169.0151"/><ellipse cx="73.5" cy="178.6094" fill="#84BE84" rx="3" ry="3" style="stroke: #038048; stroke-width: 1.0;"/><text fill="#000000" font-family="sans-serif" font-size="11" lengthAdjust="spacingAndGlyphs" text-decoration="underline" textLength="372" x="82.5" y="181.8198">saveUnencryptedAESKeyPair(const std::string &amp;aesKeyPair): void</text><ellipse cx="73.5" cy="191.4141" fill="#84BE84" rx="3" ry="3" style="stroke: #038048; stroke-width: 1.0;"/><text fill="#000000" font-family="sans-serif" font-size="11" lengthAdjust="spacingAndGlyphs" text-decoration="underline" textLength="194" x="82.5" y="194.6245">areEncryptionFilesAvailable(): bool</text><ellipse cx="73.5" cy="204.2188" fill="#84BE84" rx="3" ry="3" style="stroke: #038048; stroke-width: 1.0;"/><text fill="#000000" font-family="sans-serif" font-size="11" lengthAdjust="spacingAndGlyphs" text-decoration="underline" textLength="165" x="82.5" y="207.4292">removeDecryptedFiles(): void</text><ellipse cx="73.5" cy="217.0234" fill="#84BE84" rx="3" ry="3" style="stroke: #038048; stroke-width: 1.0;"/><text fill="#000000" font-family="sans-serif" font-size="11" lengthAdjust="spacingAndGlyphs" text-decoration="underline" textLength="377" x="82.5" y="220.2339">getAESKeyPairFromUnencryptedFile(std::string &amp;aesKeyPair): bool</text><!--MD5=[e994537dbe4211f43961eeb14d17bbf2]
@startuml

package butterfly #AAAAAA
{

package hybrid #DDDDDD
{

class CryptoSecurity
{

    + CryptoSecurity()

    + {static} saveUnencryptedAESKeyPair(const std::string &aesKeyPair): void
    + {static} areEncryptionFilesAvailable(): bool
    + {static} removeDecryptedFiles(): void
    + {static} getAESKeyPairFromUnencryptedFile(std::string &aesKeyPair): bool
}

}

}

@enduml

PlantUML version 1.2020.02(Sun Mar 01 11:22:07 CET 2020)
(GPL source distribution)
Java Runtime: OpenJDK Runtime Environment
JVM: OpenJDK 64-Bit Server VM
Java Version: 11.0.21+9-post-Ubuntu-0ubuntu122.04
Operating System: Linux
Default Encoding: UTF-8
Language: en
Country: US
--></g></svg>