<?xml version="1.0" encoding="UTF-8" standalone="no"?><svg xmlns="http://www.w3.org/2000/svg" xmlns:xlink="http://www.w3.org/1999/xlink" contentScriptType="application/ecmascript" contentStyleType="text/css" height="292px" preserveAspectRatio="none" style="width:504px;height:292px;" version="1.1" viewBox="0 0 504 292" width="504px" zoomAndPan="magnify"><defs><filter height="300%" id="f1k1ioj78vt2x8" width="300%" x="-1" y="-1"><feGaussianBlur result="blurOut" stdDeviation="2.0"/><feColorMatrix in="blurOut" result="blurOut2" type="matrix" values="0 0 0 0 0 0 0 0 0 0 0 0 0 0 0 0 0 0 .4 0"/><feOffset dx="4.0" dy="4.0" in="blurOut2" result="blurOut3"/><feBlend in="SourceGraphic" in2="blurOut3" mode="normal"/></filter></defs><g><!--MD5=[8e789fa2d79d87af7a89a0214c555b42]
cluster butterfly--><polygon fill="#AAAAAA" filter="url(#f1k1ioj78vt2x8)" points="22,24,96,24,103,46.2969,482,46.2969,482,280,22,280,22,24" style="stroke: #000000; stroke-width: 1.5;"/><line style="stroke: #000000; stroke-width: 1.5;" x1="22" x2="103" y1="46.2969" y2="46.2969"/><text fill="#000000" font-family="sans-serif" font-size="14" font-weight="bold" lengthAdjust="spacingAndGlyphs" textLength="68" x="26" y="38.9951">butterfly</text><!--MD5=[c85b91184774f21f9fb19ef777095c59]
cluster hybrid--><polygon fill="#DDDDDD" filter="url(#f1k1ioj78vt2x8)" points="46,67,102,67,109,89.2969,458,89.2969,458,256,46,256,46,67" style="stroke: #000000; stroke-width: 1.5;"/><line style="stroke: #000000; stroke-width: 1.5;" x1="46" x2="109" y1="89.2969" y2="89.2969"/><text fill="#000000" font-family="sans-serif" font-size="14" font-weight="bold" lengthAdjust="spacingAndGlyphs" textLength="50" x="50" y="81.9951">hybrid</text><!--MD5=[f08ddd3e8a816adbc77a5d52ec950d81]
class CryptoProcess--><rect fill="#FEFECE" filter="url(#f1k1ioj78vt2x8)" height="137.6328" id="CryptoProcess" style="stroke: #A80036; stroke-width: 1.5;" width="380" x="62" y="102"/><ellipse cx="202.75" cy="118" fill="#ADD1B2" rx="11" ry="11" style="stroke: #A80036; stroke-width: 1.0;"/><path d="M205.7188,123.6406 Q205.1406,123.9375 204.5,124.0781 Q203.8594,124.2344 203.1563,124.2344 Q200.6563,124.2344 199.3281,122.5938 Q198.0156,120.9375 198.0156,117.8125 Q198.0156,114.6875 199.3281,113.0313 Q200.6563,111.375 203.1563,111.375 Q203.8594,111.375 204.5,111.5313 Q205.1563,111.6875 205.7188,111.9844 L205.7188,114.7031 Q205.0938,114.125 204.5,113.8594 Q203.9063,113.5781 203.2813,113.5781 Q201.9375,113.5781 201.25,114.6563 Q200.5625,115.7188 200.5625,117.8125 Q200.5625,119.9063 201.25,120.9844 Q201.9375,122.0469 203.2813,122.0469 Q203.9063,122.0469 204.5,121.7813 Q205.0938,121.5 205.7188,120.9219 L205.7188,123.6406 Z "/><text fill="#000000" font-family="sans-serif" font-size="12" lengthAdjust="spacingAndGlyphs" textLength="90" x="223.25" y="122.1543">CryptoProcess</text><line style="stroke: #A80036; stroke-width: 1.5;" x1="63" x2="441" y1="134" y2="134"/><rect fill="none" height="6" style="stroke: #C82930; stroke-width: 1.0;" width="6" x="70" y="142"/><text fill="#000000" font-family="sans-serif" font-size="11" lengthAdjust="spacingAndGlyphs" textLength="183" x="82" y="148.2104">_processIds: std::vector&lt;pid_t&gt;</text><line style="stroke: #A80036; stroke-width: 1.5;" x1="63" x2="441" y1="154.8047" y2="154.8047"/><rect fill="#F24D5C" height="6" style="stroke: #C82930; stroke-width: 1.0;" width="6" x="70" y="162.8047"/><text fill="#000000" font-family="sans-serif" font-size="11" lengthAdjust="spacingAndGlyphs" textLength="354" x="82" y="169.0151">handleLargeFilesWithAES(const std::string &amp;filepath) = 0: void</text><text fill="#000000" font-family="sans-serif" font-size="11" lengthAdjust="spacingAndGlyphs" textLength="0" x="86" y="181.8198"/><ellipse cx="73" cy="191.4141" fill="#84BE84" rx="3" ry="3" style="stroke: #038048; stroke-width: 1.0;"/><text fill="#000000" font-family="sans-serif" font-size="11" lengthAdjust="spacingAndGlyphs" textLength="91" x="82" y="194.6245">CryptoProcess()</text><text fill="#000000" font-family="sans-serif" font-size="11" lengthAdjust="spacingAndGlyphs" textLength="0" x="86" y="207.4292"/><ellipse cx="73" cy="217.0234" fill="#84BE84" rx="3" ry="3" style="stroke: #038048; stroke-width: 1.0;"/><text fill="#000000" font-family="sans-serif" font-size="11" lengthAdjust="spacingAndGlyphs" textLength="225" x="82" y="220.2339">create(const std::string &amp;filepath): void</text><ellipse cx="73" cy="229.8281" fill="#84BE84" rx="3" ry="3" style="stroke: #038048; stroke-width: 1.0;"/><text fill="#000000" font-family="sans-serif" font-size="11" lengthAdjust="spacingAndGlyphs" textLength="75" x="82" y="233.0386">waitAll(): void</text><!--MD5=[064d1a39d917677ba75d847d6789c061]
@startuml

package butterfly #AAAAAA
{

package hybrid #DDDDDD
{

class CryptoProcess
{
    - _processIds: std::vector<pid_t>
    - handleLargeFilesWithAES(const std::string &filepath) = 0: void

    + CryptoProcess()

    + create(const std::string &filepath): void
    + waitAll(): void
}

}

}

@enduml

PlantUML version 1.2020.02(Sun Mar 01 11:22:07 CET 2020)
(GPL source distribution)
Java Runtime: OpenJDK Runtime Environment
JVM: OpenJDK 64-Bit Server VM
Java Version: 11.0.21+9-post-Ubuntu-0ubuntu122.04
Operating System: Linux
Default Encoding: UTF-8
Language: en
Country: US
--></g></svg>