<?xml version="1.0" encoding="UTF-8" standalone="no"?><svg xmlns="http://www.w3.org/2000/svg" xmlns:xlink="http://www.w3.org/1999/xlink" contentScriptType="application/ecmascript" contentStyleType="text/css" height="240px" preserveAspectRatio="none" style="width:677px;height:240px;" version="1.1" viewBox="0 0 677 240" width="677px" zoomAndPan="magnify"><defs><filter height="300%" id="f1mdgdk3grt9b2" width="300%" x="-1" y="-1"><feGaussianBlur result="blurOut" stdDeviation="2.0"/><feColorMatrix in="blurOut" result="blurOut2" type="matrix" values="0 0 0 0 0 0 0 0 0 0 0 0 0 0 0 0 0 0 .4 0"/><feOffset dx="4.0" dy="4.0" in="blurOut2" result="blurOut3"/><feBlend in="SourceGraphic" in2="blurOut3" mode="normal"/></filter></defs><g><!--cluster butterfly--><polygon fill="#AAAAAA" filter="url(#f1mdgdk3grt9b2)" points="22,24,96,24,103,46.2969,655,46.2969,655,228,22,228,22,24" style="stroke: #000000; stroke-width: 1.5;"/><line style="stroke: #000000; stroke-width: 1.5;" x1="22" x2="103" y1="46.2969" y2="46.2969"/><text fill="#000000" font-family="sans-serif" font-size="14" font-weight="bold" lengthAdjust="spacingAndGlyphs" textLength="68" x="26" y="38.9951">butterfly</text><!--cluster hybrid--><polygon fill="#DDDDDD" filter="url(#f1mdgdk3grt9b2)" points="46,67,102,67,109,89.2969,631,89.2969,631,204,46,204,46,67" style="stroke: #000000; stroke-width: 1.5;"/><line style="stroke: #000000; stroke-width: 1.5;" x1="46" x2="109" y1="89.2969" y2="89.2969"/><text fill="#000000" font-family="sans-serif" font-size="14" font-weight="bold" lengthAdjust="spacingAndGlyphs" textLength="50" x="50" y="81.9951">hybrid</text><!--class Encryptor--><rect fill="#FEFECE" filter="url(#f1mdgdk3grt9b2)" height="86.4141" id="Encryptor" style="stroke: #A80036; stroke-width: 1.5;" width="258" x="357" y="102"/><ellipse cx="451.75" cy="118" fill="#ADD1B2" rx="11" ry="11" style="stroke: #A80036; stroke-width: 1.0;"/><path d="M454.7188,123.6406 Q454.1406,123.9375 453.5,124.0781 Q452.8594,124.2344 452.1563,124.2344 Q449.6563,124.2344 448.3281,122.5938 Q447.0156,120.9375 447.0156,117.8125 Q447.0156,114.6875 448.3281,113.0313 Q449.6563,111.375 452.1563,111.375 Q452.8594,111.375 453.5,111.5313 Q454.1563,111.6875 454.7188,111.9844 L454.7188,114.7031 Q454.0938,114.125 453.5,113.8594 Q452.9063,113.5781 452.2813,113.5781 Q450.9375,113.5781 450.25,114.6563 Q449.5625,115.7188 449.5625,117.8125 Q449.5625,119.9063 450.25,120.9844 Q450.9375,122.0469 452.2813,122.0469 Q452.9063,122.0469 453.5,121.7813 Q454.0938,121.5 454.7188,120.9219 L454.7188,123.6406 Z "/><text fill="#000000" font-family="sans-serif" font-size="12" lengthAdjust="spacingAndGlyphs" textLength="60" x="472.25" y="122.1543">Encryptor</text><line style="stroke: #A80036; stroke-width: 1.5;" x1="358" x2="614" y1="134" y2="134"/><rect fill="none" height="6" style="stroke: #C82930; stroke-width: 1.0;" width="6" x="365" y="142.9023"/><text fill="#000000" font-family="sans-serif" font-size="11" lengthAdjust="spacingAndGlyphs" textLength="70" x="377" y="148.2104">_keySize: Int</text><rect fill="none" height="6" style="stroke: #C82930; stroke-width: 1.0;" width="6" x="365" y="155.707"/><text fill="#000000" font-family="sans-serif" font-size="11" lengthAdjust="spacingAndGlyphs" textLength="232" x="377" y="161.0151">_rsaEncryptorCPrivateRSA: RSAEncryptor</text><rect fill="none" height="6" style="stroke: #C82930; stroke-width: 1.0;" width="6" x="365" y="168.5117"/><text fill="#000000" font-family="sans-serif" font-size="11" lengthAdjust="spacingAndGlyphs" textLength="205" x="377" y="173.8198">_rsaEncryptorAESKey: RSAEncryptor</text><line style="stroke: #A80036; stroke-width: 1.5;" x1="358" x2="614" y1="180.4141" y2="180.4141"/><!--class Decryptor--><rect fill="#FEFECE" filter="url(#f1mdgdk3grt9b2)" height="73.6094" id="Decryptor" style="stroke: #A80036; stroke-width: 1.5;" width="260" x="62" y="108"/><ellipse cx="157.25" cy="124" fill="#ADD1B2" rx="11" ry="11" style="stroke: #A80036; stroke-width: 1.0;"/><path d="M160.2188,129.6406 Q159.6406,129.9375 159,130.0781 Q158.3594,130.2344 157.6563,130.2344 Q155.1563,130.2344 153.8281,128.5938 Q152.5156,126.9375 152.5156,123.8125 Q152.5156,120.6875 153.8281,119.0313 Q155.1563,117.375 157.6563,117.375 Q158.3594,117.375 159,117.5313 Q159.6563,117.6875 160.2188,117.9844 L160.2188,120.7031 Q159.5938,120.125 159,119.8594 Q158.4063,119.5781 157.7813,119.5781 Q156.4375,119.5781 155.75,120.6563 Q155.0625,121.7188 155.0625,123.8125 Q155.0625,125.9063 155.75,126.9844 Q156.4375,128.0469 157.7813,128.0469 Q158.4063,128.0469 159,127.7813 Q159.5938,127.5 160.2188,126.9219 L160.2188,129.6406 Z "/><text fill="#000000" font-family="sans-serif" font-size="12" lengthAdjust="spacingAndGlyphs" textLength="61" x="177.75" y="128.1543">Decryptor</text><line style="stroke: #A80036; stroke-width: 1.5;" x1="63" x2="321" y1="140" y2="140"/><rect fill="none" height="6" style="stroke: #C82930; stroke-width: 1.0;" width="6" x="70" y="148.9023"/><text fill="#000000" font-family="sans-serif" font-size="11" lengthAdjust="spacingAndGlyphs" textLength="207" x="82" y="154.2104">_rsaDecryptorAESKey: RSADecryptor</text><rect fill="none" height="6" style="stroke: #C82930; stroke-width: 1.0;" width="6" x="70" y="161.707"/><text fill="#000000" font-family="sans-serif" font-size="11" lengthAdjust="spacingAndGlyphs" textLength="234" x="82" y="167.0151">_rsaDecryptorCPrivateRSA: RSADecryptor</text><line style="stroke: #A80036; stroke-width: 1.5;" x1="63" x2="321" y1="173.6094" y2="173.6094"/><!--
@startuml

package butterfly #AAAAAA
{

package hybrid #DDDDDD
{

class Encryptor
{
    - _keySize: Int
    - _rsaEncryptorCPrivateRSA: RSAEncryptor
    - _rsaEncryptorAESKey: RSAEncryptor
}

class Decryptor
{

    -_rsaDecryptorAESKey: RSADecryptor
    -_rsaDecryptorCPrivateRSA: RSADecryptor
}

}

}
@enduml

PlantUML version 1.2018.13(Mon Nov 26 18:11:51 CET 2018)
(GPL source distribution)
Java Runtime: OpenJDK Runtime Environment
JVM: OpenJDK 64-Bit Server VM
Java Version: 11.0.11+9-Ubuntu-0ubuntu2.20.04
Operating System: Linux
OS Version: 5.11.0-27-generic
Default Encoding: UTF-8
Language: de
Country: DE
--></g></svg>