<?xml version="1.0" encoding="UTF-8" standalone="no"?><svg xmlns="http://www.w3.org/2000/svg" xmlns:xlink="http://www.w3.org/1999/xlink" contentScriptType="application/ecmascript" contentStyleType="text/css" height="149px" preserveAspectRatio="none" style="width:605px;height:149px;" version="1.1" viewBox="0 0 605 149" width="605px" zoomAndPan="magnify"><defs><filter height="300%" id="fgra2ybjfh78r" width="300%" x="-1" y="-1"><feGaussianBlur result="blurOut" stdDeviation="2.0"/><feColorMatrix in="blurOut" result="blurOut2" type="matrix" values="0 0 0 0 0 0 0 0 0 0 0 0 0 0 0 0 0 0 .4 0"/><feOffset dx="4.0" dy="4.0" in="blurOut2" result="blurOut3"/><feBlend in="SourceGraphic" in2="blurOut3" mode="normal"/></filter></defs><g><!--cluster hybrid--><polygon fill="#FFFFFF" filter="url(#fgra2ybjfh78r)" points="14,16,70,16,77,38.2969,583,38.2969,583,137,14,137,14,16" style="stroke: #000000; stroke-width: 2.0;"/><line style="stroke: #000000; stroke-width: 2.0;" x1="14" x2="77" y1="38.2969" y2="38.2969"/><text fill="#000000" font-family="sans-serif" font-size="14" font-weight="bold" lengthAdjust="spacingAndGlyphs" textLength="50" x="18" y="30.9951">hybrid</text><!--class Encryptor--><rect fill="#FEFECE" filter="url(#fgra2ybjfh78r)" height="86.4141" id="Encryptor" style="stroke: #A80036; stroke-width: 1.5;" width="258" x="317" y="43"/><ellipse cx="411.75" cy="59" fill="#ADD1B2" rx="11" ry="11" style="stroke: #A80036; stroke-width: 1.0;"/><path d="M414.7188,64.6406 Q414.1406,64.9375 413.5,65.0781 Q412.8594,65.2344 412.1563,65.2344 Q409.6563,65.2344 408.3281,63.5938 Q407.0156,61.9375 407.0156,58.8125 Q407.0156,55.6875 408.3281,54.0313 Q409.6563,52.375 412.1563,52.375 Q412.8594,52.375 413.5,52.5313 Q414.1563,52.6875 414.7188,52.9844 L414.7188,55.7031 Q414.0938,55.125 413.5,54.8594 Q412.9063,54.5781 412.2813,54.5781 Q410.9375,54.5781 410.25,55.6563 Q409.5625,56.7188 409.5625,58.8125 Q409.5625,60.9063 410.25,61.9844 Q410.9375,63.0469 412.2813,63.0469 Q412.9063,63.0469 413.5,62.7813 Q414.0938,62.5 414.7188,61.9219 L414.7188,64.6406 Z "/><text fill="#000000" font-family="sans-serif" font-size="12" lengthAdjust="spacingAndGlyphs" textLength="60" x="432.25" y="63.1543">Encryptor</text><line style="stroke: #A80036; stroke-width: 1.5;" x1="318" x2="574" y1="75" y2="75"/><rect fill="none" height="6" style="stroke: #C82930; stroke-width: 1.0;" width="6" x="325" y="83.9023"/><text fill="#000000" font-family="sans-serif" font-size="11" lengthAdjust="spacingAndGlyphs" textLength="70" x="337" y="89.2104">_keySize: Int</text><rect fill="none" height="6" style="stroke: #C82930; stroke-width: 1.0;" width="6" x="325" y="96.707"/><text fill="#000000" font-family="sans-serif" font-size="11" lengthAdjust="spacingAndGlyphs" textLength="232" x="337" y="102.0151">_rsaEncryptorCPrivateRSA: RSAEncryptor</text><rect fill="none" height="6" style="stroke: #C82930; stroke-width: 1.0;" width="6" x="325" y="109.5117"/><text fill="#000000" font-family="sans-serif" font-size="11" lengthAdjust="spacingAndGlyphs" textLength="205" x="337" y="114.8198">_rsaEncryptorAESKey: RSAEncryptor</text><line style="stroke: #A80036; stroke-width: 1.5;" x1="318" x2="574" y1="121.4141" y2="121.4141"/><!--class Decryptor--><rect fill="#FEFECE" filter="url(#fgra2ybjfh78r)" height="73.6094" id="Decryptor" style="stroke: #A80036; stroke-width: 1.5;" width="260" x="22" y="49"/><ellipse cx="117.25" cy="65" fill="#ADD1B2" rx="11" ry="11" style="stroke: #A80036; stroke-width: 1.0;"/><path d="M120.2188,70.6406 Q119.6406,70.9375 119,71.0781 Q118.3594,71.2344 117.6563,71.2344 Q115.1563,71.2344 113.8281,69.5938 Q112.5156,67.9375 112.5156,64.8125 Q112.5156,61.6875 113.8281,60.0313 Q115.1563,58.375 117.6563,58.375 Q118.3594,58.375 119,58.5313 Q119.6563,58.6875 120.2188,58.9844 L120.2188,61.7031 Q119.5938,61.125 119,60.8594 Q118.4063,60.5781 117.7813,60.5781 Q116.4375,60.5781 115.75,61.6563 Q115.0625,62.7188 115.0625,64.8125 Q115.0625,66.9063 115.75,67.9844 Q116.4375,69.0469 117.7813,69.0469 Q118.4063,69.0469 119,68.7813 Q119.5938,68.5 120.2188,67.9219 L120.2188,70.6406 Z "/><text fill="#000000" font-family="sans-serif" font-size="12" lengthAdjust="spacingAndGlyphs" textLength="61" x="137.75" y="69.1543">Decryptor</text><line style="stroke: #A80036; stroke-width: 1.5;" x1="23" x2="281" y1="81" y2="81"/><rect fill="none" height="6" style="stroke: #C82930; stroke-width: 1.0;" width="6" x="30" y="89.9023"/><text fill="#000000" font-family="sans-serif" font-size="11" lengthAdjust="spacingAndGlyphs" textLength="207" x="42" y="95.2104">_rsaDecryptorAESKey: RSADecryptor</text><rect fill="none" height="6" style="stroke: #C82930; stroke-width: 1.0;" width="6" x="30" y="102.707"/><text fill="#000000" font-family="sans-serif" font-size="11" lengthAdjust="spacingAndGlyphs" textLength="234" x="42" y="108.0151">_rsaDecryptorCPrivateRSA: RSADecryptor</text><line style="stroke: #A80036; stroke-width: 1.5;" x1="23" x2="281" y1="114.6094" y2="114.6094"/><!--
@startuml
'https://plantuml.com/sequence-diagram
package hybrid {

class Encryptor {
    - _keySize: Int
    - _rsaEncryptorCPrivateRSA: RSAEncryptor
    - _rsaEncryptorAESKey: RSAEncryptor
}

class Decryptor {

    -_rsaDecryptorAESKey: RSADecryptor
    -_rsaDecryptorCPrivateRSA: RSADecryptor
}

}
@enduml

PlantUML version 1.2017.15(Mon Jul 03 18:45:34 CEST 2017)
(GPL source distribution)
Java Runtime: OpenJDK Runtime Environment
JVM: OpenJDK 64-Bit Server VM
Java Version: 11.0.10+9-Ubuntu-0ubuntu1.18.04
Operating System: Linux
OS Version: 5.4.0-70-generic
Default Encoding: UTF-8
Language: de
Country: DE
--></g></svg>