<?xml version="1.0" encoding="UTF-8" standalone="no"?><svg xmlns="http://www.w3.org/2000/svg" xmlns:xlink="http://www.w3.org/1999/xlink" contentScriptType="application/ecmascript" contentStyleType="text/css" height="659px" preserveAspectRatio="none" style="width:1263px;height:659px;" version="1.1" viewBox="0 0 1263 659" width="1263px" zoomAndPan="magnify"><defs><filter height="300%" id="fta6pdeaufk09" width="300%" x="-1" y="-1"><feGaussianBlur result="blurOut" stdDeviation="2.0"/><feColorMatrix in="blurOut" result="blurOut2" type="matrix" values="0 0 0 0 0 0 0 0 0 0 0 0 0 0 0 0 0 0 .4 0"/><feOffset dx="4.0" dy="4.0" in="blurOut2" result="blurOut3"/><feBlend in="SourceGraphic" in2="blurOut3" mode="normal"/></filter></defs><g><rect fill="#FFFFFF" filter="url(#fta6pdeaufk09)" height="114.5313" style="stroke: #000000; stroke-width: 2.0;" width="436" x="816.5" y="411.4922"/><line style="stroke: #A80036; stroke-width: 1.0;" x1="39" x2="39" y1="86.2969" y2="195.6953"/><line style="stroke: #A80036; stroke-width: 1.0; stroke-dasharray: 1.0,4.0;" x1="39" x2="39" y1="195.6953" y2="223.6953"/><line style="stroke: #A80036; stroke-width: 1.0;" x1="39" x2="39" y1="223.6953" y2="572.1563"/><line style="stroke: #A80036; stroke-width: 1.0;" x1="148" x2="148" y1="86.2969" y2="195.6953"/><line style="stroke: #A80036; stroke-width: 1.0; stroke-dasharray: 1.0,4.0;" x1="148" x2="148" y1="195.6953" y2="223.6953"/><line style="stroke: #A80036; stroke-width: 1.0;" x1="148" x2="148" y1="223.6953" y2="572.1563"/><line style="stroke: #A80036; stroke-width: 1.0;" x1="349.5" x2="349.5" y1="86.2969" y2="195.6953"/><line style="stroke: #A80036; stroke-width: 1.0; stroke-dasharray: 1.0,4.0;" x1="349.5" x2="349.5" y1="195.6953" y2="223.6953"/><line style="stroke: #A80036; stroke-width: 1.0;" x1="349.5" x2="349.5" y1="223.6953" y2="572.1563"/><line style="stroke: #A80036; stroke-width: 1.0;" x1="435.5" x2="435.5" y1="86.2969" y2="195.6953"/><line style="stroke: #A80036; stroke-width: 1.0; stroke-dasharray: 1.0,4.0;" x1="435.5" x2="435.5" y1="195.6953" y2="223.6953"/><line style="stroke: #A80036; stroke-width: 1.0;" x1="435.5" x2="435.5" y1="223.6953" y2="572.1563"/><line style="stroke: #A80036; stroke-width: 1.0;" x1="633.5" x2="633.5" y1="86.2969" y2="195.6953"/><line style="stroke: #A80036; stroke-width: 1.0; stroke-dasharray: 1.0,4.0;" x1="633.5" x2="633.5" y1="195.6953" y2="223.6953"/><line style="stroke: #A80036; stroke-width: 1.0;" x1="633.5" x2="633.5" y1="223.6953" y2="572.1563"/><line style="stroke: #A80036; stroke-width: 1.0;" x1="764.5" x2="764.5" y1="86.2969" y2="195.6953"/><line style="stroke: #A80036; stroke-width: 1.0; stroke-dasharray: 1.0,4.0;" x1="764.5" x2="764.5" y1="195.6953" y2="223.6953"/><line style="stroke: #A80036; stroke-width: 1.0;" x1="764.5" x2="764.5" y1="223.6953" y2="572.1563"/><line style="stroke: #A80036; stroke-width: 1.0;" x1="883.5" x2="883.5" y1="86.2969" y2="195.6953"/><line style="stroke: #A80036; stroke-width: 1.0; stroke-dasharray: 1.0,4.0;" x1="883.5" x2="883.5" y1="195.6953" y2="223.6953"/><line style="stroke: #A80036; stroke-width: 1.0;" x1="883.5" x2="883.5" y1="223.6953" y2="572.1563"/><line style="stroke: #A80036; stroke-width: 1.0;" x1="1175" x2="1175" y1="86.2969" y2="195.6953"/><line style="stroke: #A80036; stroke-width: 1.0; stroke-dasharray: 1.0,4.0;" x1="1175" x2="1175" y1="195.6953" y2="223.6953"/><line style="stroke: #A80036; stroke-width: 1.0;" x1="1175" x2="1175" y1="223.6953" y2="572.1563"/><text fill="#000000" font-family="sans-serif" font-size="14" lengthAdjust="spacingAndGlyphs" textLength="56" x="8" y="82.9951">attacker</text><ellipse cx="39" cy="13" fill="#FEFECE" filter="url(#fta6pdeaufk09)" rx="8" ry="8" style="stroke: #A80036; stroke-width: 2.0;"/><path d="M39,21 L39,48 M26,29 L52,29 M39,48 L26,63 M39,48 L52,63 " fill="none" filter="url(#fta6pdeaufk09)" style="stroke: #A80036; stroke-width: 2.0;"/><text fill="#000000" font-family="sans-serif" font-size="14" lengthAdjust="spacingAndGlyphs" textLength="56" x="8" y="584.1514">attacker</text><ellipse cx="39" cy="597.4531" fill="#FEFECE" filter="url(#fta6pdeaufk09)" rx="8" ry="8" style="stroke: #A80036; stroke-width: 2.0;"/><path d="M39,605.4531 L39,632.4531 M26,613.4531 L52,613.4531 M39,632.4531 L26,647.4531 M39,632.4531 L52,647.4531 " fill="none" filter="url(#fta6pdeaufk09)" style="stroke: #A80036; stroke-width: 2.0;"/><rect fill="#FEFECE" filter="url(#fta6pdeaufk09)" height="30.2969" style="stroke: #A80036; stroke-width: 1.5;" width="132" x="80" y="51"/><text fill="#000000" font-family="sans-serif" font-size="14" lengthAdjust="spacingAndGlyphs" textLength="118" x="87" y="70.9951">SPrivateRSA.pem</text><rect fill="#FEFECE" filter="url(#fta6pdeaufk09)" height="30.2969" style="stroke: #A80036; stroke-width: 1.5;" width="132" x="80" y="571.1563"/><text fill="#000000" font-family="sans-serif" font-size="14" lengthAdjust="spacingAndGlyphs" textLength="118" x="87" y="591.1514">SPrivateRSA.pem</text><text fill="#000000" font-family="sans-serif" font-size="14" lengthAdjust="spacingAndGlyphs" textLength="41" x="326.5" y="82.9951">target</text><ellipse cx="350" cy="13" fill="#FEFECE" filter="url(#fta6pdeaufk09)" rx="8" ry="8" style="stroke: #A80036; stroke-width: 2.0;"/><path d="M350,21 L350,48 M337,29 L363,29 M350,48 L337,63 M350,48 L363,63 " fill="none" filter="url(#fta6pdeaufk09)" style="stroke: #A80036; stroke-width: 2.0;"/><text fill="#000000" font-family="sans-serif" font-size="14" lengthAdjust="spacingAndGlyphs" textLength="41" x="326.5" y="584.1514">target</text><ellipse cx="350" cy="597.4531" fill="#FEFECE" filter="url(#fta6pdeaufk09)" rx="8" ry="8" style="stroke: #A80036; stroke-width: 2.0;"/><path d="M350,605.4531 L350,632.4531 M337,613.4531 L363,613.4531 M350,632.4531 L337,647.4531 M350,632.4531 L363,647.4531 " fill="none" filter="url(#fta6pdeaufk09)" style="stroke: #A80036; stroke-width: 2.0;"/><rect fill="#FEFECE" filter="url(#fta6pdeaufk09)" height="46.5938" style="stroke: #A80036; stroke-width: 1.5;" width="100" x="383.5" y="34.7031"/><text fill="#000000" font-family="sans-serif" font-size="14" lengthAdjust="spacingAndGlyphs" textLength="85" x="391" y="54.6982">SPublic.pem</text><text fill="#000000" font-family="sans-serif" font-size="14" lengthAdjust="spacingAndGlyphs" textLength="86" x="390.5" y="70.9951">(embedded)</text><rect fill="#FEFECE" filter="url(#fta6pdeaufk09)" height="46.5938" style="stroke: #A80036; stroke-width: 1.5;" width="100" x="383.5" y="571.1563"/><text fill="#000000" font-family="sans-serif" font-size="14" lengthAdjust="spacingAndGlyphs" textLength="85" x="391" y="591.1514">SPublic.pem</text><text fill="#000000" font-family="sans-serif" font-size="14" lengthAdjust="spacingAndGlyphs" textLength="86" x="390.5" y="607.4482">(embedded)</text><rect fill="#FEFECE" filter="url(#fta6pdeaufk09)" height="30.2969" style="stroke: #A80036; stroke-width: 1.5;" width="133" x="565.5" y="51"/><text fill="#000000" font-family="sans-serif" font-size="14" lengthAdjust="spacingAndGlyphs" textLength="119" x="572.5" y="70.9951">CPrivateRSA.pem</text><rect fill="#FEFECE" filter="url(#fta6pdeaufk09)" height="30.2969" style="stroke: #A80036; stroke-width: 1.5;" width="133" x="565.5" y="571.1563"/><text fill="#000000" font-family="sans-serif" font-size="14" lengthAdjust="spacingAndGlyphs" textLength="119" x="572.5" y="591.1514">CPrivateRSA.pem</text><rect fill="#FEFECE" filter="url(#fta6pdeaufk09)" height="30.2969" style="stroke: #A80036; stroke-width: 1.5;" width="100" x="712.5" y="51"/><text fill="#000000" font-family="sans-serif" font-size="14" lengthAdjust="spacingAndGlyphs" textLength="86" x="719.5" y="70.9951">CPublic.pem</text><rect fill="#FEFECE" filter="url(#fta6pdeaufk09)" height="30.2969" style="stroke: #A80036; stroke-width: 1.5;" width="100" x="712.5" y="571.1563"/><text fill="#000000" font-family="sans-serif" font-size="14" lengthAdjust="spacingAndGlyphs" textLength="86" x="719.5" y="591.1514">CPublic.pem</text><rect fill="#FEFECE" filter="url(#fta6pdeaufk09)" height="30.2969" style="stroke: #A80036; stroke-width: 1.5;" width="110" x="826.5" y="51"/><text fill="#000000" font-family="sans-serif" font-size="14" lengthAdjust="spacingAndGlyphs" textLength="96" x="833.5" y="70.9951">AESKey/AESIV</text><rect fill="#FEFECE" filter="url(#fta6pdeaufk09)" height="30.2969" style="stroke: #A80036; stroke-width: 1.5;" width="110" x="826.5" y="571.1563"/><text fill="#000000" font-family="sans-serif" font-size="14" lengthAdjust="spacingAndGlyphs" textLength="96" x="833.5" y="591.1514">AESKey/AESIV</text><rect fill="#FEFECE" filter="url(#fta6pdeaufk09)" height="30.2969" style="stroke: #A80036; stroke-width: 1.5;" width="37" x="1155" y="51"/><text fill="#000000" font-family="sans-serif" font-size="14" lengthAdjust="spacingAndGlyphs" textLength="23" x="1162" y="70.9951">File</text><rect fill="#FEFECE" filter="url(#fta6pdeaufk09)" height="30.2969" style="stroke: #A80036; stroke-width: 1.5;" width="37" x="1155" y="571.1563"/><text fill="#000000" font-family="sans-serif" font-size="14" lengthAdjust="spacingAndGlyphs" textLength="23" x="1162" y="591.1514">File</text><polygon fill="#FBFB77" filter="url(#fta6pdeaufk09)" points="100,101.2969,482,101.2969,492,112.2969,482,124.2969,100,124.2969,90,112.2969,100,101.2969" style="stroke: #A80036; stroke-width: 1.0;"/><text fill="#000000" font-family="sans-serif" font-size="13" lengthAdjust="spacingAndGlyphs" textLength="136" x="165.25" y="117.3638">Server RSA Key pair (</text><text fill="#000000" font-family="sans-serif" font-size="13" font-weight="bold" lengthAdjust="spacingAndGlyphs" textLength="111" x="301.25" y="117.3638">Keysize: 13768</text><text fill="#000000" font-family="sans-serif" font-size="13" lengthAdjust="spacingAndGlyphs" textLength="5" x="412.25" y="117.3638">)</text><polygon fill="#FBFB77" filter="url(#fta6pdeaufk09)" points="578,134.4297,819,134.4297,829,145.4297,819,157.4297,578,157.4297,568,145.4297,578,134.4297" style="stroke: #A80036; stroke-width: 1.0;"/><text fill="#000000" font-family="sans-serif" font-size="13" lengthAdjust="spacingAndGlyphs" textLength="130" x="580" y="150.4966">Client RSA Key pair (</text><text fill="#000000" font-family="sans-serif" font-size="13" font-weight="bold" lengthAdjust="spacingAndGlyphs" textLength="102" x="710" y="150.4966">Keysize: 2048</text><text fill="#000000" font-family="sans-serif" font-size="13" lengthAdjust="spacingAndGlyphs" textLength="5" x="812" y="150.4966">)</text><polygon fill="#FBFB77" filter="url(#fta6pdeaufk09)" points="785,167.5625,982,167.5625,992,178.5625,982,190.5625,785,190.5625,775,178.5625,785,167.5625" style="stroke: #A80036; stroke-width: 1.0;"/><text fill="#000000" font-family="sans-serif" font-size="13" lengthAdjust="spacingAndGlyphs" textLength="193" x="787" y="183.6294">256-Bit-AESKey/128-Bit-AESIV</text><polygon fill="#A80036" points="50,240.8281,40,244.8281,50,248.8281,46,244.8281" style="stroke: #A80036; stroke-width: 1.0;"/><line style="stroke: #A80036; stroke-width: 1.0;" x1="44" x2="349" y1="244.8281" y2="244.8281"/><text fill="#000000" font-family="sans-serif" font-size="13" font-weight="bold" lengthAdjust="spacingAndGlyphs" textLength="9" x="56" y="239.7622">1</text><text fill="#000000" font-family="sans-serif" font-size="13" lengthAdjust="spacingAndGlyphs" textLength="126" x="69" y="239.7622">target pays ransom</text><polygon fill="#A80036" points="338,269.9609,348,273.9609,338,277.9609,342,273.9609" style="stroke: #A80036; stroke-width: 1.0;"/><line style="stroke: #A80036; stroke-width: 1.0;" x1="39" x2="344" y1="273.9609" y2="273.9609"/><text fill="#000000" font-family="sans-serif" font-size="13" font-weight="bold" lengthAdjust="spacingAndGlyphs" textLength="9" x="46" y="268.895">2</text><text fill="#000000" font-family="sans-serif" font-size="13" lengthAdjust="spacingAndGlyphs" textLength="120" x="59" y="268.895">attacker sends the</text><text fill="#000000" font-family="sans-serif" font-size="13" font-weight="bold" lengthAdjust="spacingAndGlyphs" textLength="128" x="183" y="268.895">SPrivateRSA.pem</text><text fill="#000000" font-family="sans-serif" font-size="13" lengthAdjust="spacingAndGlyphs" textLength="18" x="315" y="268.895">file</text><polygon fill="#A80036" points="622,314.2266,632,318.2266,622,322.2266,626,318.2266" style="stroke: #A80036; stroke-width: 1.0;"/><line style="stroke: #A80036; stroke-width: 1.0;" x1="350" x2="628" y1="318.2266" y2="318.2266"/><text fill="#000000" font-family="sans-serif" font-size="13" font-weight="bold" lengthAdjust="spacingAndGlyphs" textLength="9" x="357" y="305.5942">3</text><text fill="#000000" font-family="sans-serif" font-size="13" lengthAdjust="spacingAndGlyphs" textLength="73" x="370" y="298.0278">decrypt the</text><text fill="#000000" font-family="sans-serif" font-size="13" font-weight="bold" lengthAdjust="spacingAndGlyphs" textLength="119" x="447" y="298.0278">CPrivateRSA.bin</text><text fill="#000000" font-family="sans-serif" font-size="13" lengthAdjust="spacingAndGlyphs" textLength="25" x="374" y="313.1606">with</text><text fill="#000000" font-family="sans-serif" font-size="13" font-weight="bold" lengthAdjust="spacingAndGlyphs" textLength="128" x="403" y="313.1606">SPrivateRSA.pem</text><polygon fill="#A80036" points="361,348.3594,351,352.3594,361,356.3594,357,352.3594" style="stroke: #A80036; stroke-width: 1.0;"/><line style="stroke: #A80036; stroke-width: 1.0;" x1="355" x2="633" y1="352.3594" y2="352.3594"/><text fill="#000000" font-family="sans-serif" font-size="13" font-weight="bold" lengthAdjust="spacingAndGlyphs" textLength="9" x="367" y="347.2935">4</text><text fill="#000000" font-family="sans-serif" font-size="13" lengthAdjust="spacingAndGlyphs" textLength="114" x="380" y="347.2935">get the decrypted</text><text fill="#000000" font-family="sans-serif" font-size="13" font-weight="bold" lengthAdjust="spacingAndGlyphs" textLength="129" x="498" y="347.2935">CPrivateRSA.pem</text><path d="M191,331.2266 L191,356.2266 L341,356.2266 L341,341.2266 L331,331.2266 L191,331.2266 " fill="#FBFB77" filter="url(#fta6pdeaufk09)" style="stroke: #A80036; stroke-width: 1.0;"/><path d="M331,331.2266 L331,341.2266 L341,341.2266 L331,331.2266 " fill="#FBFB77" style="stroke: #A80036; stroke-width: 1.0;"/><text fill="#000000" font-family="sans-serif" font-size="13" font-weight="bold" lengthAdjust="spacingAndGlyphs" textLength="129" x="197" y="348.2935">CPrivateRSA.pem</text><polygon fill="#A80036" points="871.5,387.4922,881.5,391.4922,871.5,395.4922,875.5,391.4922" style="stroke: #A80036; stroke-width: 1.0;"/><line style="stroke: #A80036; stroke-width: 1.0;" x1="350" x2="877.5" y1="391.4922" y2="391.4922"/><text fill="#000000" font-family="sans-serif" font-size="13" font-weight="bold" lengthAdjust="spacingAndGlyphs" textLength="9" x="357" y="386.4263">5</text><text fill="#000000" font-family="sans-serif" font-size="13" lengthAdjust="spacingAndGlyphs" textLength="73" x="370" y="386.4263">decrypt the</text><text fill="#000000" font-family="sans-serif" font-size="13" font-weight="bold" lengthAdjust="spacingAndGlyphs" textLength="56" x="447" y="386.4263">AES.bin</text><text fill="#000000" font-family="sans-serif" font-size="13" lengthAdjust="spacingAndGlyphs" textLength="25" x="507" y="386.4263">with</text><text fill="#000000" font-family="sans-serif" font-size="13" font-weight="bold" lengthAdjust="spacingAndGlyphs" textLength="129" x="536" y="386.4263">CPrivateRSA.pem</text><path d="M888,370.3594 L888,395.3594 L1123,395.3594 L1123,380.3594 L1113,370.3594 L888,370.3594 " fill="#FBFB77" filter="url(#fta6pdeaufk09)" style="stroke: #A80036; stroke-width: 1.0;"/><path d="M1113,370.3594 L1113,380.3594 L1123,380.3594 L1113,370.3594 " fill="#FBFB77" style="stroke: #A80036; stroke-width: 1.0;"/><text fill="#000000" font-family="sans-serif" font-size="13" font-weight="bold" lengthAdjust="spacingAndGlyphs" textLength="214" x="894" y="387.4263">AESKeyPair(AESKey &amp; AESIV)</text><path d="M816.5,411.4922 L893.5,411.4922 L893.5,418.4922 L883.5,428.4922 L816.5,428.4922 L816.5,411.4922 " fill="#EEEEEE" style="stroke: #000000; stroke-width: 1.0;"/><rect fill="none" height="114.5313" style="stroke: #000000; stroke-width: 2.0;" width="436" x="816.5" y="411.4922"/><text fill="#000000" font-family="sans-serif" font-size="13" font-weight="bold" lengthAdjust="spacingAndGlyphs" textLength="32" x="831.5" y="424.5591">loop</text><polygon fill="#A80036" points="1163.5,445.7578,1173.5,449.7578,1163.5,453.7578,1167.5,449.7578" style="stroke: #A80036; stroke-width: 1.0;"/><line style="stroke: #A80036; stroke-width: 1.0;" x1="883.5" x2="1169.5" y1="449.7578" y2="449.7578"/><text fill="#000000" font-family="sans-serif" font-size="13" font-weight="bold" lengthAdjust="spacingAndGlyphs" textLength="9" x="890.5" y="444.6919">6</text><text fill="#000000" font-family="sans-serif" font-size="13" lengthAdjust="spacingAndGlyphs" textLength="176" x="903.5" y="444.6919">get file with butterfly ending</text><polygon fill="#A80036" points="894.5,474.8906,884.5,478.8906,894.5,482.8906,890.5,478.8906" style="stroke: #A80036; stroke-width: 1.0;"/><line style="stroke: #A80036; stroke-width: 1.0;" x1="888.5" x2="1174.5" y1="478.8906" y2="478.8906"/><text fill="#000000" font-family="sans-serif" font-size="13" font-weight="bold" lengthAdjust="spacingAndGlyphs" textLength="9" x="900.5" y="473.8247">7</text><text fill="#000000" font-family="sans-serif" font-size="13" lengthAdjust="spacingAndGlyphs" textLength="48" x="913.5" y="473.8247">decrypt</text><text fill="#000000" font-family="sans-serif" font-size="13" font-weight="bold" lengthAdjust="spacingAndGlyphs" textLength="40" x="965.5" y="473.8247">*.bfly</text><text fill="#000000" font-family="sans-serif" font-size="13" lengthAdjust="spacingAndGlyphs" textLength="47" x="1009.5" y="473.8247">file with</text><text fill="#000000" font-family="sans-serif" font-size="13" font-weight="bold" lengthAdjust="spacingAndGlyphs" textLength="108" x="1060.5" y="473.8247">AESKey&amp;AESIV</text><polygon fill="#A80036" points="1163.5,509.0234,1173.5,513.0234,1163.5,517.0234,1167.5,513.0234" style="stroke: #A80036; stroke-width: 1.0;"/><line style="stroke: #A80036; stroke-width: 1.0;" x1="883.5" x2="1169.5" y1="513.0234" y2="513.0234"/><text fill="#000000" font-family="sans-serif" font-size="13" font-weight="bold" lengthAdjust="spacingAndGlyphs" textLength="9" x="890.5" y="507.9575">8</text><text fill="#000000" font-family="sans-serif" font-size="13" lengthAdjust="spacingAndGlyphs" textLength="93" x="903.5" y="507.9575">get original file</text><path d="M1180,491.8906 L1180,516.8906 L1233,516.8906 L1233,501.8906 L1223,491.8906 L1180,491.8906 " fill="#FBFB77" filter="url(#fta6pdeaufk09)" style="stroke: #A80036; stroke-width: 1.0;"/><path d="M1223,491.8906 L1223,501.8906 L1233,501.8906 L1223,491.8906 " fill="#FBFB77" style="stroke: #A80036; stroke-width: 1.0;"/><text fill="#000000" font-family="sans-serif" font-size="13" font-weight="bold" lengthAdjust="spacingAndGlyphs" textLength="32" x="1186" y="508.9575">*.txt</text><polygon fill="#A80036" points="361,550.1563,351,554.1563,361,558.1563,357,554.1563" style="stroke: #A80036; stroke-width: 1.0;"/><line style="stroke: #A80036; stroke-width: 1.0;" x1="355" x2="1174.5" y1="554.1563" y2="554.1563"/><text fill="#000000" font-family="sans-serif" font-size="13" font-weight="bold" lengthAdjust="spacingAndGlyphs" textLength="9" x="367" y="549.0903">9</text><text fill="#000000" font-family="sans-serif" font-size="13" lengthAdjust="spacingAndGlyphs" textLength="249" x="380" y="549.0903">target has again access to all user files</text><!--
@startuml

actor attacker
participant SPrivateRSA.pem as SPrivate
actor target
participant "SPublic.pem\n(embedded)" as SPublic
participant CPrivateRSA.pem as CPrivate
participant CPublic.pem as CPublic
participant "AESKey/AESIV" as AESKey
participant File

autonumber
hnote over SPrivate, SPublic: Server RSA Key pair (**Keysize: 13768**)
hnote over CPrivate, CPublic: Client RSA Key pair (**Keysize: 2048**)
hnote over AESKey: 256-Bit-AESKey/128-Bit-AESIV
...
attacker <- target: target pays ransom
attacker -> target: attacker sends the **SPrivateRSA.pem** file

target -> CPrivate: decrypt the **CPrivateRSA.bin**\n with **SPrivateRSA.pem**
CPrivate -> target: get the decrypted **CPrivateRSA.pem**
note left: **CPrivateRSA.pem**
target -> AESKey: decrypt the **AES.bin** with **CPrivateRSA.pem**
note right: **AESKeyPair(AESKey & AESIV)**

loop
File <- AESKey: get file with butterfly ending
File -> AESKey: decrypt ***.bfly** file with **AESKey&AESIV**
File <- AESKey: get original file
note right: **~*.txt**
end
File -> target: target has again access to all user files

@enduml

PlantUML version 1.2018.13(Mon Nov 26 18:11:51 CET 2018)
(GPL source distribution)
Java Runtime: OpenJDK Runtime Environment
JVM: OpenJDK 64-Bit Server VM
Java Version: 11.0.11+9-Ubuntu-0ubuntu2.20.04
Operating System: Linux
OS Version: 5.11.0-34-generic
Default Encoding: UTF-8
Language: de
Country: DE
--></g></svg>